<svg xmlns="http://www.w3.org/2000/svg" xmlns:xlink="http://www.w3.org/1999/xlink" viewBox="0,0,256,256" width="40px" height="40px" fill-rule="nonzero" fill="none"><defs><linearGradient x1="9.858" y1="9.858" x2="38.142" y2="38.142" gradientUnits="userSpaceOnUse" id="color-1"><stop offset="0" stop-color="#029F8c"></stop><stop offset="1" stop-color="#029f8c"></stop></linearGradient><linearGradient x1="13" y1="24.793" x2="36" y2="24.793" gradientUnits="userSpaceOnUse" id="color-2"><stop offset="0.824" stop-color="#ffffff"></stop><stop offset="0.931" stop-color="#ffffff"></stop><stop offset="1" stop-color="#ffffff"></stop></linearGradient></defs><g fill="none" fill-rule="nonzero" stroke="none" stroke-width="1" stroke-linecap="butt" stroke-linejoin="miter" stroke-miterlimit="10" stroke-dasharray="" stroke-dashoffset="0" font-family="none" font-weight="none" font-size="none" text-anchor="none" style="mix-blend-mode: normal"><g transform="scale(5.33333,5.33333)"><path d="M44,24c0,11.045 -8.955,20 -20,20c-11.045,0 -20,-8.955 -20,-20c0,-11.045 8.955,-20 20,-20c11.045,0 20,8.955 20,20z" fill="url(#color-1)"></path><path d="M21.293,32.707l-8,-8c-0.391,-0.391 -0.391,-1.024 0,-1.414l1.414,-1.414c0.391,-0.391 1.024,-0.391 1.414,0l5.879,5.879l10.879,-10.879c0.391,-0.391 1.024,-0.391 1.414,0l1.414,1.414c0.391,0.391 0.391,1.024 0,1.414l-13,13c-0.39,0.391 -1.024,0.391 -1.414,0z" fill="url(#color-2)"></path></g></g></svg>