<?xml version="1.0" encoding="UTF-8" standalone="no"?>
<!DOCTYPE svg PUBLIC "-//W3C//DTD SVG 1.1//EN" "http://www.w3.org/Graphics/SVG/1.1/DTD/svg11.dtd">
<svg xmlns="http://www.w3.org/2000/svg" version="1.1" viewBox="0.00 0.00 27.00 30.00">
<path fill="#fff" d="
  M 0.00 16.49
  L 0.00 13.45
  Q 1.73 6.44 5.97 0.65
  Q 6.56 -0.16 7.33 0.49
  C 11.59 4.07 15.85 8.14 17.25 13.79
  Q 17.37 14.28 16.91 14.48
  Q 12.50 16.47 11.58 21.21
  A 0.37 0.37 0.0 0 1 10.86 21.22
  L 7.71 7.69
  A 0.21 0.21 0.0 0 0 7.29 7.73
  Q 6.92 16.91 8.58 25.93
  A 0.35 0.35 0.0 0 1 8.11 26.32
  Q 1.02 23.54 0.00 16.49
  Z"
/>
<path fill="#fff" d="
  M 27.00 15.43
  L 27.00 19.53
  C 26.53 24.27 25.07 28.78 20.14 30.00
  L 18.23 30.00
  L 16.95 29.60
  Q 16.25 29.38 16.67 28.77
  L 21.43 21.99
  A 0.35 0.35 0.0 0 0 20.92 21.52
  L 14.48 27.03
  A 0.44 0.44 0.0 0 1 13.76 26.75
  Q 12.06 14.60 27.00 15.43
  Z"
/>
</svg>
