<?xml version="1.0" encoding="UTF-8" standalone="no"?>
<!DOCTYPE svg PUBLIC "-//W3C//DTD SVG 1.1//EN" "http://www.w3.org/Graphics/SVG/1.1/DTD/svg11.dtd">
<svg xmlns="http://www.w3.org/2000/svg" version="1.1" viewBox="0.00 0.00 80.00 90.00">
<g stroke-width="2.00" fill="none" stroke-linecap="butt">
<path stroke="#828284" vector-effect="non-scaling-stroke" d="
  M 61.86 3.07
  Q 70.81 7.82 73.48 17.51
  Q 73.60 17.96 74.06 18.06
  Q 74.22 18.10 74.42 18.13"
/>
<path stroke="#597877" vector-effect="non-scaling-stroke" d="
  M 54.52 67.81
  Q 53.67 68.06 53.39 68.60
  Q 51.11 72.86 48.75 77.11
  Q 48.50 77.55 48.08 77.28
  L 47.82 77.11
  Q 47.43 76.86 47.66 76.45
  L 51.61 69.22"
/>
<path stroke="#828284" vector-effect="non-scaling-stroke" d="
  M 51.61 69.22
  Q 52.20 68.95 51.94 67.96"
/>
<path stroke="#828284" vector-effect="non-scaling-stroke" d="
  M 72.23 19.19
  Q 72.56 18.88 72.47 18.52
  Q 70.10 8.91 61.43 4.32
  Q 61.15 4.17 60.79 4.53"
/>
<path stroke="#828284" vector-effect="non-scaling-stroke" d="
  M 20.19 15.30
  C 15.78 24.93 17.56 34.59 24.33 42.92"
/>
<path stroke="#908f90" vector-effect="non-scaling-stroke" d="
  M 24.33 42.92
  Q 28.63 48.25 27.95 54.94"
/>
<path stroke="#828284" vector-effect="non-scaling-stroke" d="
  M 27.95 54.94
  Q 27.12 57.59 25.51 59.26
  A 0.55 0.55 0.0 0 1 24.65 58.58
  Q 29.16 51.67 24.03 44.97
  C 17.26 36.14 14.22 27.44 18.18 16.92
  Q 18.27 16.68 18.20 16.59
  Q 18.09 16.45 17.75 16.51"
/>
<path stroke="#badada" vector-effect="non-scaling-stroke" d="
  M 56.33 22.52
  Q 56.77 22.80 56.98 23.40"
/>
<path stroke="#badada" vector-effect="non-scaling-stroke" d="
  M 51.61 69.22
  C 48.39 69.91 48.84 72.13 46.96 73.08
  Q 46.35 73.38 45.79 73.03
  A 0.37 0.37 0.0 0 0 45.23 73.39
  Q 45.31 74.03 46.11 74.06
  Q 46.49 74.07 46.52 74.45
  Q 46.56 74.97 46.00 75.44"
/>
<path stroke="#f1f2f3" vector-effect="non-scaling-stroke" d="
  M 27.95 54.94
  Q 29.44 55.70 30.75 56.74
  C 40.01 64.11 53.10 57.35 54.73 46.71
  C 57.61 28.01 29.15 22.20 24.33 42.92"
/>
<path stroke="#badada" vector-effect="non-scaling-stroke" d="
  M 24.64 21.45
  A 0.25 0.25 0.0 0 0 25.00 21.23
  L 25.00 20.35
  A 0.39 0.39 0.0 0 0 24.31 20.10
  Q 23.61 20.95 24.64 21.45"
/>
<path stroke="#badada" vector-effect="non-scaling-stroke" d="
  M 20.80 23.38
  Q 21.41 23.86 21.67 23.66
  Q 22.22 23.26 21.91 22.49
  A 0.44 0.44 0.0 0 0 21.26 22.29
  L 20.83 22.58
  A 0.49 0.49 0.0 0 0 20.80 23.38"
/>
<path stroke="#badada" vector-effect="non-scaling-stroke" d="
  M 11.92 34.90
  A 0.38 0.37 51.1 0 0 11.86 35.48
  L 12.17 35.79
  A 0.53 0.52 -84.1 0 0 12.98 35.13
  Q 12.56 34.49 11.92 34.90"
/>
<path stroke="#badada" vector-effect="non-scaling-stroke" d="
  M 10.96 39.79
  Q 11.66 40.03 11.92 39.42
  Q 12.22 38.74 11.66 38.27
  A 0.50 0.50 0.0 0 0 10.84 38.59
  L 10.73 39.41
  Q 10.69 39.70 10.96 39.79"
/>
<path stroke="#badada" vector-effect="non-scaling-stroke" d="
  M 10.48 42.23
  A 0.65 0.65 0.0 0 0 10.47 43.52
  Q 10.98 43.59 11.31 43.33
  A 0.58 0.58 0.0 0 0 11.33 42.43
  Q 11.00 42.16 10.48 42.23"
/>
<path stroke="#badada" vector-effect="non-scaling-stroke" d="
  M 12.56 53.94
  Q 12.55 53.72 12.45 53.61
  Q 12.23 53.34 12.00 53.61
  L 11.51 54.18
  A 0.33 0.33 0.0 0 0 11.67 54.72
  Q 12.34 54.91 12.65 54.42
  Q 12.84 54.11 12.56 53.94"
/>
<path stroke="#badada" vector-effect="non-scaling-stroke" d="
  M 13.84 58.33
  Q 14.12 57.99 13.94 57.55
  Q 13.70 56.93 13.21 57.38
  Q 12.61 57.92 13.31 58.41
  Q 13.61 58.61 13.84 58.33"
/>
<path stroke="#badada" vector-effect="non-scaling-stroke" d="
  M 14.93 61.19
  L 15.20 61.61
  A 0.33 0.33 0.0 0 0 15.68 61.69
  Q 16.18 61.30 15.91 60.82
  Q 15.57 60.22 14.99 60.75
  Q 14.77 60.95 14.93 61.19"
/>
<path stroke="#badada" vector-effect="non-scaling-stroke" d="
  M 20.21 66.28
  Q 19.47 66.91 20.22 67.41
  A 0.48 0.48 0.0 0 0 20.97 67.05
  L 21.00 66.68
  A 0.48 0.48 0.0 0 0 20.21 66.28"
/>
<path stroke="#badada" vector-effect="non-scaling-stroke" d="
  M 23.6978 69.7776
  A 0.64 0.51 74.8 0 0 24.0222 69.0263
  A 0.64 0.51 74.8 0 0 23.3622 68.5424
  A 0.64 0.51 74.8 0 0 23.0378 69.2937
  A 0.64 0.51 74.8 0 0 23.6978 69.7776"
/>
<path stroke="#828284" vector-effect="non-scaling-stroke" d="
  M 17.38 73.00
  L 16.90 73.48
  A 0.47 0.47 0.0 0 0 17.42 74.25
  L 18.24 73.89
  Q 18.53 73.77 18.83 73.84
  L 20.28 74.19
  A 0.43 0.42 -22.9 0 0 20.60 73.41
  Q 19.02 72.50 20.60 71.60
  A 0.46 0.46 0.0 0 0 20.31 70.74
  L 18.41 70.98
  Q 18.01 71.04 17.68 70.80
  L 17.43 70.61
  Q 17.33 70.54 17.25 70.63
  L 17.06 70.81
  Q 16.63 71.25 17.06 71.69
  L 17.38 72.00
  Q 17.87 72.50 17.38 73.00"
/>
<path stroke="#badada" vector-effect="non-scaling-stroke" d="
  M 27.3862 71.6396
  A 0.69 0.62 45.2 0 0 27.3399 70.7131
  A 0.69 0.62 45.2 0 0 26.4138 70.6604
  A 0.69 0.62 45.2 0 0 26.4601 71.5869
  A 0.69 0.62 45.2 0 0 27.3862 71.6396"
/>
<path stroke="#badada" vector-effect="non-scaling-stroke" d="
  M 38.30 73.39
  L 37.73 73.54
  A 0.47 0.46 -20.5 0 0 37.43 74.19
  Q 37.80 74.99 38.40 74.62
  Q 38.96 74.28 38.68 73.58
  A 0.33 0.31 -17.4 0 0 38.30 73.39"
/>
<path stroke="#badada" vector-effect="non-scaling-stroke" d="
  M 42.8142 74.4337
  A 0.87 0.74 29.9 0 0 42.4289 73.3585
  A 0.87 0.74 29.9 0 0 41.3058 73.5663
  A 0.87 0.74 29.9 0 0 41.6911 74.6415
  A 0.87 0.74 29.9 0 0 42.8142 74.4337"
/>
<path stroke="#c8e8e6" vector-effect="non-scaling-stroke" d="
  M 41.64 41.80
  A 0.61 0.60 9.8 0 1 41.06 40.98
  L 43.68 34.04
  Q 43.89 33.50 43.31 33.50
  L 35.95 33.50
  Q 35.47 33.50 35.39 33.97
  L 33.48 45.31
  A 0.60 0.60 0.0 0 0 34.07 46.00
  L 38.09 46.00
  Q 38.68 46.00 38.68 46.59
  L 38.77 55.70
  Q 38.78 56.74 39.24 55.80
  L 45.72 42.45
  A 0.51 0.50 12.1 0 0 45.25 41.73
  L 41.64 41.80"
/>
</g>
<path fill="#211f21" fill-opacity="0.996" d="
  M 43.33 0.00
  L 49.53 0.00
  Q 56.26 0.46 61.86 3.07
  Q 70.81 7.82 73.48 17.51
  Q 73.60 17.96 74.06 18.06
  Q 74.22 18.10 74.42 18.13
  Q 73.72 18.01 73.95 19.02
  Q 75.43 25.54 73.55 31.28
  A 1.37 1.35 39.7 0 0 73.66 32.36
  L 78.96 41.83
  Q 79.26 42.36 79.00 42.90
  Q 77.93 45.15 75.23 44.68
  A 0.81 0.80 -3.4 0 0 74.32 45.70
  L 74.86 47.50
  A 1.34 1.34 0.0 0 1 74.75 48.55
  Q 74.00 49.90 74.07 51.38
  Q 74.09 51.72 73.92 52.02
  Q 71.66 56.07 71.91 60.77
  Q 71.93 61.27 71.68 61.70
  C 69.59 65.35 65.01 64.19 62.09 64.08
  Q 61.59 64.06 61.27 63.68
  Q 59.54 61.69 56.90 62.45
  A 0.66 0.66 0.0 0 0 56.49 62.79
  L 54.06 67.28
  Q 53.89 67.59 54.21 67.75
  Q 54.35 67.81 54.52 67.81
  Q 53.67 68.06 53.39 68.60
  Q 51.11 72.86 48.75 77.11
  Q 48.50 77.55 48.08 77.28
  L 47.82 77.11
  Q 47.43 76.86 47.66 76.45
  L 51.61 69.22
  Q 52.20 68.95 51.94 67.96
  Q 52.16 67.99 52.34 68.00
  Q 52.77 68.04 52.89 67.62
  C 56.83 53.17 64.46 67.96 70.29 61.56
  Q 70.62 61.20 70.58 60.72
  Q 70.21 55.75 72.69 51.56
  A 0.75 0.73 42.2 0 0 72.64 50.74
  Q 71.62 49.37 73.08 48.82
  Q 73.72 48.58 73.57 47.92
  L 72.97 45.34
  A 0.90 0.88 59.6 0 1 73.16 44.58
  Q 74.41 43.10 76.45 43.47
  A 1.07 1.07 0.0 0 0 77.55 41.84
  Q 75.29 38.25 73.03 34.21
  Q 71.80 32.03 72.23 30.75
  Q 74.09 25.22 72.77 19.49
  Q 72.71 19.22 72.23 19.19
  Q 72.56 18.88 72.47 18.52
  Q 70.10 8.91 61.43 4.32
  Q 61.15 4.17 60.79 4.53
  Q 60.78 4.24 60.62 3.98
  Q 60.49 3.77 60.18 3.66
  C 46.06 -1.39 28.05 0.88 20.19 15.30
  C 15.78 24.93 17.56 34.59 24.33 42.92
  Q 28.63 48.25 27.95 54.94
  Q 27.12 57.59 25.51 59.26
  A 0.55 0.55 0.0 0 1 24.65 58.58
  Q 29.16 51.67 24.03 44.97
  C 17.26 36.14 14.22 27.44 18.18 16.92
  Q 18.27 16.68 18.20 16.59
  Q 18.09 16.45 17.75 16.51
  Q 17.97 16.30 18.19 16.11
  Q 18.43 15.91 18.55 15.65
  C 23.84 4.53 31.80 1.90 43.33 0.00
  Z"
/>
<path fill="#91d0cc" d="
  M 75.96 3.37
  Q 75.13 1.95 75.02 0.90
  Q 74.93 0.00 75.65 0.54
  Q 76.76 1.37 77.95 0.43
  A 0.44 0.44 0.0 0 1 78.57 1.04
  Q 77.65 2.24 78.49 3.37
  A 0.48 0.48 0.0 0 1 77.93 4.10
  L 75.96 3.37
  Z"
/>
<path fill="#e3e4e7" d="
  M 75.96 3.37
  L 78.23 6.93
  Q 78.49 7.35 78.48 7.84
  L 78.29 16.27
  Q 78.28 16.87 77.71 16.66
  Q 75.91 15.97 74.42 18.13
  Q 74.22 18.10 74.06 18.06
  Q 73.60 17.96 73.48 17.51
  Q 70.81 7.82 61.86 3.07
  Q 68.89 -1.79 75.96 3.37
  Z"
/>
<path fill="#e3e4e7" d="
  M 72.23 19.19
  C 62.88 22.24 55.78 12.99 60.79 4.53
  Q 61.15 4.17 61.43 4.32
  Q 70.10 8.91 72.47 18.52
  Q 72.56 18.88 72.23 19.19
  Z"
/>
<circle fill="#e3e4e7" cx="2.64" cy="8.59" r="1.52"/>
<path fill="#e3e4e7" d="
  M 56.33 22.52
  Q 56.77 22.80 56.98 23.40
  C 66.02 35.76 62.49 46.93 54.26 58.23
  Q 51.03 62.67 51.94 67.96
  Q 52.20 68.95 51.61 69.22
  C 48.39 69.91 48.84 72.13 46.96 73.08
  Q 46.35 73.38 45.79 73.03
  A 0.37 0.37 0.0 0 0 45.23 73.39
  Q 45.31 74.03 46.11 74.06
  Q 46.49 74.07 46.52 74.45
  Q 46.56 74.97 46.00 75.44
  L 31.82 89.61
  A 0.51 0.51 0.0 0 1 31.01 89.49
  L 23.55 75.66
  A 2.54 2.54 0.0 0 0 20.34 74.52
  C 16.78 76.00 12.66 77.59 9.04 75.42
  A 1.31 1.30 7.8 0 1 8.44 74.64
  C 7.50 71.20 8.44 68.33 5.96 64.82
  A 1.10 1.07 39.1 0 1 5.84 63.79
  Q 6.38 62.49 5.33 61.63
  A 0.88 0.86 26.2 0 1 5.03 60.78
  L 5.57 58.15
  Q 5.74 57.32 4.90 57.20
  L 2.64 56.85
  A 1.77 1.77 0.0 0 1 1.36 54.25
  L 6.40 45.12
  Q 6.63 44.70 6.48 44.24
  C 2.94 33.73 7.93 21.53 17.75 16.51
  Q 18.09 16.45 18.20 16.59
  Q 18.27 16.68 18.18 16.92
  C 14.22 27.44 17.26 36.14 24.03 44.97
  Q 29.16 51.67 24.65 58.58
  A 0.55 0.55 0.0 0 0 25.51 59.26
  Q 27.12 57.59 27.95 54.94
  Q 29.44 55.70 30.75 56.74
  C 40.01 64.11 53.10 57.35 54.73 46.71
  C 57.61 28.01 29.15 22.20 24.33 42.92
  C 17.56 34.59 15.78 24.93 20.19 15.30
  Q 39.30 9.84 54.36 20.07
  Q 54.79 20.36 55.01 20.83
  Q 55.61 22.07 56.33 22.52
  Z
  M 24.64 21.45
  A 0.25 0.25 0.0 0 0 25.00 21.23
  L 25.00 20.35
  A 0.39 0.39 0.0 0 0 24.31 20.10
  Q 23.61 20.95 24.64 21.45
  Z
  M 20.80 23.38
  Q 21.41 23.86 21.67 23.66
  Q 22.22 23.26 21.91 22.49
  A 0.44 0.44 0.0 0 0 21.26 22.29
  L 20.83 22.58
  A 0.49 0.49 0.0 0 0 20.80 23.38
  Z
  M 11.92 34.90
  A 0.38 0.37 51.1 0 0 11.86 35.48
  L 12.17 35.79
  A 0.53 0.52 -84.1 0 0 12.98 35.13
  Q 12.56 34.49 11.92 34.90
  Z
  M 10.96 39.79
  Q 11.66 40.03 11.92 39.42
  Q 12.22 38.74 11.66 38.27
  A 0.50 0.50 0.0 0 0 10.84 38.59
  L 10.73 39.41
  Q 10.69 39.70 10.96 39.79
  Z
  M 10.48 42.23
  A 0.65 0.65 0.0 0 0 10.47 43.52
  Q 10.98 43.59 11.31 43.33
  A 0.58 0.58 0.0 0 0 11.33 42.43
  Q 11.00 42.16 10.48 42.23
  Z
  M 12.56 53.94
  Q 12.55 53.72 12.45 53.61
  Q 12.23 53.34 12.00 53.61
  L 11.51 54.18
  A 0.33 0.33 0.0 0 0 11.67 54.72
  Q 12.34 54.91 12.65 54.42
  Q 12.84 54.11 12.56 53.94
  Z
  M 13.84 58.33
  Q 14.12 57.99 13.94 57.55
  Q 13.70 56.93 13.21 57.38
  Q 12.61 57.92 13.31 58.41
  Q 13.61 58.61 13.84 58.33
  Z
  M 14.93 61.19
  L 15.20 61.61
  A 0.33 0.33 0.0 0 0 15.68 61.69
  Q 16.18 61.30 15.91 60.82
  Q 15.57 60.22 14.99 60.75
  Q 14.77 60.95 14.93 61.19
  Z
  M 20.21 66.28
  Q 19.47 66.91 20.22 67.41
  A 0.48 0.48 0.0 0 0 20.97 67.05
  L 21.00 66.68
  A 0.48 0.48 0.0 0 0 20.21 66.28
  Z
  M 23.6978 69.7776
  A 0.64 0.51 74.8 0 0 24.0222 69.0263
  A 0.64 0.51 74.8 0 0 23.3622 68.5424
  A 0.64 0.51 74.8 0 0 23.0378 69.2937
  A 0.64 0.51 74.8 0 0 23.6978 69.7776
  Z
  M 17.38 73.00
  L 16.90 73.48
  A 0.47 0.47 0.0 0 0 17.42 74.25
  L 18.24 73.89
  Q 18.53 73.77 18.83 73.84
  L 20.28 74.19
  A 0.43 0.42 -22.9 0 0 20.60 73.41
  Q 19.02 72.50 20.60 71.60
  A 0.46 0.46 0.0 0 0 20.31 70.74
  L 18.41 70.98
  Q 18.01 71.04 17.68 70.80
  L 17.43 70.61
  Q 17.33 70.54 17.25 70.63
  L 17.06 70.81
  Q 16.63 71.25 17.06 71.69
  L 17.38 72.00
  Q 17.87 72.50 17.38 73.00
  Z
  M 27.3862 71.6396
  A 0.69 0.62 45.2 0 0 27.3399 70.7131
  A 0.69 0.62 45.2 0 0 26.4138 70.6604
  A 0.69 0.62 45.2 0 0 26.4601 71.5869
  A 0.69 0.62 45.2 0 0 27.3862 71.6396
  Z
  M 38.30 73.39
  L 37.73 73.54
  A 0.47 0.46 -20.5 0 0 37.43 74.19
  Q 37.80 74.99 38.40 74.62
  Q 38.96 74.28 38.68 73.58
  A 0.33 0.31 -17.4 0 0 38.30 73.39
  Z
  M 42.8142 74.4337
  A 0.87 0.74 29.9 0 0 42.4289 73.3585
  A 0.87 0.74 29.9 0 0 41.3058 73.5663
  A 0.87 0.74 29.9 0 0 41.6911 74.6415
  A 0.87 0.74 29.9 0 0 42.8142 74.4337
  Z"
/>
<path fill="#91d0cc" d="
  M 24.64 21.45
  Q 23.61 20.95 24.31 20.10
  A 0.39 0.39 0.0 0 1 25.00 20.35
  L 25.00 21.23
  A 0.25 0.25 0.0 0 1 24.64 21.45
  Z"
/>
<path fill="#91d0cc" d="
  M 56.98 23.40
  Q 56.77 22.80 56.33 22.52
  Q 59.94 21.00 56.98 23.40
  Z"
/>
<path fill="#91d0cc" d="
  M 20.80 23.38
  A 0.49 0.49 0.0 0 1 20.83 22.58
  L 21.26 22.29
  A 0.44 0.44 0.0 0 1 21.91 22.49
  Q 22.22 23.26 21.67 23.66
  Q 21.41 23.86 20.80 23.38
  Z"
/>
<path fill="#91d0cc" d="
  M 59.53 24.79
  A 0.52 0.52 0.0 0 1 60.40 24.28
  L 60.92 24.79
  A 0.53 0.53 0.0 0 1 60.80 25.63
  Q 59.92 26.12 59.53 24.79
  Z"
/>
<path fill="#91d0cc" d="
  M 62.40 28.59
  L 62.06 27.89
  A 0.53 0.53 0.0 0 1 62.91 27.28
  L 63.31 27.69
  Q 63.62 28.00 63.31 28.31
  L 62.95 28.68
  Q 62.61 29.01 62.40 28.59
  Z"
/>
<path fill="#ffffff" d="
  M 27.95 54.94
  Q 28.63 48.25 24.33 42.92
  C 29.15 22.20 57.61 28.01 54.73 46.71
  C 53.10 57.35 40.01 64.11 30.75 56.74
  Q 29.44 55.70 27.95 54.94
  Z
  M 41.64 41.80
  A 0.61 0.60 9.8 0 1 41.06 40.98
  L 43.68 34.04
  Q 43.89 33.50 43.31 33.50
  L 35.95 33.50
  Q 35.47 33.50 35.39 33.97
  L 33.48 45.31
  A 0.60 0.60 0.0 0 0 34.07 46.00
  L 38.09 46.00
  Q 38.68 46.00 38.68 46.59
  L 38.77 55.70
  Q 38.78 56.74 39.24 55.80
  L 45.72 42.45
  A 0.51 0.50 12.1 0 0 45.25 41.73
  L 41.64 41.80
  Z"
/>
<path fill="#91d0cc" d="
  M 65.54 30.96
  Q 63.62 32.75 64.86 30.72
  Q 65.05 30.42 65.29 30.67
  L 65.54 30.91
  Q 65.56 30.94 65.54 30.96
  Z"
/>
<path fill="#91d0cc" d="
  M 41.64 41.80
  L 45.25 41.73
  A 0.51 0.50 12.1 0 1 45.72 42.45
  L 39.24 55.80
  Q 38.78 56.74 38.77 55.70
  L 38.68 46.59
  Q 38.68 46.00 38.09 46.00
  L 34.07 46.00
  A 0.60 0.60 0.0 0 1 33.48 45.31
  L 35.39 33.97
  Q 35.47 33.50 35.95 33.50
  L 43.31 33.50
  Q 43.89 33.50 43.68 34.04
  L 41.06 40.98
  A 0.61 0.60 9.8 0 0 41.64 41.80
  Z"
/>
<path fill="#91d0cc" d="
  M 66.17 34.00
  L 66.69 34.00
  A 0.67 0.67 0.0 0 1 67.26 35.01
  Q 66.83 35.71 65.85 34.81
  A 0.47 0.47 0.0 0 1 66.17 34.00
  Z"
/>
<path fill="#91d0cc" d="
  M 11.92 34.90
  Q 12.56 34.49 12.98 35.13
  A 0.53 0.52 -84.1 0 1 12.17 35.79
  L 11.86 35.48
  A 0.38 0.37 51.1 0 1 11.92 34.90
  Z"
/>
<path fill="#91d0cc" d="
  M 67.26 38.75
  Q 67.13 38.71 67.00 38.67
  A 0.28 0.27 -46.8 0 1 66.99 38.15
  Q 69.64 37.05 67.59 38.69
  Q 67.44 38.81 67.26 38.75
  Z"
/>
<path fill="#91d0cc" d="
  M 10.96 39.79
  Q 10.69 39.70 10.73 39.41
  L 10.84 38.59
  A 0.50 0.50 0.0 0 1 11.66 38.27
  Q 12.22 38.74 11.92 39.42
  Q 11.66 40.03 10.96 39.79
  Z"
/>
<path fill="#91d0cc" d="
  M 68.02 41.37
  A 0.36 0.35 -57.0 0 1 68.57 41.25
  L 69.13 41.74
  A 0.55 0.55 0.0 0 1 69.07 42.61
  Q 68.74 42.82 68.35 42.76
  Q 68.05 42.71 67.94 42.47
  Q 67.72 42.02 68.02 41.37
  Z"
/>
<path fill="#91d0cc" d="
  M 10.48 42.23
  Q 11.00 42.16 11.33 42.43
  A 0.58 0.58 0.0 0 1 11.31 43.33
  Q 10.98 43.59 10.47 43.52
  A 0.65 0.65 0.0 0 1 10.48 42.23
  Z"
/>
<path fill="#91d0cc" d="
  M 69.06 46.50
  Q 68.62 46.89 68.28 46.42
  L 68.02 46.08
  A 0.70 0.70 0.0 0 1 69.02 45.11
  Q 69.88 45.78 69.06 46.50
  Z"
/>
<path fill="#91d0cc" d="
  M 67.82 50.34
  Q 67.14 49.45 68.24 49.01
  A 0.54 0.54 0.0 0 1 68.93 49.29
  Q 69.17 49.84 68.77 50.28
  Q 68.51 50.56 68.13 50.52
  Q 67.93 50.49 67.82 50.34
  Z"
/>
<ellipse fill="#91d0cc" cx="0.00" cy="0.00" transform="translate(67.52,53.56) rotate(-27.5)" rx="0.78" ry="0.72"/>
<path fill="#91d0cc" d="
  M 12.56 53.94
  Q 12.84 54.11 12.65 54.42
  Q 12.34 54.91 11.67 54.72
  A 0.33 0.33 0.0 0 1 11.51 54.18
  L 12.00 53.61
  Q 12.23 53.34 12.45 53.61
  Q 12.55 53.72 12.56 53.94
  Z"
/>
<path fill="#91d0cc" d="
  M 66.17 57.90
  Q 65.17 57.52 65.44 56.90
  A 0.81 0.81 0.0 0 1 66.99 57.30
  Q 66.96 57.63 66.53 57.87
  A 0.44 0.41 -47.4 0 1 66.17 57.90
  Z"
/>
<path fill="#91d0cc" d="
  M 13.31 58.41
  Q 12.61 57.92 13.21 57.38
  Q 13.70 56.93 13.94 57.55
  Q 14.12 57.99 13.84 58.33
  Q 13.61 58.61 13.31 58.41
  Z"
/>
<path fill="#91d0cc" d="
  M 64.24 59.72
  Q 64.73 59.44 64.84 59.99
  L 64.99 60.73
  A 0.46 0.46 0.0 0 1 64.50 61.28
  Q 63.89 61.22 63.64 60.64
  Q 63.43 60.18 64.24 59.72
  Z"
/>
<path fill="#91d0cc" d="
  M 14.93 61.19
  Q 14.77 60.95 14.99 60.75
  Q 15.57 60.22 15.91 60.82
  Q 16.18 61.30 15.68 61.69
  A 0.33 0.33 0.0 0 1 15.20 61.61
  L 14.93 61.19
  Z"
/>
<ellipse fill="#91d0cc" cx="0.00" cy="0.00" transform="translate(59.40,66.40) rotate(45.2)" rx="0.69" ry="0.62"/>
<path fill="#91d0cc" d="
  M 20.21 66.28
  A 0.48 0.48 0.0 0 1 21.00 66.68
  L 20.97 67.05
  A 0.48 0.48 0.0 0 1 20.22 67.41
  Q 19.47 66.91 20.21 66.28
  Z"
/>
<path fill="#91d0cc" d="
  M 54.52 67.81
  Q 60.81 67.18 63.91 72.09
  C 72.75 86.09 45.72 94.84 46.00 75.44
  Q 46.56 74.97 46.52 74.45
  Q 46.49 74.07 46.11 74.06
  Q 45.31 74.03 45.23 73.39
  A 0.37 0.37 0.0 0 1 45.79 73.03
  Q 46.35 73.38 46.96 73.08
  C 48.84 72.13 48.39 69.91 51.61 69.22
  L 47.66 76.45
  Q 47.43 76.86 47.82 77.11
  L 48.08 77.28
  Q 48.50 77.55 48.75 77.11
  Q 51.11 72.86 53.39 68.60
  Q 53.67 68.06 54.52 67.81
  Z"
/>
<ellipse fill="#91d0cc" cx="0.00" cy="0.00" transform="translate(23.53,69.16) rotate(74.8)" rx="0.64" ry="0.51"/>
<path fill="#211f21" fill-opacity="0.996" d="
  M 17.38 72.00
  L 17.06 71.69
  Q 16.63 71.25 17.06 70.81
  L 17.25 70.63
  Q 17.33 70.54 17.43 70.61
  L 17.68 70.80
  Q 18.01 71.04 18.41 70.98
  L 20.31 70.74
  A 0.46 0.46 0.0 0 1 20.60 71.60
  Q 19.02 72.50 20.60 73.41
  A 0.43 0.42 -22.9 0 1 20.28 74.19
  L 18.83 73.84
  Q 18.53 73.77 18.24 73.89
  L 17.42 74.25
  A 0.47 0.47 0.0 0 1 16.90 73.48
  L 17.38 73.00
  Q 17.87 72.50 17.38 72.00
  Z"
/>
<ellipse fill="#91d0cc" cx="0.00" cy="0.00" transform="translate(26.90,71.15) rotate(45.2)" rx="0.69" ry="0.62"/>
<path fill="#91d0cc" d="
  M 38.30 73.39
  A 0.33 0.31 -17.4 0 1 38.68 73.58
  Q 38.96 74.28 38.40 74.62
  Q 37.80 74.99 37.43 74.19
  A 0.47 0.46 -20.5 0 1 37.73 73.54
  L 38.30 73.39
  Z"
/>
<ellipse fill="#91d0cc" cx="0.00" cy="0.00" transform="translate(42.06,74.00) rotate(29.9)" rx="0.87" ry="0.74"/>
<path fill="#211f21" fill-opacity="0.996" d="
  M 18.88 77.50
  L 19.75 76.98
  A 0.49 0.49 0.0 0 1 20.43 77.64
  L 19.95 78.53
  A 0.49 0.49 0.0 0 0 19.96 79.02
  L 20.48 79.89
  A 0.49 0.49 0.0 0 1 19.82 80.57
  L 18.93 80.09
  A 0.49 0.49 0.0 0 0 18.44 80.10
  L 17.57 80.62
  A 0.49 0.49 0.0 0 1 16.89 79.96
  L 17.37 79.07
  A 0.49 0.49 0.0 0 0 17.36 78.58
  L 16.84 77.71
  A 0.49 0.49 0.0 0 1 17.50 77.03
  L 18.39 77.51
  A 0.49 0.49 0.0 0 0 18.88 77.50
  Z"
/>
<path fill="#211f21" fill-opacity="0.996" d="
  M 20.25 85.87
  Q 20.61 86.09 20.44 86.65
  A 0.54 0.54 0.0 0 1 19.67 86.97
  L 18.90 86.56
  A 0.60 0.59 36.1 0 0 18.22 86.66
  Q 17.82 87.05 17.34 87.19
  Q 15.46 87.71 16.89 86.39
  Q 17.93 85.43 16.88 84.36
  A 0.55 0.55 0.0 0 1 17.62 83.55
  Q 18.63 84.37 19.69 83.45
  A 0.53 0.53 0.0 0 1 20.54 84.01
  L 20.08 85.40
  A 0.41 0.39 -66.0 0 0 20.25 85.87
  Z"
/>
</svg>
