<?xml version="1.0" encoding="UTF-8" standalone="no"?>
<!DOCTYPE svg PUBLIC "-//W3C//DTD SVG 1.1//EN" "http://www.w3.org/Graphics/SVG/1.1/DTD/svg11.dtd">
<svg xmlns="http://www.w3.org/2000/svg" version="1.1" viewBox="0.00 0.00 80.00 90.00">
<g stroke-width="2.00" fill="none" stroke-linecap="butt">
<path stroke="#757475" vector-effect="non-scaling-stroke" d="
  M 67.21 13.85
  Q 67.15 14.79 67.78 15.09"
/>
<path stroke="#757475" vector-effect="non-scaling-stroke" d="
  M 61.33 74.62
  Q 59.80 74.31 59.86 74.72"
/>
<path stroke="#738483" vector-effect="non-scaling-stroke" d="
  M 50.96 72.76
  Q 50.09 72.59 49.75 73.22
  Q 47.31 77.58 44.89 81.94
  Q 44.69 82.29 44.73 82.58
  Q 44.78 82.94 45.02 83.21"
/>
<path stroke="#738483" vector-effect="non-scaling-stroke" d="
  M 43.01 82.57
  L 49.23 71.26"
/>
<path stroke="#757475" vector-effect="non-scaling-stroke" d="
  M 59.59 72.75
  Q 60.22 73.50 60.94 73.17"
/>
<path stroke="#757475" vector-effect="non-scaling-stroke" d="
  M 66.44 16.17
  Q 66.63 16.12 66.12 14.91"
/>
<path stroke="#757475" vector-effect="non-scaling-stroke" d="
  M 12.32 11.49
  Q 9.97 12.90 8.32 16.72"
/>
<path stroke="#5b7a79" vector-effect="non-scaling-stroke" d="
  M 8.02 41.42
  Q 7.85 41.44 7.73 41.49
  Q 7.38 41.64 7.56 41.98
  C 11.69 49.81 22.35 60.25 13.48 69.46"
/>
<path stroke="#5b7a79" vector-effect="non-scaling-stroke" d="
  M 12.86 68.34
  C 20.56 60.02 9.94 49.30 6.01 42.23"
/>
<path stroke="#757475" vector-effect="non-scaling-stroke" d="
  M 7.12 15.56
  L 10.96 10.26"
/>
</g>
<path fill="#252325" fill-opacity="0.996" d="
  M 34.88 0.00
  L 42.23 0.00
  Q 58.74 0.90 67.21 13.85
  Q 67.15 14.79 67.78 15.09
  Q 71.08 22.56 70.84 30.73
  C 70.74 34.24 68.53 35.42 70.58 39.17
  Q 73.08 43.73 75.74 48.28
  A 1.40 1.37 38.9 0 1 75.87 49.41
  Q 74.91 52.42 71.47 51.91
  A 0.96 0.96 0.0 0 0 70.50 53.34
  C 71.78 55.54 69.93 61.24 68.56 63.09
  A 1.60 1.54 -24.8 0 0 68.25 63.89
  C 67.76 68.60 68.64 75.22 61.33 74.62
  Q 59.80 74.31 59.86 74.72
  L 51.43 71.92
  A 0.44 0.44 0.0 0 0 50.87 72.44
  L 50.96 72.76
  Q 50.09 72.59 49.75 73.22
  Q 47.31 77.58 44.89 81.94
  Q 44.69 82.29 44.73 82.58
  Q 44.78 82.94 45.02 83.21
  Q 44.09 83.17 43.81 83.81
  Q 42.13 87.69 40.48 90.00
  L 39.95 90.00
  Q 39.56 89.24 39.81 88.81
  Q 41.76 85.55 43.01 82.57
  L 49.23 71.26
  Q 53.51 70.53 58.06 72.94
  Q 58.82 73.34 59.59 72.75
  Q 60.22 73.50 60.94 73.17
  C 64.31 73.73 66.25 72.57 66.30 68.98
  Q 66.38 64.04 68.80 59.69
  Q 69.04 59.26 68.74 58.86
  Q 67.64 57.41 69.35 56.78
  Q 69.97 56.56 69.83 55.92
  L 69.27 53.20
  A 1.97 1.96 -11.3 0 1 70.82 50.88
  L 73.85 50.29
  A 1.02 1.02 0.0 0 0 74.52 48.76
  Q 71.68 44.17 69.11 39.29
  C 67.17 35.59 69.55 32.99 69.54 29.56
  Q 69.53 23.00 67.16 16.87
  Q 67.05 16.58 66.79 16.40
  L 66.44 16.17
  Q 66.63 16.12 66.12 14.91
  C 55.96 -2.59 26.89 -2.57 13.14 10.03
  C 12.52 10.59 12.51 10.71 12.32 11.49
  Q 9.97 12.90 8.32 16.72
  Q 2.34 28.57 6.94 40.60
  Q 7.09 40.99 7.35 41.14
  Q 7.62 41.31 8.02 41.42
  Q 7.85 41.44 7.73 41.49
  Q 7.38 41.64 7.56 41.98
  C 11.69 49.81 22.35 60.25 13.48 69.46
  Q 12.96 68.96 12.86 68.34
  C 20.56 60.02 9.94 49.30 6.01 42.23
  Q 6.10 41.93 5.81 41.20
  Q 0.67 28.29 7.27 15.86
  Q 7.33 15.76 7.26 15.66
  Q 6.82 14.94 7.12 15.56
  L 10.96 10.26
  Q 20.46 0.89 34.88 0.00
  Z"
/>
<circle fill="#91d0cc" cx="68.46" cy="3.83" r="3.18"/>
<path fill="#e3e4e7" d="
  M 32.22 5.05
  C 34.82 3.29 37.80 5.90 35.82 8.63
  Q 34.11 10.99 32.26 13.26
  Q 31.87 13.73 31.50 13.25
  L 27.56 8.23
  Q 27.20 7.77 27.23 7.18
  C 27.35 4.89 29.43 3.63 31.31 5.03
  A 0.79 0.79 0.0 0 0 32.22 5.05
  Z"
/>
<path fill="#c4c4c4" d="
  M 67.78 15.09
  Q 67.15 14.79 67.21 13.85
  Q 71.99 10.39 77.50 9.01
  Q 77.89 8.91 77.95 9.31
  L 78.00 9.66
  Q 78.08 10.22 77.52 10.37
  Q 72.42 11.75 67.78 15.09
  Z"
/>
<path fill="#c4c4c4" d="
  M 10.96 10.26
  L 7.12 15.56
  Q 5.76 10.51 10.96 10.26
  Z"
/>
<path fill="#c4c4c4" d="
  M 8.32 16.72
  Q 9.97 12.90 12.32 11.49
  Q 17.58 8.90 19.23 12.31
  C 20.49 14.94 15.13 20.52 13.55 22.51
  Q 13.18 22.99 12.81 22.51
  L 8.32 16.72
  Z"
/>
<path fill="#c4c4c4" d="
  M 66.12 14.91
  Q 66.63 16.12 66.44 16.17
  Q 57.73 25.21 58.12 37.74
  C 58.21 40.82 60.30 43.25 58.58 46.70
  C 57.66 48.54 55.08 51.96 53.24 54.03
  A 1.80 1.80 0.0 0 0 53.73 56.80
  L 57.85 59.05
  A 0.90 0.88 -73.2 0 1 58.31 59.93
  L 57.97 63.28
  Q 57.93 63.71 58.18 64.06
  Q 58.63 64.71 59.32 65.15
  A 0.49 0.48 34.8 0 1 59.45 65.83
  L 58.80 66.73
  Q 58.44 67.22 58.81 67.71
  Q 60.65 70.18 60.94 73.17
  Q 60.22 73.50 59.59 72.75
  C 59.12 70.55 57.01 68.21 57.44 65.98
  Q 57.53 65.49 57.20 65.12
  C 55.68 63.44 56.99 62.29 57.02 60.46
  Q 57.03 59.89 56.50 59.68
  C 53.54 58.49 49.50 56.20 52.41 52.92
  Q 55.95 48.90 57.95 44.84
  A 1.33 1.32 -40.5 0 0 58.03 43.85
  C 54.88 33.93 58.10 21.81 66.12 14.91
  Z"
/>
<path fill="#e3e4e7" d="
  M 76.85 17.49
  A 0.66 0.66 0.0 0 1 77.52 18.15
  L 77.52 18.26
  A 3.23 2.11 89.4 0 1 75.44 21.51
  L 75.38 21.51
  A 3.23 2.11 89.4 0 1 73.24 18.30
  L 73.24 18.19
  A 0.66 0.66 0.0 0 1 73.89 17.53
  L 76.85 17.49
  Z"
/>
<path fill="#c1e4e0" d="
  M 25.35 25.52
  C 24.67 20.35 30.69 17.96 34.49 21.53
  Q 34.87 21.90 35.27 21.55
  C 40.82 16.70 47.27 22.81 42.90 28.67
  Q 39.19 33.65 35.19 38.38
  Q 34.85 38.79 34.51 38.37
  C 32.30 35.65 25.76 28.68 25.35 25.52
  Z"
/>
<path fill="#91d0cc" d="
  M 13.48 69.46
  C 22.35 60.25 11.69 49.81 7.56 41.98
  Q 7.38 41.64 7.73 41.49
  Q 7.85 41.44 8.02 41.42
  Q 14.32 39.83 18.52 44.74
  Q 18.89 45.18 19.29 44.76
  C 28.75 34.89 42.12 46.64 33.69 57.44
  Q 26.63 66.48 19.35 75.55
  A 0.58 0.57 44.7 0 1 18.46 75.55
  L 13.48 69.46
  Z"
/>
<path fill="#91d0cc" d="
  M 6.01 42.23
  C 9.94 49.30 20.56 60.02 12.86 68.34
  Q 9.05 63.74 5.50 59.13
  C 0.71 52.90 -0.83 47.49 6.01 42.23
  Z"
/>
<path fill="#c1e4e0" d="
  M 49.23 71.26
  L 43.01 82.57
  C 35.97 77.45 41.23 68.46 49.23 71.26
  Z"
/>
<path fill="#c1e4e0" d="
  M 50.96 72.76
  C 54.51 77.71 51.22 84.00 45.02 83.21
  Q 44.78 82.94 44.73 82.58
  Q 44.69 82.29 44.89 81.94
  Q 47.31 77.58 49.75 73.22
  Q 50.09 72.59 50.96 72.76
  Z"
/>
<path fill="#e3e4e7" d="
  M 7.87 86.80
  A 0.14 0.14 0.0 0 1 7.65 86.80
  L 1.50 79.04
  A 2.71 2.71 0.0 0 1 0.98 76.77
  Q 1.82 72.90 5.89 73.60
  A 0.93 0.93 0.0 0 1 6.35 73.81
  L 7.39 74.71
  A 0.62 0.62 0.0 0 0 8.28 74.64
  C 10.46 72.01 14.61 74.10 14.44 77.10
  C 14.30 79.77 9.87 84.25 7.87 86.80
  Z"
/>
<path fill="#c4c4c4" d="
  M 61.33 74.62
  C 59.07 87.40 74.52 76.21 78.63 79.41
  A 0.63 0.63 0.0 0 1 77.97 80.48
  C 76.51 79.79 75.09 79.80 73.51 80.50
  C 67.94 82.96 58.82 84.34 59.86 74.72
  Q 59.80 74.31 61.33 74.62
  Z"
/>
</svg>
