<?xml version="1.0" encoding="UTF-8" standalone="no"?>
<!DOCTYPE svg PUBLIC "-//W3C//DTD SVG 1.1//EN" "http://www.w3.org/Graphics/SVG/1.1/DTD/svg11.dtd">
<svg xmlns="http://www.w3.org/2000/svg" version="1.1" viewBox="0.00 0.00 80.00 90.00">
<g stroke-width="2.00" fill="none" stroke-linecap="butt">
<path stroke="#6b8181" stroke-opacity="0.996" vector-effect="non-scaling-stroke" d="
  M 68.84 15.72
  L 70.10 18.97"
/>
<path stroke="#5b7a79" stroke-opacity="0.996" vector-effect="non-scaling-stroke" d="
  M 71.91 25.87
  Q 72.37 29.07 72.00 31.79
  Q 71.97 32.07 72.07 32.17
  Q 72.21 32.30 72.52 32.30"
/>
<path stroke="#757475" stroke-opacity="0.996" vector-effect="non-scaling-stroke" d="
  M 63.81 72.98
  Q 62.83 72.45 62.45 72.58"
/>
<path stroke="#131213" stroke-opacity="0.996" vector-effect="non-scaling-stroke" d="
  M 62.45 72.58
  L 62.47 71.33"
/>
<path stroke="#757475" stroke-opacity="0.996" vector-effect="non-scaling-stroke" d="
  M 62.47 71.33
  Q 63.10 71.18 62.96 71.07"
/>
<path stroke="#5b7a79" stroke-opacity="0.996" vector-effect="non-scaling-stroke" d="
  M 70.69 32.09
  Q 71.98 29.29 70.40 26.48"
/>
<path stroke="#848487" stroke-opacity="0.996" vector-effect="non-scaling-stroke" d="
  M 17.27 9.21
  L 16.91 9.07
  Q 16.50 8.91 16.25 9.28
  L 11.47 16.33"
/>
<path stroke="#131213" stroke-opacity="0.996" vector-effect="non-scaling-stroke" d="
  M 38.56 86.73
  Q 38.64 87.72 38.03 88.01"
/>
<path stroke="#848487" stroke-opacity="0.996" vector-effect="non-scaling-stroke" d="
  M 10.39 15.42
  L 15.98 7.89"
/>
<path stroke="#badada" vector-effect="non-scaling-stroke" d="
  M 42.10 16.64
  L 39.87 19.97"
/>
<path stroke="#496967" vector-effect="non-scaling-stroke" d="
  M 39.87 19.97
  L 39.18 20.01
  A 0.48 0.47 -85.0 0 0 38.75 20.38
  Q 38.71 20.56 38.66 20.74"
/>
<path stroke="#badada" vector-effect="non-scaling-stroke" d="
  M 38.66 20.74
  Q 38.36 18.53 36.77 16.80"
/>
<path stroke="#badada" vector-effect="non-scaling-stroke" d="
  M 49.68 19.67
  Q 47.93 21.29 45.55 21.58"
/>
<path stroke="#496967" vector-effect="non-scaling-stroke" d="
  M 45.55 21.58
  L 44.68 20.65"
/>
<path stroke="#badada" vector-effect="non-scaling-stroke" d="
  M 44.68 20.65
  L 45.42 17.44"
/>
<path stroke="#727374" vector-effect="non-scaling-stroke" d="
  M 38.66 20.74
  L 38.65 29.52
  Q 38.65 30.40 38.02 29.78
  L 34.18 26.06"
/>
<path stroke="#badada" vector-effect="non-scaling-stroke" d="
  M 34.18 26.06
  Q 34.06 22.21 31.07 19.30"
/>
<path stroke="#727374" vector-effect="non-scaling-stroke" d="
  M 44.68 20.65
  L 40.66 24.65
  Q 40.11 25.21 40.07 24.42
  L 39.87 19.97"
/>
<path stroke="#496967" vector-effect="non-scaling-stroke" d="
  M 34.18 26.06
  L 33.58 27.07"
/>
<path stroke="#badada" vector-effect="non-scaling-stroke" d="
  M 33.58 27.07
  Q 29.57 26.49 26.62 23.93"
/>
<path stroke="#badada" vector-effect="non-scaling-stroke" d="
  M 53.81 24.34
  Q 48.80 26.40 48.61 32.15"
/>
<path stroke="#727374" vector-effect="non-scaling-stroke" d="
  M 48.61 32.15
  L 40.60 40.16
  A 0.35 0.35 0.0 0 1 40.00 39.91
  L 40.00 27.81
  Q 40.00 27.34 40.32 27.00
  L 45.55 21.58"
/>
<path stroke="#496967" vector-effect="non-scaling-stroke" d="
  M 48.61 32.15
  L 49.44 32.85"
/>
<path stroke="#727374" vector-effect="non-scaling-stroke" d="
  M 49.44 32.85
  L 45.28 37.11
  Q 44.74 37.65 45.50 37.69
  L 49.07 37.86"
/>
<path stroke="#496967" vector-effect="non-scaling-stroke" d="
  M 49.07 37.86
  Q 49.64 38.05 49.52 38.92"
/>
<path stroke="#727374" vector-effect="non-scaling-stroke" d="
  M 49.52 38.92
  L 43.82 39.29
  Q 43.30 39.32 42.94 39.69
  L 40.42 42.20
  Q 40.05 42.57 40.06 43.10
  L 40.13 49.24"
/>
<path stroke="#496967" vector-effect="non-scaling-stroke" d="
  M 47.23 49.74
  L 48.20 49.72"
/>
<path stroke="#496967" vector-effect="non-scaling-stroke" d="
  M 57.19 44.70
  Q 57.27 45.50 58.48 45.53"
/>
<path stroke="#496967" vector-effect="non-scaling-stroke" d="
  M 57.53 50.64
  Q 57.34 51.21 57.77 51.68"
/>
<path stroke="#636363" vector-effect="non-scaling-stroke" d="
  M 46.84 57.60
  L 45.78 58.50"
/>
<path stroke="#636363" vector-effect="non-scaling-stroke" d="
  M 43.38 81.87
  Q 47.48 76.68 51.08 71.78
  C 54.20 67.53 58.66 70.11 62.47 71.33"
/>
<path stroke="#636363" vector-effect="non-scaling-stroke" d="
  M 62.45 72.58
  C 59.94 71.86 54.80 69.14 52.74 71.49
  Q 49.96 74.63 44.34 83.04"
/>
<path stroke="#496967" vector-effect="non-scaling-stroke" d="
  M 21.19 57.93
  Q 21.42 57.26 20.98 56.81"
/>
<path stroke="#496967" vector-effect="non-scaling-stroke" d="
  M 20.52 51.72
  Q 21.62 51.89 21.47 50.92"
/>
<path stroke="#636363" vector-effect="non-scaling-stroke" d="
  M 24.86 54.17
  Q 24.95 54.33 25.08 54.59
  Q 25.21 54.85 25.39 54.93
  Q 25.74 55.09 26.21 54.99"
/>
<path stroke="#636363" vector-effect="non-scaling-stroke" d="
  M 27.95 56.74
  Q 28.38 57.20 28.18 57.33"
/>
<path stroke="#496967" vector-effect="non-scaling-stroke" d="
  M 31.43 56.44
  Q 31.57 56.57 32.17 56.05"
/>
<path stroke="#727374" vector-effect="non-scaling-stroke" d="
  M 35.52 48.62
  Q 33.49 44.67 29.95 45.74"
/>
<path stroke="#496967" vector-effect="non-scaling-stroke" d="
  M 28.97 45.37
  Q 28.87 44.66 29.23 44.15"
/>
<path stroke="#727374" vector-effect="non-scaling-stroke" d="
  M 29.23 44.15
  Q 30.32 44.42 30.72 44.15
  Q 31.18 43.84 30.80 43.43
  L 26.87 39.14"
/>
<path stroke="#496967" vector-effect="non-scaling-stroke" d="
  M 26.87 39.14
  L 27.65 38.63"
/>
<path stroke="#727374" vector-effect="non-scaling-stroke" d="
  M 27.65 38.63
  L 30.35 40.95
  Q 30.79 41.33 30.92 40.77
  L 31.36 38.92"
/>
<path stroke="#496967" vector-effect="non-scaling-stroke" d="
  M 31.36 38.92
  Q 31.80 39.18 32.21 38.87"
/>
<path stroke="#727374" vector-effect="non-scaling-stroke" d="
  M 32.21 38.87
  Q 32.70 40.59 32.46 42.40
  A 1.27 1.24 27.0 0 0 32.81 43.44
  L 38.16 48.78
  Q 38.75 49.38 38.75 48.54
  L 38.75 33.21
  A 1.07 1.03 -67.2 0 0 38.47 32.49
  L 33.58 27.07"
/>
<path stroke="#badada" vector-effect="non-scaling-stroke" d="
  M 32.21 38.87
  Q 34.32 36.74 32.54 34.13
  A 0.82 0.82 0.0 0 0 31.25 34.06
  Q 29.27 36.34 31.36 38.92"
/>
<path stroke="#badada" vector-effect="non-scaling-stroke" d="
  M 27.65 38.63
  Q 27.63 33.64 23.92 31.43"
/>
<path stroke="#badada" vector-effect="non-scaling-stroke" d="
  M 55.90 30.11
  Q 52.97 32.85 49.44 32.85"
/>
<path stroke="#badada" vector-effect="non-scaling-stroke" d="
  M 55.40 37.82
  Q 52.40 36.14 49.07 37.86"
/>
<path stroke="#badada" vector-effect="non-scaling-stroke" d="
  M 26.87 39.14
  Q 26.16 38.81 25.19 39.12"
/>
<path stroke="#badada" vector-effect="non-scaling-stroke" d="
  M 54.56 40.00
  Q 51.66 40.34 49.52 38.92"
/>
<path stroke="#badada" vector-effect="non-scaling-stroke" d="
  M 29.23 44.15
  Q 28.16 43.86 27.61 43.22"
/>
<path stroke="#badada" vector-effect="non-scaling-stroke" d="
  M 49.47 46.28
  Q 48.49 45.96 48.64 45.09
  A 0.93 0.93 0.0 0 0 46.95 44.40
  Q 46.08 45.67 46.35 48.04"
/>
</g>
<path fill="#252426" fill-opacity="0.992" d="
  M 36.11 0.00
  L 42.97 0.00
  Q 60.70 1.32 68.84 15.72
  L 70.10 18.97
  L 71.91 25.87
  Q 72.37 29.07 72.00 31.79
  Q 71.97 32.07 72.07 32.17
  Q 72.21 32.30 72.52 32.30
  L 72.06 32.62
  Q 71.64 32.91 71.58 33.42
  L 70.98 38.02
  A 1.12 1.06 35.3 0 0 71.11 38.67
  C 73.74 43.30 81.74 47.59 72.36 51.47
  A 0.69 0.69 0.0 0 0 71.95 52.24
  L 72.62 55.50
  A 0.67 0.66 -39.7 0 1 72.58 55.89
  Q 70.44 61.02 70.45 66.46
  C 70.46 70.68 68.90 73.16 64.41 72.51
  Q 63.88 72.44 63.81 72.98
  Q 62.83 72.45 62.45 72.58
  L 62.47 71.33
  Q 63.10 71.18 62.96 71.07
  C 67.54 72.31 69.39 70.45 69.15 65.99
  Q 68.94 62.21 70.45 58.73
  Q 70.68 58.22 70.15 58.05
  L 69.78 57.93
  A 0.39 0.39 0.0 0 1 69.66 57.26
  Q 72.34 55.15 70.40 52.29
  A 0.84 0.84 0.0 0 1 70.67 51.09
  L 74.77 48.74
  A 1.72 1.72 0.0 0 0 75.20 46.10
  C 73.06 43.71 68.98 39.66 69.76 36.51
  Q 70.32 34.21 70.69 32.09
  Q 71.98 29.29 70.40 26.48
  Q 70.64 25.80 70.23 24.02
  C 64.59 -0.52 36.19 -4.34 17.71 7.81
  A 0.97 0.96 -16.1 0 0 17.27 8.60
  L 17.27 9.21
  L 16.91 9.07
  Q 16.50 8.91 16.25 9.28
  L 11.47 16.33
  Q 8.35 22.43 8.24 29.77
  C 8.17 34.01 10.84 35.25 7.95 39.67
  C 5.85 42.87 -0.29 48.93 7.22 50.47
  A 1.85 1.84 -69.3 0 1 8.45 53.20
  Q 7.07 55.58 9.22 56.87
  A 0.59 0.59 0.0 0 1 9.34 57.79
  L 8.91 58.21
  Q 8.46 58.67 8.79 59.22
  Q 11.34 63.47 11.24 68.41
  C 11.04 78.62 25.00 66.92 28.43 71.80
  Q 33.62 79.19 38.56 86.73
  Q 38.64 87.72 38.03 88.01
  Q 32.71 80.42 27.54 72.72
  C 25.02 68.97 16.46 77.73 10.57 71.79
  A 1.31 1.30 19.9 0 1 10.21 71.03
  L 9.31 62.78
  A 0.55 0.52 21.6 0 0 9.17 62.48
  Q 7.39 60.53 7.45 57.98
  Q 7.47 57.42 7.17 56.94
  Q 6.02 55.05 7.10 53.05
  A 1.07 1.06 -72.8 0 0 6.28 51.48
  Q 2.79 51.11 1.91 47.77
  A 1.48 1.48 0.0 0 1 2.09 46.59
  L 7.83 37.31
  A 1.39 1.38 59.4 0 0 8.04 36.48
  C 7.93 34.22 6.90 32.10 6.93 30.05
  Q 7.03 22.32 10.39 15.42
  L 15.98 7.89
  Q 24.30 0.72 36.11 0.00
  Z"
/>
<circle fill="#e3e4e7" cx="72.24" cy="3.77" r="3.11"/>
<ellipse fill="#c4c4c4" cx="0.00" cy="0.00" transform="translate(40.60,6.40) rotate(136.1)" rx="0.69" ry="0.62"/>
<ellipse fill="#c4c4c4" cx="0.00" cy="0.00" transform="translate(36.85,6.65) rotate(136.1)" rx="0.69" ry="0.62"/>
<path fill="#c4c4c4" d="
  M 44.68 7.41
  A 0.41 0.41 0.0 0 1 44.07 7.45
  L 43.67 7.05
  A 0.63 0.63 0.0 0 1 44.45 6.06
  Q 45.30 6.59 44.68 7.41
  Z"
/>
<path fill="#c4c4c4" d="
  M 32.83 7.91
  A 0.48 0.48 0.0 0 1 32.49 7.16
  Q 33.03 6.40 33.87 6.95
  A 0.56 0.56 0.0 0 1 33.50 7.98
  L 32.83 7.91
  Z"
/>
<path fill="#e3e4e7" d="
  M 15.98 7.89
  L 10.39 15.42
  C 5.64 11.71 9.95 4.64 15.98 7.89
  Z"
/>
<path fill="#c4c4c4" d="
  M 47.35 8.02
  A 0.59 0.59 0.0 0 1 47.66 6.98
  Q 48.25 6.93 48.56 7.51
  Q 48.88 8.12 48.21 8.25
  Q 47.75 8.35 47.35 8.02
  Z"
/>
<path fill="#c4c4c4" d="
  M 29.19 8.81
  Q 31.32 7.21 29.58 9.16
  Q 29.38 9.38 29.28 9.10
  L 29.19 8.82
  Q 29.19 8.81 29.19 8.81
  Z"
/>
<path fill="#91d0cc" d="
  M 42.10 16.64
  L 39.87 19.97
  L 39.18 20.01
  A 0.48 0.47 -85.0 0 0 38.75 20.38
  Q 38.71 20.56 38.66 20.74
  Q 38.36 18.53 36.77 16.80
  Q 35.24 11.62 39.03 8.50
  Q 39.45 8.16 39.84 8.53
  Q 43.36 11.92 42.10 16.64
  Z"
/>
<path fill="#c4c4c4" d="
  M 51.06 8.36
  A 0.38 0.37 24.6 0 1 51.42 8.23
  Q 51.73 8.28 51.94 8.55
  A 0.97 0.68 86.9 0 1 51.05 9.97
  Q 50.42 9.18 51.06 8.36
  Z"
/>
<path fill="#e3e4e7" d="
  M 17.27 9.21
  Q 18.96 16.76 11.47 16.33
  L 16.25 9.28
  Q 16.50 8.91 16.91 9.07
  L 17.27 9.21
  Z"
/>
<path fill="#c4c4c4" d="
  M 25.82 10.02
  Q 26.60 9.31 27.10 10.35
  Q 27.49 11.19 26.59 11.01
  L 26.07 10.90
  A 0.51 0.51 0.0 0 1 25.82 10.02
  Z"
/>
<path fill="#c4c4c4" d="
  M 54.00 11.28
  L 54.00 10.71
  A 0.51 0.51 0.0 0 1 54.64 10.22
  Q 55.93 10.59 54.76 11.63
  A 0.46 0.46 0.0 0 1 54.00 11.28
  Z"
/>
<path fill="#c4c4c4" d="
  M 23.04 12.01
  Q 24.23 11.37 24.26 12.90
  A 0.51 0.51 0.0 0 1 23.39 13.27
  L 22.92 12.80
  A 0.50 0.50 0.0 0 1 23.04 12.01
  Z"
/>
<path fill="#c4c4c4" d="
  M 58.25 13.17
  Q 58.15 14.13 57.14 14.00
  A 0.56 0.56 0.0 0 1 56.82 13.05
  L 57.20 12.67
  A 0.62 0.62 0.0 0 1 58.25 13.17
  Z"
/>
<path fill="#b1dedb" d="
  M 70.10 18.97
  L 68.84 15.72
  C 73.88 6.63 79.48 22.92 70.10 18.97
  Z"
/>
<path fill="#c4c4c4" d="
  M 20.00 15.33
  Q 20.10 14.37 21.11 14.50
  A 0.56 0.56 0.0 0 1 21.43 15.45
  L 21.05 15.83
  A 0.62 0.62 0.0 0 1 20.00 15.33
  Z"
/>
<path fill="#c4c4c4" d="
  M 60.15 16.69
  L 59.73 16.49
  Q 58.99 16.13 59.58 15.55
  L 59.84 15.29
  A 0.51 0.51 0.0 0 1 60.71 15.61
  L 60.76 16.28
  A 0.43 0.42 10.6 0 1 60.15 16.69
  Z"
/>
<path fill="#91d0cc" d="
  M 49.68 19.67
  Q 47.93 21.29 45.55 21.58
  L 44.68 20.65
  L 45.42 17.44
  Q 47.47 15.80 49.94 15.71
  Q 50.51 15.69 50.52 16.27
  Q 50.53 18.01 49.68 19.67
  Z"
/>
<path fill="#e3e4e7" d="
  M 36.77 16.80
  Q 38.36 18.53 38.66 20.74
  L 38.65 29.52
  Q 38.65 30.40 38.02 29.78
  L 34.18 26.06
  Q 34.06 22.21 31.07 19.30
  L 36.77 16.80
  Z"
/>
<path fill="#e3e4e7" d="
  M 42.10 16.64
  L 45.42 17.44
  L 44.68 20.65
  L 40.66 24.65
  Q 40.11 25.21 40.07 24.42
  L 39.87 19.97
  L 42.10 16.64
  Z"
/>
<path fill="#c4c4c4" d="
  M 18.17 17.48
  L 18.98 17.54
  A 0.34 0.34 0.0 0 1 19.24 18.06
  L 18.76 18.86
  A 0.29 0.29 0.0 0 1 18.28 18.89
  L 17.77 18.24
  A 0.47 0.47 0.0 0 1 18.17 17.48
  Z"
/>
<path fill="#91d0cc" d="
  M 31.07 19.30
  Q 34.06 22.21 34.18 26.06
  L 33.58 27.07
  Q 29.57 26.49 26.62 23.93
  L 25.40 19.11
  A 0.85 0.84 0.4 0 1 26.44 18.09
  L 31.07 19.30
  Z"
/>
<path fill="#c4c4c4" d="
  M 61.70 18.58
  Q 61.73 18.39 61.90 18.29
  Q 61.99 18.23 62.11 18.25
  Q 62.93 18.38 62.99 19.13
  A 0.58 0.58 0.0 0 1 62.35 19.76
  Q 61.88 19.71 61.56 19.19
  Q 61.41 18.96 61.61 18.76
  Q 61.68 18.68 61.70 18.58
  Z"
/>
<path fill="#e3e4e7" d="
  M 49.68 19.67
  L 53.81 24.34
  Q 48.80 26.40 48.61 32.15
  L 40.60 40.16
  A 0.35 0.35 0.0 0 1 40.00 39.91
  L 40.00 27.81
  Q 40.00 27.34 40.32 27.00
  L 45.55 21.58
  Q 47.93 21.29 49.68 19.67
  Z"
/>
<path fill="#010101" d="
  M 39.87 19.97
  L 40.07 24.42
  Q 40.11 25.21 40.66 24.65
  L 44.68 20.65
  L 45.55 21.58
  L 40.32 27.00
  Q 40.00 27.34 40.00 27.81
  L 40.00 39.91
  A 0.35 0.35 0.0 0 0 40.60 40.16
  L 48.61 32.15
  L 49.44 32.85
  L 45.28 37.11
  Q 44.74 37.65 45.50 37.69
  L 49.07 37.86
  Q 49.64 38.05 49.52 38.92
  L 43.82 39.29
  Q 43.30 39.32 42.94 39.69
  L 40.42 42.20
  Q 40.05 42.57 40.06 43.10
  L 40.13 49.24
  L 40.08 61.36
  Q 40.08 62.23 40.73 61.65
  Q 41.81 60.66 42.51 59.36
  Q 42.73 58.95 43.11 58.68
  Q 45.15 57.25 46.73 55.30
  A 1.44 1.41 -25.3 0 0 47.03 54.49
  L 47.23 49.74
  L 48.20 49.72
  L 48.25 52.93
  A 0.41 0.41 0.0 0 0 48.96 53.21
  L 57.19 44.70
  Q 57.27 45.50 58.48 45.53
  L 53.80 49.97
  A 0.47 0.47 0.0 0 0 54.27 50.76
  Q 55.74 50.27 57.53 50.64
  Q 57.34 51.21 57.77 51.68
  L 52.63 51.83
  Q 52.11 51.85 51.75 52.24
  L 46.84 57.60
  L 45.78 58.50
  L 40.34 63.89
  Q 40.00 64.23 40.00 64.71
  L 40.00 85.78
  A 0.40 0.39 -28.8 0 0 40.73 85.99
  L 43.38 81.87
  Q 47.48 76.68 51.08 71.78
  C 54.20 67.53 58.66 70.11 62.47 71.33
  L 62.45 72.58
  C 59.94 71.86 54.80 69.14 52.74 71.49
  Q 49.96 74.63 44.34 83.04
  L 39.87 89.34
  Q 39.57 89.77 39.14 89.48
  Q 38.42 88.99 38.03 88.01
  Q 38.64 87.72 38.56 86.73
  L 38.79 71.68
  A 3.27 3.24 -67.3 0 0 37.84 69.33
  L 27.11 58.44
  Q 26.72 58.05 26.17 58.04
  L 21.19 57.93
  Q 21.42 57.26 20.98 56.81
  Q 22.78 56.58 24.31 57.01
  A 0.55 0.55 0.0 0 0 24.85 56.10
  L 20.52 51.72
  Q 21.62 51.89 21.47 50.92
  L 24.86 54.17
  Q 24.95 54.33 25.08 54.59
  Q 25.21 54.85 25.39 54.93
  Q 25.74 55.09 26.21 54.99
  Q 26.21 56.14 27.05 56.85
  Q 27.27 57.03 27.50 56.99
  Q 27.74 56.94 27.95 56.74
  Q 28.38 57.20 28.18 57.33
  L 30.23 60.03
  A 0.62 0.62 0.0 0 0 31.31 59.45
  Q 30.80 57.95 31.43 56.44
  Q 31.57 56.57 32.17 56.05
  Q 33.04 57.98 32.43 59.72
  A 2.85 2.84 -57.4 0 0 33.07 62.64
  L 38.13 67.87
  A 0.36 0.36 0.0 0 0 38.75 67.62
  C 38.75 64.29 39.59 53.20 38.06 50.79
  Q 37.11 49.30 35.52 48.62
  Q 33.49 44.67 29.95 45.74
  Q 29.82 46.17 28.97 45.37
  Q 28.87 44.66 29.23 44.15
  Q 30.32 44.42 30.72 44.15
  Q 31.18 43.84 30.80 43.43
  L 26.87 39.14
  L 27.65 38.63
  L 30.35 40.95
  Q 30.79 41.33 30.92 40.77
  L 31.36 38.92
  Q 31.80 39.18 32.21 38.87
  Q 32.70 40.59 32.46 42.40
  A 1.27 1.24 27.0 0 0 32.81 43.44
  L 38.16 48.78
  Q 38.75 49.38 38.75 48.54
  L 38.75 33.21
  A 1.07 1.03 -67.2 0 0 38.47 32.49
  L 33.58 27.07
  L 34.18 26.06
  L 38.02 29.78
  Q 38.65 30.40 38.65 29.52
  L 38.66 20.74
  Q 38.71 20.56 38.75 20.38
  A 0.48 0.47 -85.0 0 1 39.18 20.01
  L 39.87 19.97
  Z"
/>
<ellipse fill="#c4c4c4" cx="0.00" cy="0.00" transform="translate(16.62,21.37) rotate(45.0)" rx="0.74" ry="0.61"/>
<path fill="#c4c4c4" d="
  M 64.63 22.54
  L 64.00 22.96
  A 0.56 0.56 0.0 0 1 63.23 22.18
  Q 63.77 21.38 64.64 21.97
  A 0.34 0.34 0.0 0 1 64.63 22.54
  Z"
/>
<path fill="#e3e4e7" d="
  M 26.62 23.93
  Q 29.57 26.49 33.58 27.07
  L 38.47 32.49
  A 1.07 1.03 -67.2 0 1 38.75 33.21
  L 38.75 48.54
  Q 38.75 49.38 38.16 48.78
  L 32.81 43.44
  A 1.27 1.24 27.0 0 1 32.46 42.40
  Q 32.70 40.59 32.21 38.87
  Q 34.32 36.74 32.54 34.13
  A 0.82 0.82 0.0 0 0 31.25 34.06
  Q 29.27 36.34 31.36 38.92
  L 30.92 40.77
  Q 30.79 41.33 30.35 40.95
  L 27.65 38.63
  Q 27.63 33.64 23.92 31.43
  Q 24.50 27.33 26.62 23.93
  Z"
/>
<path fill="#91d0cc" d="
  M 55.90 30.11
  Q 52.97 32.85 49.44 32.85
  L 48.61 32.15
  Q 48.80 26.40 53.81 24.34
  L 56.56 23.97
  A 0.66 0.66 0.0 0 1 57.28 24.79
  L 55.90 30.11
  Z"
/>
<path fill="#c4c4c4" d="
  M 14.55 24.84
  Q 15.10 24.09 15.66 24.36
  Q 16.16 24.61 15.95 25.24
  A 0.38 0.37 -77.1 0 1 15.56 25.49
  L 14.81 25.41
  A 0.36 0.36 0.0 0 1 14.55 24.84
  Z"
/>
<path fill="#c4c4c4" d="
  M 64.90 26.45
  A 0.62 0.61 -76.7 0 1 64.53 25.84
  Q 64.58 25.22 65.28 25.20
  A 0.71 0.64 38.0 0 1 65.52 26.53
  Q 65.17 26.57 64.90 26.45
  Z"
/>
<path fill="#91d0cc" d="
  M 71.91 25.87
  C 76.25 26.46 76.47 31.77 72.52 32.30
  Q 72.21 32.30 72.07 32.17
  Q 71.97 32.07 72.00 31.79
  Q 72.37 29.07 71.91 25.87
  Z"
/>
<path fill="#91d0cc" d="
  M 70.40 26.48
  Q 71.98 29.29 70.69 32.09
  Q 67.74 29.50 70.40 26.48
  Z"
/>
<ellipse fill="#c4c4c4" cx="0.00" cy="0.00" transform="translate(14.40,28.60) rotate(136.1)" rx="0.69" ry="0.62"/>
<path fill="#c4c4c4" d="
  M 65.75 28.92
  A 0.48 0.47 72.3 0 1 66.50 29.31
  L 66.50 29.72
  A 0.66 0.66 0.0 0 1 65.27 30.06
  Q 64.93 29.50 65.75 28.92
  Z"
/>
<path fill="#e3e4e7" d="
  M 55.90 30.11
  Q 56.61 33.96 55.40 37.82
  Q 52.40 36.14 49.07 37.86
  L 45.50 37.69
  Q 44.74 37.65 45.28 37.11
  L 49.44 32.85
  Q 52.97 32.85 55.90 30.11
  Z"
/>
<path fill="#91d0cc" d="
  M 23.92 31.43
  Q 27.63 33.64 27.65 38.63
  L 26.87 39.14
  Q 26.16 38.81 25.19 39.12
  Q 19.17 37.60 19.06 31.21
  Q 19.05 30.66 19.59 30.56
  Q 21.48 30.23 23.92 31.43
  Z"
/>
<path fill="#c4c4c4" d="
  M 13.62 32.53
  Q 14.27 30.55 14.43 32.80
  Q 14.47 33.29 14.04 33.04
  L 13.74 32.86
  Q 13.54 32.74 13.62 32.53
  Z"
/>
<path fill="#c4c4c4" d="
  M 66.61 33.90
  Q 65.86 34.57 65.37 33.73
  A 0.66 0.66 0.0 0 1 65.93 32.74
  Q 66.83 32.72 66.76 33.59
  Q 66.75 33.78 66.61 33.90
  Z"
/>
<path fill="#91d0cc" d="
  M 32.21 38.87
  Q 31.80 39.18 31.36 38.92
  Q 29.27 36.34 31.25 34.06
  A 0.82 0.82 0.0 0 1 32.54 34.13
  Q 34.32 36.74 32.21 38.87
  Z"
/>
<path fill="#c4c4c4" d="
  M 14.93 35.74
  Q 15.06 36.86 13.92 36.76
  A 0.56 0.56 0.0 0 1 13.57 35.81
  L 13.97 35.41
  A 0.56 0.56 0.0 0 1 14.93 35.74
  Z"
/>
<path fill="#c4c4c4" d="
  M 66.50 37.17
  Q 66.40 38.13 65.39 38.00
  A 0.56 0.56 0.0 0 1 65.07 37.05
  L 65.45 36.67
  A 0.62 0.62 0.0 0 1 66.50 37.17
  Z"
/>
<path fill="#91d0cc" d="
  M 55.40 37.82
  Q 55.47 38.82 54.56 40.00
  Q 51.66 40.34 49.52 38.92
  Q 49.64 38.05 49.07 37.86
  Q 52.40 36.14 55.40 37.82
  Z"
/>
<path fill="#e3e4e7" d="
  M 26.87 39.14
  L 30.80 43.43
  Q 31.18 43.84 30.72 44.15
  Q 30.32 44.42 29.23 44.15
  Q 28.16 43.86 27.61 43.22
  L 25.19 39.12
  Q 26.16 38.81 26.87 39.14
  Z"
/>
<path fill="#e3e4e7" d="
  M 49.52 38.92
  Q 51.66 40.34 54.56 40.00
  Q 52.70 43.72 49.47 46.28
  Q 48.49 45.96 48.64 45.09
  A 0.93 0.93 0.0 0 0 46.95 44.40
  Q 46.08 45.67 46.35 48.04
  L 40.13 49.24
  L 40.06 43.10
  Q 40.05 42.57 40.42 42.20
  L 42.94 39.69
  Q 43.30 39.32 43.82 39.29
  L 49.52 38.92
  Z"
/>
<path fill="#91d0cc" d="
  M 58.48 45.53
  Q 57.27 45.50 57.19 44.70
  Q 58.03 39.08 62.94 39.17
  Q 63.51 39.18 63.52 39.75
  Q 63.55 44.76 58.48 45.53
  Z"
/>
<path fill="#c4c4c4" d="
  M 15.43 40.21
  L 14.53 40.26
  A 0.36 0.36 0.0 0 1 14.19 39.74
  Q 14.67 38.73 15.66 39.52
  A 0.39 0.39 0.0 0 1 15.43 40.21
  Z"
/>
<path fill="#c4c4c4" d="
  M 64.47 40.47
  Q 64.57 40.39 64.68 40.31
  Q 64.75 40.25 64.81 40.32
  Q 66.44 42.29 64.48 40.89
  Q 64.19 40.69 64.47 40.47
  Z"
/>
<path fill="#91d0cc" d="
  M 21.47 50.92
  Q 21.62 51.89 20.52 51.72
  Q 13.04 51.30 12.91 43.68
  Q 12.90 43.10 13.48 43.09
  L 15.98 43.06
  Q 16.41 43.06 16.78 43.26
  Q 21.24 45.72 21.47 50.92
  Z"
/>
<path fill="#91d0cc" d="
  M 27.61 43.22
  Q 28.16 43.86 29.23 44.15
  Q 28.87 44.66 28.97 45.37
  Q 26.33 47.22 23.85 45.42
  A 0.80 0.79 -47.4 0 1 23.80 44.17
  Q 25.19 42.99 27.61 43.22
  Z"
/>
<path fill="#c4c4c4" d="
  M 63.74 44.96
  Q 63.27 45.30 63.02 44.78
  L 62.79 44.30
  A 0.46 0.46 0.0 0 1 63.39 43.68
  Q 64.74 44.26 63.74 44.96
  Z"
/>
<path fill="#91d0cc" d="
  M 49.47 46.28
  L 48.20 49.72
  L 47.23 49.74
  Q 47.10 48.53 46.35 48.04
  Q 46.08 45.67 46.95 44.40
  A 0.93 0.93 0.0 0 1 48.64 45.09
  Q 48.49 45.96 49.47 46.28
  Z"
/>
<path fill="#e3e4e7" d="
  M 35.52 48.62
  L 29.95 45.74
  Q 33.49 44.67 35.52 48.62
  Z"
/>
<ellipse fill="#c4c4c4" cx="0.00" cy="0.00" transform="translate(61.65,47.60) rotate(136.1)" rx="0.69" ry="0.62"/>
<path fill="#91d0cc" d="
  M 57.77 51.68
  Q 57.34 51.21 57.53 50.64
  Q 60.63 48.28 62.98 50.60
  Q 63.41 51.01 63.02 51.46
  Q 60.97 53.89 57.77 51.68
  Z"
/>
<path fill="#91d0cc" d="
  M 32.17 56.05
  Q 31.57 56.57 31.43 56.44
  Q 29.04 53.09 31.37 50.57
  Q 31.74 50.17 32.13 50.57
  Q 34.50 53.05 32.17 56.05
  Z"
/>
<path fill="#c4c4c4" d="
  M 56.14 52.76
  A 0.43 0.42 20.1 0 1 56.80 52.46
  Q 57.64 53.02 57.03 53.89
  A 0.54 0.53 -24.9 0 1 56.06 53.54
  L 56.14 52.76
  Z"
/>
<path fill="#c4c4c4" d="
  M 24.86 54.17
  Q 25.65 53.76 26.07 54.18
  Q 26.39 54.51 26.21 54.99
  Q 25.74 55.09 25.39 54.93
  Q 25.21 54.85 25.08 54.59
  Q 24.95 54.33 24.86 54.17
  Z"
/>
<path fill="#c4c4c4" d="
  M 53.05 55.88
  A 0.49 0.49 0.0 0 1 53.08 55.08
  L 53.51 54.79
  A 0.44 0.44 0.0 0 1 54.16 54.99
  Q 54.47 55.76 53.92 56.16
  Q 53.66 56.36 53.05 55.88
  Z"
/>
<path fill="#91d0cc" d="
  M 20.98 56.81
  Q 21.42 57.26 21.19 57.93
  Q 17.75 60.15 15.56 57.69
  Q 15.20 57.29 15.60 56.93
  Q 18.08 54.71 20.98 56.81
  Z"
/>
<path fill="#c4c4c4" d="
  M 28.18 57.33
  Q 28.38 57.20 27.95 56.74
  Q 27.97 56.32 28.34 56.12
  Q 28.74 55.91 29.16 56.05
  A 0.44 0.44 0.0 0 1 29.37 56.75
  Q 29.09 57.08 28.18 57.33
  Z"
/>
<path fill="#c4c4c4" d="
  M 50.55 57.80
  Q 48.90 55.60 50.80 57.32
  Q 51.00 57.50 50.78 57.66
  Q 50.68 57.73 50.58 57.80
  Q 50.56 57.81 50.55 57.80
  Z"
/>
<path fill="#c4c4c4" d="
  M 46.84 57.60
  Q 47.64 58.02 47.47 58.49
  Q 47.06 59.59 45.78 58.50
  L 46.84 57.60
  Z"
/>
<path fill="#c4c4c4" d="
  M 35.45 58.39
  A 0.68 0.52 -17.6 0 1 36.59 58.80
  L 36.06 59.60
  A 0.39 0.39 0.0 0 1 35.40 59.59
  Q 35.03 58.96 35.45 58.39
  Z"
/>
<path fill="#c4c4c4" d="
  M 62.96 71.07
  Q 63.10 71.18 62.47 71.33
  C 58.66 70.11 54.20 67.53 51.08 71.78
  Q 47.48 76.68 43.38 81.87
  Q 40.07 71.91 46.81 67.29
  C 52.62 63.31 59.39 65.05 62.96 71.07
  Z"
/>
<path fill="#c4c4c4" d="
  M 62.45 72.58
  Q 62.83 72.45 63.81 72.98
  C 65.79 85.49 52.66 92.92 44.34 83.04
  Q 49.96 74.63 52.74 71.49
  C 54.80 69.14 59.94 71.86 62.45 72.58
  Z"
/>
<circle fill="#b1dedb" cx="5.26" cy="79.46" r="3.11"/>
</svg>
