<?xml version="1.0" encoding="UTF-8" standalone="no"?>
<!DOCTYPE svg PUBLIC "-//W3C//DTD SVG 1.1//EN" "http://www.w3.org/Graphics/SVG/1.1/DTD/svg11.dtd">
<svg xmlns="http://www.w3.org/2000/svg" version="1.1" viewBox="0.00 0.00 80.00 90.00">
<g stroke-width="2.00" fill="none" stroke-linecap="butt">
<path stroke="#aadcd7" vector-effect="non-scaling-stroke" d="
  M 44.29 24.08
  Q 44.12 26.76 42.44 29.01
  A 0.82 0.82 0.0 0 0 43.34 30.29
  L 48.82 28.59"
/>
<path stroke="#aadcd7" vector-effect="non-scaling-stroke" d="
  M 49.18 36.28
  L 45.44 35.51
  A 1.28 1.20 -14.5 0 1 44.80 35.16
  Q 43.96 34.31 42.76 34.50
  Q 42.26 34.58 42.47 35.04
  Q 44.33 39.12 44.05 43.77"
/>
<path stroke="#aadcd7" vector-effect="non-scaling-stroke" d="
  M 36.43 40.91
  L 38.01 35.10
  Q 38.19 34.41 37.51 34.62
  L 31.73 36.33"
/>
<path stroke="#aadcd7" vector-effect="non-scaling-stroke" d="
  M 31.97 28.69
  L 37.74 30.33
  Q 38.32 30.50 38.15 29.92
  L 36.42 23.91"
/>
<path stroke="#848385" vector-effect="non-scaling-stroke" d="
  M 69.51 17.24
  Q 73.14 26.56 70.62 34.98"
/>
<path stroke="#848385" vector-effect="non-scaling-stroke" d="
  M 68.50 72.06
  C 63.84 75.85 58.80 74.80 53.91 72.27
  A 2.60 2.60 0.0 0 0 50.41 73.36
  L 45.06 83.40"
/>
<path stroke="#848385" vector-effect="non-scaling-stroke" d="
  M 44.26 81.72
  Q 46.65 77.80 48.58 74.01
  C 51.44 68.39 56.61 72.38 60.54 73.01
  Q 67.12 74.05 67.14 69.62"
/>
<path stroke="#848385" vector-effect="non-scaling-stroke" d="
  M 68.92 34.78
  C 71.95 30.37 70.01 22.59 68.65 18.39
  Q 68.57 18.14 68.40 18.05
  Q 68.22 17.96 67.99 17.95"
/>
<path stroke="#767475" stroke-opacity="0.996" vector-effect="non-scaling-stroke" d="
  M 19.86 5.78
  Q 18.97 5.56 18.56 6.39"
/>
<path stroke="#748583" stroke-opacity="0.996" vector-effect="non-scaling-stroke" d="
  M 15.32 8.60
  Q 11.40 11.62 9.20 16.11"
/>
<path stroke="#767475" stroke-opacity="0.996" vector-effect="non-scaling-stroke" d="
  M 7.64 19.75
  Q 7.04 19.77 6.98 21.01"
/>
<path stroke="#767475" stroke-opacity="0.996" vector-effect="non-scaling-stroke" d="
  M 14.39 68.78
  L 13.73 67.66"
/>
<path stroke="#767475" stroke-opacity="0.996" vector-effect="non-scaling-stroke" d="
  M 5.60 20.31
  Q 6.16 20.32 6.00 19.03"
/>
<path stroke="#748583" stroke-opacity="0.996" vector-effect="non-scaling-stroke" d="
  M 7.95 15.15
  L 14.18 7.58"
/>
<path stroke="#767475" stroke-opacity="0.996" vector-effect="non-scaling-stroke" d="
  M 17.65 5.23
  Q 17.78 5.29 17.90 5.27
  Q 18.26 5.24 18.36 4.89
  Q 18.60 3.99 18.74 4.52"
/>
</g>
<path fill="#242123" fill-opacity="0.996" d="
  M 36.09 0.00
  L 42.89 0.00
  Q 62.71 1.28 69.51 17.24
  Q 73.14 26.56 70.62 34.98
  Q 71.54 40.89 76.05 47.33
  C 78.83 51.30 74.23 51.59 71.92 52.18
  A 0.65 0.64 77.0 0 0 71.45 52.94
  L 72.07 55.84
  Q 72.18 56.31 71.87 56.68
  Q 70.88 57.88 71.07 59.32
  Q 71.13 59.78 70.91 60.20
  Q 67.95 65.88 68.50 72.06
  C 63.84 75.85 58.80 74.80 53.91 72.27
  A 2.60 2.60 0.0 0 0 50.41 73.36
  L 45.06 83.40
  Q 43.39 86.19 41.89 89.24
  Q 41.76 89.52 41.53 89.64
  Q 40.79 90.05 40.47 89.33
  A 0.54 0.53 47.0 0 1 40.48 88.88
  L 44.26 81.72
  Q 46.65 77.80 48.58 74.01
  C 51.44 68.39 56.61 72.38 60.54 73.01
  Q 67.12 74.05 67.14 69.62
  Q 67.21 63.68 69.69 59.88
  Q 70.02 59.39 69.69 58.89
  L 69.27 58.27
  A 0.59 0.59 0.0 0 1 69.37 57.50
  L 70.24 56.73
  Q 70.64 56.38 70.59 55.85
  L 70.16 51.86
  A 0.86 0.85 -7.0 0 1 70.89 50.93
  L 74.28 50.44
  A 1.44 1.44 0.0 0 0 75.23 48.15
  Q 70.51 41.84 68.92 34.78
  C 71.95 30.37 70.01 22.59 68.65 18.39
  Q 68.57 18.14 68.40 18.05
  Q 68.22 17.96 67.99 17.95
  L 68.07 17.59
  Q 68.13 17.27 68.00 16.97
  C 59.62 -0.96 36.38 -1.50 20.48 5.05
  A 0.92 0.88 1.3 0 0 20.01 5.48
  Q 19.94 5.62 19.86 5.78
  Q 18.97 5.56 18.56 6.39
  Q 16.27 7.33 15.32 8.60
  Q 11.40 11.62 9.20 16.11
  Q 7.92 17.51 7.64 19.75
  Q 7.04 19.77 6.98 21.01
  C 3.17 31.47 6.38 41.29 12.77 49.80
  C 16.96 55.38 20.33 62.82 14.39 68.78
  L 13.73 67.66
  C 19.06 61.53 14.75 54.56 10.60 49.02
  Q 0.94 36.15 5.60 20.31
  Q 6.16 20.32 6.00 19.03
  Q 7.44 17.29 7.95 15.15
  L 14.18 7.58
  L 17.65 5.23
  Q 17.78 5.29 17.90 5.27
  Q 18.26 5.24 18.36 4.89
  Q 18.60 3.99 18.74 4.52
  Q 26.71 0.62 36.09 0.00
  Z"
/>
<path fill="#c7c7c6" fill-opacity="0.996" d="
  M 18.74 4.52
  Q 18.60 3.99 18.36 4.89
  Q 18.26 5.24 17.90 5.27
  Q 17.78 5.29 17.65 5.23
  C 8.23 -2.04 -3.13 9.24 6.00 19.03
  Q 6.16 20.32 5.60 20.31
  C -6.06 11.07 7.48 -5.25 18.74 4.52
  Z"
/>
<path fill="#c7c7c6" fill-opacity="0.996" d="
  M 19.86 5.78
  C 25.69 15.09 16.97 24.62 6.98 21.01
  Q 7.04 19.77 7.64 19.75
  C 16.06 23.54 23.91 14.05 18.56 6.39
  Q 18.97 5.56 19.86 5.78
  Z"
/>
<path fill="#c4e8e3" fill-opacity="0.996" d="
  M 14.18 7.58
  L 7.95 15.15
  C 3.95 10.58 8.82 5.34 14.18 7.58
  Z"
/>
<path fill="#c7c7c6" fill-opacity="0.996" d="
  M 39.25 8.99
  Q 39.21 9.12 39.17 9.25
  Q 39.15 9.32 39.08 9.29
  Q 35.58 7.68 39.13 8.76
  Q 39.31 8.81 39.25 8.99
  Z"
/>
<path fill="#c7c7c6" fill-opacity="0.996" d="
  M 44.75 8.25
  Q 45.11 8.34 45.30 8.77
  A 0.51 0.50 -13.0 0 1 44.86 9.47
  L 44.00 9.51
  A 0.77 0.77 0.0 0 1 43.40 8.21
  Q 43.73 7.86 44.05 7.99
  Q 44.58 8.21 44.75 8.25
  Z"
/>
<path fill="#c4e8e3" fill-opacity="0.996" d="
  M 15.32 8.60
  C 18.07 13.32 14.49 17.70 9.20 16.11
  Q 11.40 11.62 15.32 8.60
  Z"
/>
<ellipse fill="#c7c7c6" fill-opacity="0.996" cx="0.00" cy="0.00" transform="translate(32.68,9.74) rotate(-8.7)" rx="1.12" ry="0.75"/>
<path fill="#c7c7c6" fill-opacity="0.996" d="
  M 49.00 10.78
  A 0.42 0.41 -68.6 0 1 48.76 10.21
  Q 49.37 8.93 50.47 10.14
  A 0.57 0.57 0.0 0 1 49.87 11.06
  L 49.00 10.78
  Z"
/>
<path fill="#c7c7c6" fill-opacity="0.996" d="
  M 27.60 11.34
  A 0.43 0.43 0.0 0 1 28.27 11.66
  Q 28.40 13.09 26.82 13.23
  A 0.60 0.60 0.0 0 1 26.43 12.13
  L 27.60 11.34
  Z"
/>
<path fill="#c7c7c6" fill-opacity="0.996" d="
  M 54.86 12.35
  L 55.94 13.43
  A 0.45 0.45 0.0 0 1 55.67 14.20
  Q 53.81 14.37 53.99 12.66
  A 0.51 0.51 0.0 0 1 54.86 12.35
  Z"
/>
<path fill="#c4e8e3" fill-opacity="0.996" d="
  M 44.29 24.08
  Q 44.12 26.76 42.44 29.01
  A 0.82 0.82 0.0 0 0 43.34 30.29
  L 48.82 28.59
  Q 55.33 28.60 60.34 32.07
  A 0.43 0.43 0.0 0 1 60.36 32.76
  Q 55.75 36.26 49.18 36.28
  L 45.44 35.51
  A 1.28 1.20 -14.5 0 1 44.80 35.16
  Q 43.96 34.31 42.76 34.50
  Q 42.26 34.58 42.47 35.04
  Q 44.33 39.12 44.05 43.77
  Q 43.58 48.42 40.79 52.11
  Q 40.44 52.58 40.08 52.12
  Q 36.38 47.42 36.43 40.91
  L 38.01 35.10
  Q 38.19 34.41 37.51 34.62
  L 31.73 36.33
  Q 25.19 36.36 20.59 32.83
  Q 20.10 32.46 20.58 32.08
  Q 25.13 28.39 31.97 28.69
  L 37.74 30.33
  Q 38.32 30.50 38.15 29.92
  L 36.42 23.91
  Q 36.52 17.96 39.73 13.03
  Q 40.28 12.18 40.88 12.99
  Q 44.32 17.64 44.29 24.08
  Z
  M 40.78 15.18
  A 0.39 0.39 0.0 0 0 40.10 15.16
  Q 35.60 22.87 40.25 30.50
  Q 40.45 30.83 40.64 30.50
  Q 44.89 22.91 40.78 15.18
  Z
  M 38.39 32.29
  Q 30.80 27.80 23.01 32.09
  A 0.42 0.42 0.0 0 0 23.01 32.82
  Q 30.75 37.06 38.39 32.67
  Q 38.72 32.48 38.39 32.29
  Z
  M 43.40 33.08
  Q 50.64 36.89 57.67 32.83
  Q 58.35 32.44 57.66 32.06
  Q 49.92 27.85 42.33 32.27
  Q 41.80 32.58 42.30 32.92
  Q 42.48 33.04 42.73 32.99
  Q 43.08 32.91 43.40 33.08
  Z
  M 40.69 49.77
  Q 44.98 42.20 40.73 34.66
  Q 40.44 34.16 40.15 34.65
  Q 35.67 42.17 40.11 49.77
  Q 40.40 50.28 40.69 49.77
  Z"
/>
<ellipse fill="#c7c7c6" fill-opacity="0.996" cx="0.00" cy="0.00" transform="translate(22.88,15.92) rotate(128.7)" rx="1.17" ry="0.64"/>
<ellipse fill="#c7c7c6" fill-opacity="0.996" cx="0.00" cy="0.00" transform="translate(59.12,17.27) rotate(49.8)" rx="1.09" ry="0.73"/>
<path fill="#e3e4e7" d="
  M 69.51 17.24
  C 81.67 18.74 82.35 31.98 70.62 34.98
  Q 73.14 26.56 69.51 17.24
  Z"
/>
<path fill="#e3e4e7" d="
  M 67.99 17.95
  Q 68.22 17.96 68.40 18.05
  Q 68.57 18.14 68.65 18.39
  C 70.01 22.59 71.95 30.37 68.92 34.78
  L 65.94 33.40
  Q 65.41 33.15 65.16 33.68
  L 64.92 34.19
  A 0.56 0.56 0.0 0 1 63.87 33.82
  L 64.14 32.64
  A 0.97 0.94 32.6 0 0 63.94 31.79
  Q 60.90 28.24 62.12 23.71
  Q 62.25 23.22 61.91 22.83
  L 61.28 22.10
  A 0.51 0.51 0.0 0 1 61.67 21.25
  L 62.53 21.25
  Q 63.21 21.25 63.64 20.73
  Q 65.40 18.66 67.99 17.95
  Z"
/>
<path fill="#91d0cc" d="
  M 36.42 23.91
  L 38.15 29.92
  Q 38.32 30.50 37.74 30.33
  L 31.97 28.69
  Q 27.91 24.71 26.85 19.54
  Q 26.73 18.97 27.30 19.08
  Q 32.42 20.05 36.42 23.91
  Z"
/>
<path fill="#91d0cc" d="
  M 48.82 28.59
  L 43.34 30.29
  A 0.82 0.82 0.0 0 1 42.44 29.01
  Q 44.12 26.76 44.29 24.08
  Q 48.17 20.07 53.45 19.08
  Q 54.03 18.98 53.91 19.55
  Q 52.90 24.66 48.82 28.59
  Z"
/>
<ellipse fill="#c7c7c6" fill-opacity="0.996" cx="0.00" cy="0.00" transform="translate(19.39,20.50) rotate(124.8)" rx="1.10" ry="0.72"/>
<path fill="#c7c7c6" fill-opacity="0.996" d="
  M 16.25 26.17
  L 16.58 25.05
  A 0.52 0.52 0.0 0 1 17.45 24.83
  L 17.90 25.28
  A 0.86 0.86 0.0 0 1 17.29 26.75
  L 16.68 26.75
  A 0.45 0.45 0.0 0 1 16.25 26.17
  Z"
/>
<path fill="#c7c7c6" fill-opacity="0.996" d="
  M 16.72 32.25
  A 0.70 0.46 0.3 0 1 16.26 32.55
  Q 16.09 32.59 15.84 32.44
  Q 15.66 32.34 15.58 32.12
  Q 15.36 31.47 15.58 30.77
  A 0.49 0.49 0.0 0 1 16.32 30.51
  Q 17.27 31.16 16.72 32.25
  Z"
/>
<path fill="#91d0cc" d="
  M 36.43 40.91
  Q 32.84 44.43 27.62 45.81
  A 0.61 0.61 0.0 0 1 26.87 45.07
  Q 28.05 40.30 31.73 36.33
  L 37.51 34.62
  Q 38.19 34.41 38.01 35.10
  L 36.43 40.91
  Z"
/>
<path fill="#91d0cc" d="
  M 49.18 36.28
  Q 52.71 40.36 53.96 45.33
  A 0.46 0.46 0.0 0 1 53.41 45.89
  Q 48.56 44.72 44.88 41.41
  Q 44.40 40.98 44.32 41.62
  L 44.05 43.77
  Q 44.33 39.12 42.47 35.04
  Q 42.26 34.58 42.76 34.50
  Q 43.96 34.31 44.80 35.16
  A 1.28 1.20 -14.5 0 0 45.44 35.51
  L 49.18 36.28
  Z"
/>
<ellipse fill="#c7c7c6" fill-opacity="0.996" cx="0.00" cy="0.00" transform="translate(16.72,37.33) rotate(79.9)" rx="1.12" ry="0.73"/>
<path fill="#c7c7c6" fill-opacity="0.996" d="
  M 62.94 39.19
  Q 63.00 37.79 64.21 38.13
  A 0.54 0.53 -67.3 0 1 64.53 38.92
  L 63.98 39.86
  Q 63.55 40.60 63.01 39.94
  Q 62.60 39.45 62.94 39.19
  Z"
/>
<ellipse fill="#c7c7c6" fill-opacity="0.996" cx="0.00" cy="0.00" transform="translate(18.54,42.77) rotate(68.6)" rx="1.08" ry="0.73"/>
<path fill="#c7c7c6" fill-opacity="0.996" d="
  M 60.52 44.34
  L 61.33 43.47
  Q 61.97 42.78 62.13 43.72
  Q 62.28 44.57 61.63 45.27
  Q 61.24 45.67 60.87 45.25
  Q 60.70 45.07 60.54 44.92
  A 0.41 0.41 0.0 0 1 60.52 44.34
  Z"
/>
<ellipse fill="#c7c7c6" fill-opacity="0.996" cx="0.00" cy="0.00" transform="translate(21.64,47.62) rotate(49.8)" rx="0.98" ry="0.80"/>
<ellipse fill="#c7c7c6" fill-opacity="0.996" cx="0.00" cy="0.00" transform="translate(57.85,49.05) rotate(130.7)" rx="1.14" ry="0.73"/>
<path fill="#c7c7c6" fill-opacity="0.996" d="
  M 26.30 52.53
  L 24.96 51.77
  A 0.55 0.54 58.0 0 1 25.19 50.75
  Q 26.54 50.66 26.98 51.96
  A 0.47 0.47 0.0 0 1 26.30 52.53
  Z"
/>
<path fill="#c7c7c6" fill-opacity="0.996" d="
  M 52.23 53.13
  Q 52.48 51.91 53.72 51.74
  A 0.68 0.68 0.0 0 1 54.00 53.06
  L 52.61 53.48
  A 0.31 0.30 87.1 0 1 52.23 53.13
  Z"
/>
<ellipse fill="#c7c7c6" fill-opacity="0.996" cx="0.00" cy="0.00" transform="translate(30.95,54.49) rotate(21.4)" rx="1.20" ry="0.69"/>
<ellipse fill="#c7c7c6" fill-opacity="0.996" cx="0.00" cy="0.00" transform="translate(48.07,55.18) rotate(-35.1)" rx="1.08" ry="0.78"/>
<path fill="#c7c7c6" fill-opacity="0.996" d="
  M 36.84 55.38
  Q 37.12 55.50 37.20 55.52
  A 0.65 0.58 46.2 0 1 37.25 56.75
  L 36.19 56.75
  A 0.73 0.73 0.0 0 1 35.70 55.48
  Q 36.15 55.06 36.84 55.38
  Z"
/>
<path fill="#c7c7c6" fill-opacity="0.996" d="
  M 43.49 56.37
  Q 42.61 57.37 41.31 56.80
  A 0.48 0.48 0.0 0 1 41.45 55.89
  L 43.15 55.70
  A 0.41 0.40 -72.4 0 1 43.49 56.37
  Z"
/>
<path fill="#c7c7c6" fill-opacity="0.996" d="
  M 13.73 67.66
  L 14.39 68.78
  L 16.09 73.90
  Q 16.47 75.05 15.28 74.81
  Q 3.40 72.38 1.01 60.54
  Q 0.89 59.95 1.49 60.04
  Q 9.24 61.11 13.73 67.66
  Z
  M 2.99 62.28
  C 4.11 67.68 8.59 71.82 13.89 73.10
  Q 14.59 73.27 14.38 72.58
  Q 11.80 64.28 3.50 61.82
  Q 2.86 61.63 2.99 62.28
  Z"
/>
<path fill="#c7c7c6" fill-opacity="0.996" d="
  M 13.96 83.94
  C 15.48 73.32 23.53 65.53 33.69 64.10
  Q 34.99 63.92 34.69 65.20
  Q 30.85 81.35 14.47 84.43
  A 0.44 0.43 -1.0 0 1 13.96 83.94
  Z
  M 16.08 82.63
  C 24.47 80.95 31.26 74.39 33.01 66.00
  A 0.41 0.41 0.0 0 0 32.51 65.52
  Q 19.23 68.95 15.66 82.18
  Q 15.51 82.74 16.08 82.63
  Z"
/>
<path fill="#e3e4e7" d="
  M 67.14 69.62
  Q 67.12 74.05 60.54 73.01
  C 56.61 72.38 51.44 68.39 48.58 74.01
  Q 46.65 77.80 44.26 81.72
  C 41.02 66.13 57.19 58.10 67.14 69.62
  Z"
/>
<path fill="#e3e4e7" d="
  M 68.50 72.06
  C 73.26 87.35 55.57 96.15 45.06 83.40
  L 50.41 73.36
  A 2.60 2.60 0.0 0 1 53.91 72.27
  C 58.80 74.80 63.84 75.85 68.50 72.06
  Z"
/>
<path fill="#c7c7c6" fill-opacity="0.996" d="
  M 3.64 80.80
  Q 2.48 80.49 3.27 79.59
  Q 7.50 74.76 13.91 76.64
  A 0.48 0.47 27.2 0 1 14.16 77.39
  Q 10.13 82.49 3.64 80.80
  Z
  M 11.7319 77.6850
  A 3.35 0.92 -17.1 0 0 8.2595 77.7907
  A 3.35 0.92 -17.1 0 0 5.3281 79.6550
  A 3.35 0.92 -17.1 0 0 8.8005 79.5493
  A 3.35 0.92 -17.1 0 0 11.7319 77.6850
  Z"
/>
</svg>
