<?xml version="1.0" encoding="UTF-8" standalone="no"?>
<!DOCTYPE svg PUBLIC "-//W3C//DTD SVG 1.1//EN" "http://www.w3.org/Graphics/SVG/1.1/DTD/svg11.dtd">
<svg xmlns="http://www.w3.org/2000/svg" version="1.1" viewBox="0.00 0.00 80.00 90.00">
<g stroke-width="2.00" fill="none" stroke-linecap="butt">
<path stroke="#badada" vector-effect="non-scaling-stroke" d="
  M 31.23 38.74
  L 33.78 31.24
  A 0.56 0.56 0.0 0 0 33.25 30.50
  L 23.28 30.50
  Q 22.78 30.50 22.71 31.00
  L 21.60 38.91"
/>
<path stroke="#738483" vector-effect="non-scaling-stroke" d="
  M 7.01 40.08
  L 12.41 49.25"
/>
<path stroke="#757475" vector-effect="non-scaling-stroke" d="
  M 17.58 64.09
  L 16.04 64.43"
/>
<path stroke="#738483" vector-effect="non-scaling-stroke" d="
  M 11.56 50.14
  L 6.00 40.18"
/>
</g>
<path fill="#252325" fill-opacity="0.996" d="
  M 35.58 0.00
  L 42.55 0.00
  Q 45.11 0.37 47.75 0.77
  C 62.91 3.05 71.19 15.67 70.72 30.59
  C 70.64 33.21 68.83 35.84 70.25 38.55
  Q 72.87 43.53 75.75 48.32
  A 1.09 1.05 36.9 0 1 75.88 49.12
  Q 75.13 52.41 71.46 51.93
  A 0.96 0.96 0.0 0 0 70.51 53.38
  C 72.45 56.63 68.34 62.82 68.05 65.78
  C 67.51 71.29 68.00 74.94 60.75 74.48
  Q 56.76 74.23 53.60 72.39
  A 2.74 2.74 0.0 0 0 49.80 73.48
  L 41.38 89.43
  Q 41.13 89.91 40.61 89.74
  L 40.30 89.64
  Q 39.84 89.50 40.06 89.07
  Q 44.16 81.19 48.35 73.36
  C 52.13 66.29 61.83 78.19 66.21 71.22
  Q 66.49 70.77 66.46 70.24
  Q 66.07 64.78 68.73 60.03
  Q 69.00 59.55 68.81 59.02
  L 68.48 58.14
  Q 68.26 57.55 68.78 57.20
  Q 70.45 56.04 69.43 53.99
  A 2.22 2.22 0.0 0 1 71.05 50.82
  L 73.35 50.44
  Q 75.34 50.11 74.28 48.40
  C 72.17 44.95 67.32 38.26 68.55 34.13
  Q 69.47 31.05 69.50 29.88
  C 70.16 4.66 44.94 -3.66 24.86 3.64
  Q 1.32 12.19 7.01 40.08
  L 12.41 49.25
  Q 18.66 55.85 17.58 64.09
  L 16.04 64.43
  C 17.56 59.20 14.95 53.97 11.56 50.14
  L 6.00 40.18
  Q 5.33 37.68 4.74 34.91
  C 1.27 18.67 13.74 3.47 29.32 0.92
  Q 32.45 0.41 35.58 0.00
  Z"
/>
<path fill="#c4c4c4" d="
  M 7.05 5.84
  L 8.87 5.73
  Q 9.71 5.67 9.35 6.44
  L 5.76 14.07
  A 0.27 0.27 0.0 0 1 5.25 13.96
  L 5.25 9.42
  A 1.23 1.22 81.3 0 0 3.66 8.25
  L 2.76 8.53
  Q 2.01 8.76 2.12 7.99
  L 3.11 1.25
  Q 3.18 0.76 3.67 0.75
  L 7.78 0.62
  Q 8.41 0.60 8.19 1.19
  L 6.69 5.34
  Q 6.49 5.87 7.05 5.84
  Z"
/>
<circle fill="#c4c4c4" cx="75.16" cy="6.99" r="2.83"/>
<path fill="#91d0cc" d="
  M 31.23 38.74
  L 33.78 31.24
  A 0.56 0.56 0.0 0 0 33.25 30.50
  L 23.28 30.50
  Q 22.78 30.50 22.71 31.00
  L 21.60 38.91
  C 6.69 37.60 8.39 17.98 22.87 18.99
  Q 23.36 19.03 23.53 18.57
  C 29.44 3.21 49.43 2.96 54.16 18.76
  C 54.46 19.76 54.34 21.26 54.69 22.42
  Q 54.84 22.93 55.36 23.01
  C 62.79 24.11 65.23 33.57 59.22 37.38
  C 54.73 40.23 37.22 38.76 31.23 38.74
  Z"
/>
<path fill="#e3e4e7" d="
  M 31.23 38.74
  Q 30.35 40.02 30.18 41.32
  A 0.47 0.47 0.0 0 0 30.66 41.85
  L 36.21 41.71
  Q 36.96 41.69 36.64 42.37
  L 27.61 61.35
  A 0.32 0.32 0.0 0 1 27.00 61.22
  L 27.00 48.00
  Q 27.00 47.50 26.50 47.50
  L 20.73 47.50
  Q 20.14 47.50 20.24 46.92
  L 21.60 38.91
  L 22.71 31.00
  Q 22.78 30.50 23.28 30.50
  L 33.25 30.50
  A 0.56 0.56 0.0 0 1 33.78 31.24
  L 31.23 38.74
  Z"
/>
<path fill="#c1e4e0" d="
  M 7.01 40.08
  C 12.38 39.92 14.83 44.63 12.41 49.25
  L 7.01 40.08
  Z"
/>
<path fill="#c1e4e0" d="
  M 6.00 40.18
  L 11.56 50.14
  C 4.72 55.12 -2.37 45.44 6.00 40.18
  Z"
/>
<path fill="#c1e4e0" d="
  M 54.24 45.66
  C 63.24 57.46 44.72 57.92 53.63 45.66
  Q 53.93 45.25 54.24 45.66
  Z"
/>
<path fill="#e3e4e7" d="
  M 48.71 62.73
  A 0.80 0.78 83.5 0 1 49.20 63.13
  C 52.19 68.94 40.52 67.25 38.00 67.24
  C 32.37 67.22 32.48 61.02 37.13 60.97
  Q 37.64 60.97 37.82 60.49
  C 39.80 55.42 46.19 56.81 47.39 61.50
  Q 47.62 62.40 48.71 62.73
  Z"
/>
<path fill="#c4c4c4" d="
  M 16.04 64.43
  L 17.58 64.09
  Q 27.00 63.86 28.49 73.22
  Q 28.57 73.72 29.07 73.81
  C 35.24 74.90 34.69 83.21 27.29 83.23
  Q 18.15 83.27 9.02 83.25
  C -0.82 83.23 0.53 70.59 8.98 71.35
  Q 9.51 71.39 9.68 70.89
  Q 11.32 66.21 16.04 64.43
  Z"
/>
<path fill="#c4c4c4" d="
  M 54.32 81.53
  L 55.74 81.49
  Q 56.51 81.47 56.18 82.17
  L 53.01 88.81
  Q 52.50 89.88 52.50 88.70
  L 52.50 84.38
  Q 52.50 83.75 51.87 83.75
  L 50.21 83.75
  Q 49.65 83.75 49.74 83.21
  L 50.68 77.48
  Q 50.76 77.00 51.25 77.00
  L 54.81 77.00
  A 0.41 0.40 -79.4 0 1 55.18 77.55
  L 53.89 80.93
  Q 53.66 81.55 54.32 81.53
  Z"
/>
<circle fill="#e3e4e7" cx="71.97" cy="83.69" r="5.98"/>
</svg>
