<?xml version="1.0" encoding="UTF-8" standalone="no"?>
<!DOCTYPE svg PUBLIC "-//W3C//DTD SVG 1.1//EN" "http://www.w3.org/Graphics/SVG/1.1/DTD/svg11.dtd">
<svg xmlns="http://www.w3.org/2000/svg" version="1.1" viewBox="0.00 0.00 80.00 90.00">
<g stroke-width="2.00" fill="none" stroke-linecap="butt">
<path stroke="#838385" vector-effect="non-scaling-stroke" d="
  M 58.55 4.01
  L 58.12 5.12
  Q 57.97 5.52 58.35 5.70
  Q 58.48 5.76 58.62 5.76
  Q 59.11 5.76 59.13 5.27
  L 59.18 4.13"
/>
<path stroke="#838385" vector-effect="non-scaling-stroke" d="
  M 64.82 8.14
  Q 61.93 9.36 60.64 11.08
  Q 60.31 11.53 60.70 11.92
  Q 64.83 16.11 70.05 14.88"
/>
<path stroke="#d4d4d6" vector-effect="non-scaling-stroke" d="
  M 73.25 26.97
  Q 71.52 29.23 73.38 30.79"
/>
<path stroke="#838385" vector-effect="non-scaling-stroke" d="
  M 59.29 72.65
  Q 58.56 72.42 58.77 72.04
  Q 61.06 67.86 61.50 63.00
  Q 61.56 62.43 61.00 62.50
  Q 52.95 63.40 46.75 68.52
  Q 46.25 68.93 46.19 68.28
  Q 45.52 60.42 40.62 54.24
  Q 39.98 53.44 39.36 54.24
  Q 34.53 60.40 33.72 68.20
  Q 33.66 68.75 33.23 68.40
  Q 27.86 63.94 20.33 62.72
  Q 19.47 62.58 19.76 61.96"
/>
<path stroke="#838385" vector-effect="non-scaling-stroke" d="
  M 16.58 52.19
  C 50.53 61.47 59.84 9.79 23.69 7.47
  C 21.53 7.34 19.21 8.28 16.95 8.53"
/>
<path stroke="#838385" vector-effect="non-scaling-stroke" d="
  M 57.15 8.88
  Q 57.53 8.95 57.76 8.55
  A 0.49 0.49 0.0 0 0 57.39 7.83
  L 56.71 7.76
  A 0.35 0.33 12.4 0 0 56.36 7.97
  Q 56.05 8.77 56.72 8.82
  Q 56.82 8.82 57.15 8.88"
/>
<path stroke="#838385" vector-effect="non-scaling-stroke" d="
  M 56.21 11.46
  Q 55.92 11.55 55.98 11.85
  L 56.09 12.43
  A 0.49 0.49 0.0 0 0 56.82 12.75
  Q 57.45 12.38 57.19 11.82
  Q 56.91 11.23 56.21 11.46"
/>
<path stroke="#838385" vector-effect="non-scaling-stroke" d="
  M 58.22 15.96
  Q 57.83 14.63 56.95 15.12
  A 0.53 0.53 0.0 0 0 56.83 15.96
  L 57.35 16.47
  A 0.52 0.52 0.0 0 0 58.22 15.96"
/>
<path stroke="#838385" vector-effect="non-scaling-stroke" d="
  M 59.94 19.39
  Q 60.50 18.61 59.82 18.16
  A 0.59 0.59 0.0 0 0 58.99 18.96
  L 59.22 19.36
  Q 59.56 19.92 59.94 19.39"
/>
<path stroke="#838385" vector-effect="non-scaling-stroke" d="
  M 62.97 21.51
  Q 63.62 20.17 62.10 20.37
  A 0.60 0.60 0.0 0 0 61.76 21.39
  L 62.04 21.67
  Q 62.61 22.24 62.97 21.51"
/>
<path stroke="#838385" vector-effect="non-scaling-stroke" d="
  M 69.22 21.50
  Q 68.97 22.40 69.61 22.61
  Q 70.59 22.94 70.80 22.00
  A 0.61 0.61 0.0 0 0 70.21 21.25
  L 69.55 21.25
  A 0.34 0.34 0.0 0 0 69.22 21.50"
/>
<path stroke="#838385" vector-effect="non-scaling-stroke" d="
  M 65.91 22.75
  Q 67.22 23.09 66.90 21.85
  A 0.53 0.53 0.0 0 0 66.02 21.61
  L 65.69 21.94
  A 0.48 0.48 0.0 0 0 65.91 22.75"
/>
<path stroke="#d2e4e4" vector-effect="non-scaling-stroke" d="
  M 49.6271 61.5102
  A 4.87 1.85 119.7 0 0 53.6470 58.1966
  A 4.87 1.85 119.7 0 0 54.4529 53.0498
  A 4.87 1.85 119.7 0 0 50.4330 56.3634
  A 4.87 1.85 119.7 0 0 49.6271 61.5102"
/>
<path stroke="#838385" vector-effect="non-scaling-stroke" d="
  M 18.19 27.81
  C 21.68 30.16 25.70 29.35 28.93 30.80
  C 36.64 34.27 38.16 44.37 31.93 50.14
  Q 31.27 50.76 32.09 50.40
  C 52.82 41.35 48.48 11.27 26.00 9.01
  C 14.89 7.90 8.57 21.33 18.19 27.81"
/>
<path stroke="#5a7978" vector-effect="non-scaling-stroke" d="
  M 15.89 10.98
  A 0.46 0.46 0.0 0 0 15.34 10.24
  C 4.91 16.91 -0.94 26.77 4.21 38.84
  C 7.67 46.97 18.72 54.69 28.04 51.07
  C 37.07 47.57 36.24 35.32 27.50 31.75
  C 25.18 30.80 21.63 31.19 18.99 29.98
  C 11.62 26.59 9.69 16.20 15.89 10.98"
/>
<path stroke="#838385" vector-effect="non-scaling-stroke" d="
  M 65.97 9.31
  Q 63.82 9.45 62.50 11.08
  Q 62.15 11.51 62.55 11.88
  Q 65.51 14.66 69.08 13.78"
/>
<path stroke="#838385" vector-effect="non-scaling-stroke" d="
  M 26.25 19.28
  A 2.23 2.23 0.0 0 0 24.02 17.05
  A 2.23 2.23 0.0 0 0 21.79 19.28
  A 2.23 2.23 0.0 0 0 24.02 21.51
  A 2.23 2.23 0.0 0 0 26.25 19.28"
/>
<path stroke="#838385" vector-effect="non-scaling-stroke" d="
  M 67.15 12.22
  Q 67.39 12.32 67.66 12.15
  Q 68.22 11.80 67.91 11.28
  A 0.61 0.61 0.0 0 0 66.96 11.16
  L 66.52 11.60
  Q 66.42 11.71 66.52 11.81
  L 66.73 12.02
  A 0.54 0.03 22.5 0 0 67.15 12.22"
/>
<path stroke="#5a7978" vector-effect="non-scaling-stroke" d="
  M 26.22 43.10
  A 2.19 2.19 0.0 0 0 24.03 40.91
  A 2.19 2.19 0.0 0 0 21.84 43.10
  A 2.19 2.19 0.0 0 0 24.03 45.29
  A 2.19 2.19 0.0 0 0 26.22 43.10"
/>
<path stroke="#838385" vector-effect="non-scaling-stroke" d="
  M 24.46 18.60
  L 23.60 18.82
  A 0.58 0.58 0.0 0 0 23.50 19.91
  Q 24.11 20.19 24.53 19.78
  Q 24.85 19.48 24.75 19.25
  Q 24.46 18.60 24.46 18.60"
/>
<path stroke="#747374" vector-effect="non-scaling-stroke" d="
  M 24.98 43.14
  A 0.91 0.91 0.0 0 0 24.07 42.23
  A 0.91 0.91 0.0 0 0 23.16 43.14
  A 0.91 0.91 0.0 0 0 24.07 44.05
  A 0.91 0.91 0.0 0 0 24.98 43.14"
/>
<path stroke="#838385" vector-effect="non-scaling-stroke" d="
  M 44.26 87.41
  Q 42.05 85.67 39.30 85.13"
/>
<path stroke="#838385" vector-effect="non-scaling-stroke" d="
  M 39.72 56.21
  Q 35.42 62.23 35.17 69.65
  Q 35.15 70.19 35.46 70.63
  Q 38.19 74.51 39.60 79.04
  A 0.39 0.39 0.0 0 0 40.35 79.04
  Q 41.85 74.42 44.70 70.46
  A 1.02 1.01 61.6 0 0 44.89 69.81
  Q 44.66 62.29 40.27 56.21
  Q 39.99 55.83 39.72 56.21"
/>
<path stroke="#838385" vector-effect="non-scaling-stroke" d="
  M 32.35 78.57
  L 36.31 80.69
  A 0.37 0.37 0.0 0 0 36.81 80.19
  Q 34.69 76.09 33.90 71.52
  Q 33.81 71.03 33.46 70.69
  Q 28.02 65.36 20.46 64.01
  Q 19.80 63.90 20.00 64.53
  L 20.84 67.22"
/>
<path stroke="#838385" vector-effect="non-scaling-stroke" d="
  M 56.99 71.82
  Q 57.66 71.80 57.80 71.52
  Q 59.44 68.21 59.97 64.50
  Q 60.05 63.95 59.50 64.04
  Q 52.14 65.36 46.64 70.38
  A 1.57 1.53 73.9 0 0 46.18 71.24
  Q 45.36 76.04 43.08 80.33
  Q 42.67 81.10 43.47 80.76
  L 49.33 78.29"
/>
<path stroke="#747374" vector-effect="non-scaling-stroke" d="
  M 36.0418 73.4200
  A 0.29 0.29 0.0 0 0 35.6615 73.2664
  L 35.5142 73.3289
  A 0.29 0.29 0.0 0 0 35.3606 73.7092
  L 38.1582 80.3000
  A 0.29 0.29 0.0 0 0 38.5385 80.4536
  L 38.6858 80.3911
  A 0.29 0.29 0.0 0 0 38.8394 80.0108
  L 36.0418 73.4200"
/>
<path stroke="#747374" vector-effect="non-scaling-stroke" d="
  M 44.5238 73.9760
  A 0.27 0.27 0.0 0 0 44.3801 73.6222
  L 44.2328 73.5599
  A 0.27 0.27 0.0 0 0 43.8790 73.7036
  L 41.1162 80.2440
  A 0.27 0.27 0.0 0 0 41.2599 80.5978
  L 41.4072 80.6601
  A 0.27 0.27 0.0 0 0 41.7610 80.5164
  L 44.5238 73.9760"
/>
<path stroke="#838385" vector-effect="non-scaling-stroke" d="
  M 47.03 82.74
  L 42.50 84.25
  Q 41.84 84.47 42.45 84.80
  L 45.14 86.26"
/>
<path stroke="#747374" vector-effect="non-scaling-stroke" d="
  M 45.17 81.99
  Q 46.98 81.74 48.12 80.29
  A 0.22 0.21 5.4 0 0 47.85 79.97
  L 43.48 82.13
  A 0.29 0.28 48.1 0 0 43.46 82.63
  Q 44.04 82.99 44.46 82.41
  Q 44.73 82.05 45.17 81.99"
/>
</g>
<path fill="#232223" d="
  M 68.31 0.00
  L 69.02 0.00
  L 69.37 0.52
  Q 69.85 1.25 68.97 1.25
  L 68.53 1.25
  A 0.41 0.40 -20.9 0 1 68.23 1.12
  Q 67.70 0.60 68.31 0.00
  Z"
/>
<path fill="#232223" d="
  M 64.24 0.71
  Q 64.58 0.00 65.26 0.37
  A 0.68 0.54 65.3 0 1 64.97 1.56
  L 64.45 1.31
  Q 64.03 1.12 64.24 0.71
  Z"
/>
<path fill="#e3e4e7" d="
  M 58.55 4.01
  L 58.12 5.12
  Q 57.97 5.52 58.35 5.70
  Q 58.48 5.76 58.62 5.76
  Q 59.11 5.76 59.13 5.27
  L 59.18 4.13
  L 64.82 8.14
  Q 61.93 9.36 60.64 11.08
  Q 60.31 11.53 60.70 11.92
  Q 64.83 16.11 70.05 14.88
  Q 72.90 20.78 73.25 26.97
  Q 71.52 29.23 73.38 30.79
  C 72.39 33.80 71.49 36.31 73.13 39.31
  Q 75.26 43.23 77.51 46.99
  C 79.82 50.84 76.37 51.19 73.66 51.32
  A 0.70 0.69 -6.8 0 0 73.01 52.14
  L 73.68 55.81
  A 0.71 0.70 69.3 0 1 73.36 56.53
  Q 71.93 57.42 72.77 58.89
  A 0.87 0.86 -42.8 0 1 72.73 59.81
  Q 70.02 63.74 70.23 68.50
  C 70.52 75.05 63.32 74.23 59.29 72.65
  Q 58.56 72.42 58.77 72.04
  Q 61.06 67.86 61.50 63.00
  Q 61.56 62.43 61.00 62.50
  Q 52.95 63.40 46.75 68.52
  Q 46.25 68.93 46.19 68.28
  Q 45.52 60.42 40.62 54.24
  Q 39.98 53.44 39.36 54.24
  Q 34.53 60.40 33.72 68.20
  Q 33.66 68.75 33.23 68.40
  Q 27.86 63.94 20.33 62.72
  Q 19.47 62.58 19.76 61.96
  Q 19.89 57.31 16.58 52.19
  C 50.53 61.47 59.84 9.79 23.69 7.47
  C 21.53 7.34 19.21 8.28 16.95 8.53
  C 27.19 -0.18 46.68 -1.94 58.55 4.01
  Z
  M 57.15 8.88
  Q 57.53 8.95 57.76 8.55
  A 0.49 0.49 0.0 0 0 57.39 7.83
  L 56.71 7.76
  A 0.35 0.33 12.4 0 0 56.36 7.97
  Q 56.05 8.77 56.72 8.82
  Q 56.82 8.82 57.15 8.88
  Z
  M 56.21 11.46
  Q 55.92 11.55 55.98 11.85
  L 56.09 12.43
  A 0.49 0.49 0.0 0 0 56.82 12.75
  Q 57.45 12.38 57.19 11.82
  Q 56.91 11.23 56.21 11.46
  Z
  M 58.22 15.96
  Q 57.83 14.63 56.95 15.12
  A 0.53 0.53 0.0 0 0 56.83 15.96
  L 57.35 16.47
  A 0.52 0.52 0.0 0 0 58.22 15.96
  Z
  M 59.94 19.39
  Q 60.50 18.61 59.82 18.16
  A 0.59 0.59 0.0 0 0 58.99 18.96
  L 59.22 19.36
  Q 59.56 19.92 59.94 19.39
  Z
  M 62.97 21.51
  Q 63.62 20.17 62.10 20.37
  A 0.60 0.60 0.0 0 0 61.76 21.39
  L 62.04 21.67
  Q 62.61 22.24 62.97 21.51
  Z
  M 69.22 21.50
  Q 68.97 22.40 69.61 22.61
  Q 70.59 22.94 70.80 22.00
  A 0.61 0.61 0.0 0 0 70.21 21.25
  L 69.55 21.25
  A 0.34 0.34 0.0 0 0 69.22 21.50
  Z
  M 65.91 22.75
  Q 67.22 23.09 66.90 21.85
  A 0.53 0.53 0.0 0 0 66.02 21.61
  L 65.69 21.94
  A 0.48 0.48 0.0 0 0 65.91 22.75
  Z
  M 49.6271 61.5102
  A 4.87 1.85 119.7 0 0 53.6470 58.1966
  A 4.87 1.85 119.7 0 0 54.4529 53.0498
  A 4.87 1.85 119.7 0 0 50.4330 56.3634
  A 4.87 1.85 119.7 0 0 49.6271 61.5102
  Z"
/>
<path fill="#232223" d="
  M 72.05 2.47
  Q 71.40 1.77 72.02 1.07
  A 0.52 0.52 0.0 0 1 72.93 1.47
  L 72.86 2.20
  A 0.47 0.47 0.0 0 1 72.05 2.47
  Z"
/>
<path fill="#232223" d="
  M 62.16 2.51
  Q 62.59 2.86 61.52 3.13
  A 0.43 0.42 70.2 0 1 61.04 2.90
  L 60.80 2.37
  A 0.47 0.47 0.0 0 1 61.26 1.71
  Q 61.87 1.75 62.00 2.26
  Q 62.04 2.41 62.16 2.51
  Z"
/>
<path fill="#232223" d="
  M 75.79 3.37
  Q 76.10 3.81 76.00 4.43
  A 0.53 0.53 0.0 0 1 74.96 4.45
  L 74.82 3.80
  A 0.54 0.54 0.0 0 1 75.79 3.37
  Z"
/>
<path fill="#232223" d="
  M 58.55 4.01
  Q 59.24 3.94 59.18 4.13
  L 59.13 5.27
  Q 59.11 5.76 58.62 5.76
  Q 58.48 5.76 58.35 5.70
  Q 57.97 5.52 58.12 5.12
  L 58.55 4.01
  Z"
/>
<circle fill="#c4c4c4" cx="8.03" cy="6.93" r="1.57"/>
<path fill="#232223" d="
  M 78.11 6.96
  L 78.16 7.47
  A 0.52 0.52 0.0 0 1 77.27 7.89
  L 76.97 7.59
  A 0.62 0.62 0.0 0 1 77.15 6.59
  Q 77.38 6.49 77.59 6.48
  Q 78.06 6.48 78.11 6.96
  Z"
/>
<path fill="#232223" d="
  M 16.58 52.19
  C -4.25 43.16 -4.36 16.95 16.95 8.53
  C 19.21 8.28 21.53 7.34 23.69 7.47
  C 59.84 9.79 50.53 61.47 16.58 52.19
  Z
  M 18.19 27.81
  C 21.68 30.16 25.70 29.35 28.93 30.80
  C 36.64 34.27 38.16 44.37 31.93 50.14
  Q 31.27 50.76 32.09 50.40
  C 52.82 41.35 48.48 11.27 26.00 9.01
  C 14.89 7.90 8.57 21.33 18.19 27.81
  Z
  M 15.89 10.98
  A 0.46 0.46 0.0 0 0 15.34 10.24
  C 4.91 16.91 -0.94 26.77 4.21 38.84
  C 7.67 46.97 18.72 54.69 28.04 51.07
  C 37.07 47.57 36.24 35.32 27.50 31.75
  C 25.18 30.80 21.63 31.19 18.99 29.98
  C 11.62 26.59 9.69 16.20 15.89 10.98
  Z"
/>
<path fill="#232223" d="
  M 56.72 8.82
  Q 56.05 8.77 56.36 7.97
  A 0.35 0.33 12.4 0 1 56.71 7.76
  L 57.39 7.83
  A 0.49 0.49 0.0 0 1 57.76 8.55
  Q 57.53 8.95 57.15 8.88
  Q 56.82 8.82 56.72 8.82
  Z"
/>
<path fill="#232223" d="
  M 70.05 14.88
  Q 64.83 16.11 60.70 11.92
  Q 60.31 11.53 60.64 11.08
  Q 61.93 9.36 64.82 8.14
  Q 70.05 6.64 74.23 10.93
  Q 74.62 11.34 74.27 11.79
  Q 72.78 13.66 70.05 14.88
  Z
  M 65.97 9.31
  Q 63.82 9.45 62.50 11.08
  Q 62.15 11.51 62.55 11.88
  Q 65.51 14.66 69.08 13.78
  L 72.50 11.99
  A 0.47 0.46 52.0 0 0 72.59 11.23
  Q 69.32 8.28 65.97 9.31
  Z"
/>
<path fill="#e3e4e7" d="
  M 18.19 27.81
  C 8.57 21.33 14.89 7.90 26.00 9.01
  C 48.48 11.27 52.82 41.35 32.09 50.40
  Q 31.27 50.76 31.93 50.14
  C 38.16 44.37 36.64 34.27 28.93 30.80
  C 25.70 29.35 21.68 30.16 18.19 27.81
  Z
  M 26.25 19.28
  A 2.23 2.23 0.0 0 0 24.02 17.05
  A 2.23 2.23 0.0 0 0 21.79 19.28
  A 2.23 2.23 0.0 0 0 24.02 21.51
  A 2.23 2.23 0.0 0 0 26.25 19.28
  Z"
/>
<path fill="#e3e4e7" d="
  M 65.97 9.31
  Q 66.52 9.88 67.34 10.06
  Q 68.41 10.28 68.62 10.65
  Q 69.14 11.56 69.08 13.78
  Q 65.51 14.66 62.55 11.88
  Q 62.15 11.51 62.50 11.08
  Q 63.82 9.45 65.97 9.31
  Z
  M 67.15 12.22
  Q 67.39 12.32 67.66 12.15
  Q 68.22 11.80 67.91 11.28
  A 0.61 0.61 0.0 0 0 66.96 11.16
  L 66.52 11.60
  Q 66.42 11.71 66.52 11.81
  L 66.73 12.02
  A 0.54 0.03 22.5 0 0 67.15 12.22
  Z"
/>
<path fill="#91d0cc" d="
  M 15.89 10.98
  C 9.69 16.20 11.62 26.59 18.99 29.98
  C 21.63 31.19 25.18 30.80 27.50 31.75
  C 36.24 35.32 37.07 47.57 28.04 51.07
  C 18.72 54.69 7.67 46.97 4.21 38.84
  C -0.94 26.77 4.91 16.91 15.34 10.24
  A 0.46 0.46 0.0 0 1 15.89 10.98
  Z
  M 26.22 43.10
  A 2.19 2.19 0.0 0 0 24.03 40.91
  A 2.19 2.19 0.0 0 0 21.84 43.10
  A 2.19 2.19 0.0 0 0 24.03 45.29
  A 2.19 2.19 0.0 0 0 26.22 43.10
  Z"
/>
<path fill="#232223" d="
  M 78.83 10.62
  Q 78.85 12.13 77.39 11.20
  A 0.52 0.51 -28.7 0 1 77.67 10.25
  L 78.45 10.25
  A 0.38 0.37 0.0 0 1 78.83 10.62
  Z"
/>
<path fill="#232223" d="
  M 66.73 12.02
  L 66.52 11.81
  Q 66.42 11.71 66.52 11.60
  L 66.96 11.16
  A 0.61 0.61 0.0 0 1 67.91 11.28
  Q 68.22 11.80 67.66 12.15
  Q 67.39 12.32 67.15 12.22
  A 0.54 0.03 22.5 0 1 66.73 12.02
  Z"
/>
<path fill="#232223" d="
  M 56.21 11.46
  Q 56.91 11.23 57.19 11.82
  Q 57.45 12.38 56.82 12.75
  A 0.49 0.49 0.0 0 1 56.09 12.43
  L 55.98 11.85
  Q 55.92 11.55 56.21 11.46
  Z"
/>
<path fill="#232223" d="
  M 77.27 14.78
  Q 77.23 14.58 77.24 14.36
  A 0.50 0.50 0.0 0 1 78.05 13.99
  L 78.63 14.47
  A 0.40 0.40 0.0 0 1 78.34 15.17
  L 77.63 15.10
  Q 77.33 15.07 77.27 14.78
  Z"
/>
<path fill="#232223" d="
  M 58.22 15.96
  A 0.52 0.52 0.0 0 1 57.35 16.47
  L 56.83 15.96
  A 0.53 0.53 0.0 0 1 56.95 15.12
  Q 57.83 14.63 58.22 15.96
  Z"
/>
<path fill="#232223" d="
  M 26.25 19.28
  A 2.23 2.23 0.0 0 1 24.02 21.51
  A 2.23 2.23 0.0 0 1 21.79 19.28
  A 2.23 2.23 0.0 0 1 24.02 17.05
  A 2.23 2.23 0.0 0 1 26.25 19.28
  Z
  M 24.46 18.60
  L 23.60 18.82
  A 0.58 0.58 0.0 0 0 23.50 19.91
  Q 24.11 20.19 24.53 19.78
  Q 24.85 19.48 24.75 19.25
  Q 24.46 18.60 24.46 18.60
  Z"
/>
<path fill="#232223" d="
  M 75.85 17.35
  A 0.51 0.51 0.0 0 1 76.75 17.67
  L 76.75 18.22
  A 0.49 0.49 0.0 0 1 76.03 18.65
  Q 75.18 18.18 75.85 17.35
  Z"
/>
<path fill="#232223" d="
  M 59.94 19.39
  Q 59.56 19.92 59.22 19.36
  L 58.99 18.96
  A 0.59 0.59 0.0 0 1 59.82 18.16
  Q 60.50 18.61 59.94 19.39
  Z"
/>
<path fill="#e3e4e7" d="
  M 24.46 18.60
  Q 24.46 18.60 24.75 19.25
  Q 24.85 19.48 24.53 19.78
  Q 24.11 20.19 23.50 19.91
  A 0.58 0.58 0.0 0 1 23.60 18.82
  L 24.46 18.60
  Z"
/>
<path fill="#232223" d="
  M 73.84 20.95
  Q 73.41 21.53 73.12 20.87
  Q 72.70 19.91 73.61 19.93
  A 0.51 0.51 0.0 0 1 74.00 20.74
  L 73.84 20.95
  Z"
/>
<path fill="#232223" d="
  M 62.97 21.51
  Q 62.61 22.24 62.04 21.67
  L 61.76 21.39
  A 0.60 0.60 0.0 0 1 62.10 20.37
  Q 63.62 20.17 62.97 21.51
  Z"
/>
<path fill="#232223" d="
  M 69.22 21.50
  A 0.34 0.34 0.0 0 1 69.55 21.25
  L 70.21 21.25
  A 0.61 0.61 0.0 0 1 70.80 22.00
  Q 70.59 22.94 69.61 22.61
  Q 68.97 22.40 69.22 21.50
  Z"
/>
<path fill="#232223" d="
  M 65.91 22.75
  A 0.48 0.48 0.0 0 1 65.69 21.94
  L 66.02 21.61
  A 0.53 0.53 0.0 0 1 66.90 21.85
  Q 67.22 23.09 65.91 22.75
  Z"
/>
<path fill="#c4c4c4" d="
  M 73.25 26.97
  Q 74.54 27.33 75.10 28.38
  Q 75.35 28.85 75.11 29.32
  Q 74.61 30.28 73.38 30.79
  Q 71.52 29.23 73.25 26.97
  Z"
/>
<path fill="#232223" d="
  M 26.22 43.10
  A 2.19 2.19 0.0 0 1 24.03 45.29
  A 2.19 2.19 0.0 0 1 21.84 43.10
  A 2.19 2.19 0.0 0 1 24.03 40.91
  A 2.19 2.19 0.0 0 1 26.22 43.10
  Z
  M 24.98 43.14
  A 0.91 0.91 0.0 0 0 24.07 42.23
  A 0.91 0.91 0.0 0 0 23.16 43.14
  A 0.91 0.91 0.0 0 0 24.07 44.05
  A 0.91 0.91 0.0 0 0 24.98 43.14
  Z"
/>
<circle fill="#c4c4c4" cx="24.07" cy="43.14" r="0.91"/>
<ellipse fill="#c1e4e0" cx="0.00" cy="0.00" transform="translate(52.04,57.28) rotate(119.7)" rx="4.87" ry="1.85"/>
<path fill="#232223" d="
  M 59.29 72.65
  Q 58.94 72.70 58.70 72.79
  Q 58.45 72.88 58.29 73.19
  Q 57.11 75.46 55.30 77.06
  A 0.45 0.45 0.0 0 0 55.58 77.85
  Q 63.65 78.26 69.91 83.35
  A 0.69 0.69 0.0 0 1 69.90 84.43
  Q 64.14 88.93 56.66 90.00
  L 52.72 90.00
  L 44.26 87.41
  Q 42.05 85.67 39.30 85.13
  Q 33.70 89.02 27.40 90.00
  L 22.99 90.00
  Q 15.95 88.82 9.99 84.44
  A 0.63 0.63 0.0 0 1 9.96 83.45
  Q 16.26 78.25 24.43 77.87
  A 0.35 0.35 0.0 0 0 24.68 77.29
  Q 19.35 71.27 18.43 63.23
  Q 18.37 62.77 18.82 62.63
  Q 19.45 62.43 19.76 61.96
  Q 19.47 62.58 20.33 62.72
  Q 27.86 63.94 33.23 68.40
  Q 33.66 68.75 33.72 68.20
  Q 34.53 60.40 39.36 54.24
  Q 39.98 53.44 40.62 54.24
  Q 45.52 60.42 46.19 68.28
  Q 46.25 68.93 46.75 68.52
  Q 52.95 63.40 61.00 62.50
  Q 61.56 62.43 61.50 63.00
  Q 61.06 67.86 58.77 72.04
  Q 58.56 72.42 59.29 72.65
  Z
  M 39.72 56.21
  Q 35.42 62.23 35.17 69.65
  Q 35.15 70.19 35.46 70.63
  Q 38.19 74.51 39.60 79.04
  A 0.39 0.39 0.0 0 0 40.35 79.04
  Q 41.85 74.42 44.70 70.46
  A 1.02 1.01 61.6 0 0 44.89 69.81
  Q 44.66 62.29 40.27 56.21
  Q 39.99 55.83 39.72 56.21
  Z
  M 20.84 67.22
  Q 21.97 72.56 25.53 76.47
  Q 27.06 78.15 29.33 78.01
  A 1.28 1.24 62.8 0 1 30.22 78.31
  Q 31.71 79.56 32.35 78.57
  L 36.31 80.69
  A 0.37 0.37 0.0 0 0 36.81 80.19
  Q 34.69 76.09 33.90 71.52
  Q 33.81 71.03 33.46 70.69
  Q 28.02 65.36 20.46 64.01
  Q 19.80 63.90 20.00 64.53
  L 20.84 67.22
  Z
  M 49.33 78.29
  Q 50.34 78.27 51.42 78.14
  C 53.82 77.86 55.83 74.84 57.06 72.81
  Q 57.40 72.25 56.99 71.82
  Q 57.66 71.80 57.80 71.52
  Q 59.44 68.21 59.97 64.50
  Q 60.05 63.95 59.50 64.04
  Q 52.14 65.36 46.64 70.38
  A 1.57 1.53 73.9 0 0 46.18 71.24
  Q 45.36 76.04 43.08 80.33
  Q 42.67 81.10 43.47 80.76
  L 49.33 78.29
  Z
  M 36.0418 73.4200
  A 0.29 0.29 0.0 0 0 35.6615 73.2664
  L 35.5142 73.3289
  A 0.29 0.29 0.0 0 0 35.3606 73.7092
  L 38.1582 80.3000
  A 0.29 0.29 0.0 0 0 38.5385 80.4536
  L 38.6858 80.3911
  A 0.29 0.29 0.0 0 0 38.8394 80.0108
  L 36.0418 73.4200
  Z
  M 44.5238 73.9760
  A 0.27 0.27 0.0 0 0 44.3801 73.6222
  L 44.2328 73.5599
  A 0.27 0.27 0.0 0 0 43.8790 73.7036
  L 41.1162 80.2440
  A 0.27 0.27 0.0 0 0 41.2599 80.5978
  L 41.4072 80.6601
  A 0.27 0.27 0.0 0 0 41.7610 80.5164
  L 44.5238 73.9760
  Z
  M 12.14 84.28
  C 21.01 90.46 28.58 89.28 37.53 84.99
  A 0.49 0.49 0.0 0 0 37.42 84.07
  Q 31.47 82.79 26.56 79.21
  A 1.59 1.53 60.4 0 0 25.57 78.92
  Q 18.23 79.35 12.15 83.40
  A 0.53 0.53 0.0 0 0 12.14 84.28
  Z
  M 47.03 82.74
  L 42.50 84.25
  Q 41.84 84.47 42.45 84.80
  L 45.14 86.26
  Q 56.99 91.88 67.82 84.25
  A 0.50 0.50 0.0 0 0 67.82 83.43
  Q 61.80 79.31 54.48 78.97
  A 1.64 1.55 -55.8 0 0 53.62 79.16
  L 47.03 82.74
  Z
  M 32.98 80.98
  Q 33.22 82.37 34.43 82.00
  A 0.62 0.62 0.0 0 0 34.16 80.80
  L 32.98 80.98
  Q 32.35 79.69 31.37 80.07
  A 0.49 0.49 0.0 0 0 31.37 80.99
  Q 32.10 81.27 32.98 80.98
  Z
  M 45.17 81.99
  Q 46.98 81.74 48.12 80.29
  A 0.22 0.21 5.4 0 0 47.85 79.97
  L 43.48 82.13
  A 0.29 0.28 48.1 0 0 43.46 82.63
  Q 44.04 82.99 44.46 82.41
  Q 44.73 82.05 45.17 81.99
  Z"
/>
<circle fill="#c4c4c4" cx="4.85" cy="57.68" r="3.16"/>
<path fill="#e3e4e7" d="
  M 39.72 56.21
  Q 39.99 55.83 40.27 56.21
  Q 44.66 62.29 44.89 69.81
  A 1.02 1.01 61.6 0 1 44.70 70.46
  Q 41.85 74.42 40.35 79.04
  A 0.39 0.39 0.0 0 1 39.60 79.04
  Q 38.19 74.51 35.46 70.63
  Q 35.15 70.19 35.17 69.65
  Q 35.42 62.23 39.72 56.21
  Z"
/>
<path fill="#e3e4e7" d="
  M 32.35 78.57
  L 20.84 67.22
  L 20.00 64.53
  Q 19.80 63.90 20.46 64.01
  Q 28.02 65.36 33.46 70.69
  Q 33.81 71.03 33.90 71.52
  Q 34.69 76.09 36.81 80.19
  A 0.37 0.37 0.0 0 1 36.31 80.69
  L 32.35 78.57
  Z"
/>
<path fill="#e3e4e7" d="
  M 56.99 71.82
  C 52.40 69.64 50.84 75.25 49.33 78.29
  L 43.47 80.76
  Q 42.67 81.10 43.08 80.33
  Q 45.36 76.04 46.18 71.24
  A 1.57 1.53 73.9 0 1 46.64 70.38
  Q 52.14 65.36 59.50 64.04
  Q 60.05 63.95 59.97 64.50
  Q 59.44 68.21 57.80 71.52
  Q 57.66 71.80 56.99 71.82
  Z"
/>
<path fill="#c1e4e0" d="
  M 6.12 71.46
  Q 4.98 70.23 6.62 69.90
  Q 12.02 68.84 15.17 73.15
  Q 15.54 73.65 14.94 73.83
  Q 9.73 75.36 6.12 71.46
  Z"
/>
<rect fill="#c4c4c4" x="-0.37" y="-3.87" transform="translate(37.10,76.86) rotate(-23.0)" width="0.74" height="7.74" rx="0.29"/>
<rect fill="#c4c4c4" x="-0.35" y="-3.82" transform="translate(42.82,77.11) rotate(22.9)" width="0.70" height="7.64" rx="0.27"/>
<ellipse fill="#c1e4e0" cx="0.00" cy="0.00" transform="translate(72.12,75.80) rotate(-19.1)" rx="3.08" ry="1.20"/>
<path fill="#c4c4c4" d="
  M 44.46 82.41
  Q 44.04 82.99 43.46 82.63
  A 0.29 0.28 48.1 0 1 43.48 82.13
  L 47.85 79.97
  A 0.22 0.21 5.4 0 1 48.12 80.29
  Q 46.98 81.74 45.17 81.99
  Q 44.73 82.05 44.46 82.41
  Z"
/>
<circle fill="#c4c4c4" cx="24.02" cy="83.37" r="1.58"/>
<path fill="#e3e4e7" d="
  M 47.03 82.74
  L 45.14 86.26
  L 42.45 84.80
  Q 41.84 84.47 42.50 84.25
  L 47.03 82.74
  Z"
/>
<path fill="#e3e4e7" d="
  M 44.26 87.41
  Q 43.68 91.14 39.30 85.13
  Q 42.05 85.67 44.26 87.41
  Z"
/>
</svg>
