<?xml version="1.0" encoding="UTF-8" standalone="no"?>
<!DOCTYPE svg PUBLIC "-//W3C//DTD SVG 1.1//EN" "http://www.w3.org/Graphics/SVG/1.1/DTD/svg11.dtd">
<svg xmlns="http://www.w3.org/2000/svg" version="1.1" viewBox="0.00 0.00 80.00 90.00">
<g stroke-width="2.00" fill="none" stroke-linecap="butt">
<path stroke="#badada" vector-effect="non-scaling-stroke" d="
  M 71.54 22.00
  L 71.96 23.50"
/>
<path stroke="#d4d4d6" vector-effect="non-scaling-stroke" d="
  M 35.00 84.46
  L 36.19 83.91
  A 0.50 0.50 0.0 0 0 35.91 82.96
  Q 34.44 83.20 33.04 82.75"
/>
<path stroke="#d4d4d6" vector-effect="non-scaling-stroke" d="
  M 31.25 81.46
  Q 33.33 79.76 35.85 80.92
  A 0.60 0.60 0.0 0 0 36.54 79.97
  Q 36.06 79.46 34.98 79.56
  Q 31.98 79.85 28.96 79.75"
/>
<path stroke="#d4d4d6" vector-effect="non-scaling-stroke" d="
  M 27.71 78.27
  Q 31.60 77.01 36.14 77.81
  A 0.50 0.50 0.0 0 0 36.58 76.96
  L 36.30 76.67
  A 0.69 0.69 0.0 0 0 35.77 76.47
  Q 30.75 76.78 25.71 76.57
  Q 25.39 76.56 25.18 76.42
  Q 24.94 76.26 24.75 76.04"
/>
<path stroke="#d4d4d6" vector-effect="non-scaling-stroke" d="
  M 24.21 75.50
  L 24.25 74.97
  Q 24.29 74.50 24.76 74.50
  L 36.25 74.50
  A 0.54 0.54 0.0 0 0 36.68 73.63
  Q 36.38 73.24 35.75 73.24
  Q 28.19 73.26 20.81 73.26"
/>
<path stroke="#7e7f80" vector-effect="non-scaling-stroke" d="
  M 9.53 17.01
  Q 11.35 16.56 13.48 16.79
  Q 13.84 16.82 14.01 16.68
  Q 14.23 16.49 14.26 16.02
  A 0.48 0.48 0.0 0 0 13.75 15.51
  Q 11.92 15.62 10.67 15.05"
/>
<path stroke="#7e7f80" vector-effect="non-scaling-stroke" d="
  M 11.29 13.75
  L 17.34 13.35
  A 0.53 0.53 0.0 0 0 17.32 12.29
  L 13.01 12.23
  Q 12.84 12.23 12.76 12.07
  Q 12.68 11.89 12.71 11.75"
/>
<path stroke="#7e7f80" vector-effect="non-scaling-stroke" d="
  M 13.53 10.46
  L 17.25 10.22
  A 0.39 0.39 0.0 0 0 17.55 9.61
  Q 16.91 8.70 15.46 8.75"
/>
<path stroke="#7e7f80" vector-effect="non-scaling-stroke" d="
  M 16.79 7.50
  L 17.75 6.54"
/>
<path stroke="#7e7f80" vector-effect="non-scaling-stroke" d="
  M 36.50 4.64
  L 35.72 4.64
  A 0.52 0.51 63.1 0 0 35.42 5.57
  Q 35.89 5.92 36.42 5.65
  Q 36.80 5.45 36.74 5.22
  Q 36.59 4.64 36.50 4.64"
/>
<path stroke="#7e7f80" vector-effect="non-scaling-stroke" d="
  M 39.95 4.58
  Q 39.55 4.24 39.20 4.89
  A 0.59 0.57 46.7 0 0 39.19 5.40
  L 39.33 5.68
  A 0.79 0.61 -75.5 0 0 40.44 4.82
  Q 40.40 4.73 40.22 4.70
  Q 40.07 4.68 39.95 4.58"
/>
<path stroke="#7e7f80" vector-effect="non-scaling-stroke" d="
  M 44.27 5.12
  A 0.64 0.64 0.0 0 0 43.63 4.48
  A 0.64 0.64 0.0 0 0 42.99 5.12
  A 0.64 0.64 0.0 0 0 43.63 5.76
  A 0.64 0.64 0.0 0 0 44.27 5.12"
/>
<path stroke="#7e7f80" vector-effect="non-scaling-stroke" d="
  M 38.9034 55.2514
  A 23.09 22.83 92.3 0 0 62.6416 33.0962
  A 23.09 22.83 92.3 0 0 40.7566 9.1086
  A 23.09 22.83 92.3 0 0 17.0184 31.2638
  A 23.09 22.83 92.3 0 0 38.9034 55.2514"
/>
<path stroke="#7e7f80" vector-effect="non-scaling-stroke" d="
  M 35.28 58.80
  A 0.47 0.47 0.0 0 0 35.55 59.61
  L 36.28 59.68
  A 0.52 0.52 0.0 0 0 36.68 58.77
  Q 35.98 58.15 35.28 58.80"
/>
<path stroke="#7e7f80" vector-effect="non-scaling-stroke" d="
  M 39.40 59.86
  L 40.07 59.70
  Q 40.81 59.52 40.43 58.85
  Q 40.18 58.42 39.77 58.50
  Q 39.39 58.57 39.19 58.90
  L 38.97 59.28
  A 0.39 0.39 0.0 0 0 39.40 59.86"
/>
<path stroke="#7e7f80" vector-effect="non-scaling-stroke" d="
  M 43.55 59.65
  Q 45.06 57.45 42.89 59.14
  A 0.30 0.30 0.0 0 0 42.98 59.66
  Q 43.12 59.71 43.25 59.75
  Q 43.44 59.81 43.55 59.65"
/>
<path stroke="#d4d4d6" vector-effect="non-scaling-stroke" d="
  M 36.6906 70.6573
  A 0.34 0.34 0.0 0 0 36.3518 70.3161
  L 21.3719 70.2639
  A 0.34 0.34 0.0 0 0 21.0307 70.6027
  L 21.0294 70.9627
  A 0.34 0.34 0.0 0 0 21.3682 71.3039
  L 36.3481 71.3561
  A 0.34 0.34 0.0 0 0 36.6893 71.0173
  L 36.6906 70.6573"
/>
<path stroke="#7e7f80" vector-effect="non-scaling-stroke" d="
  M 61.46 32.12
  A 21.64 21.64 0.0 0 0 39.82 10.48
  A 21.64 21.64 0.0 0 0 18.18 32.12
  A 21.64 21.64 0.0 0 0 39.82 53.76
  A 21.64 21.64 0.0 0 0 61.46 32.12"
/>
<path stroke="#f1f2f3" vector-effect="non-scaling-stroke" d="
  M 59.07 32.11
  A 19.25 19.25 0.0 0 0 39.82 12.86
  A 19.25 19.25 0.0 0 0 20.57 32.11
  A 19.25 19.25 0.0 0 0 39.82 51.36
  A 19.25 19.25 0.0 0 0 59.07 32.11"
/>
<path stroke="#c8e8e6" vector-effect="non-scaling-stroke" d="
  M 43.01 35.54
  A 0.30 0.30 0.0 0 1 43.31 35.24
  L 48.95 35.26
  A 0.30 0.30 0.0 0 0 49.25 34.96
  L 49.25 29.29
  A 0.30 0.30 0.0 0 0 48.95 28.99
  L 43.30 29.01
  A 0.30 0.30 0.0 0 1 43.00 28.71
  L 43.00 22.80
  A 0.30 0.30 0.0 0 0 42.70 22.50
  L 37.05 22.50
  A 0.30 0.30 0.0 0 0 36.75 22.80
  L 36.75 28.69
  A 0.30 0.30 0.0 0 1 36.45 28.99
  L 30.55 29.01
  A 0.30 0.30 0.0 0 0 30.25 29.31
  L 30.25 34.95
  A 0.30 0.30 0.0 0 0 30.55 35.25
  L 36.46 35.25
  A 0.30 0.30 0.0 0 1 36.76 35.55
  L 36.74 41.45
  A 0.30 0.30 0.0 0 0 37.04 41.75
  L 42.69 41.75
  A 0.30 0.30 0.0 0 0 42.99 41.45
  L 43.01 35.54"
/>
</g>
<path fill="#e3e4e7" d="
  M 38.06 0.00
  L 44.05 0.00
  C 58.23 1.47 68.41 7.42 71.54 22.00
  L 71.96 23.50
  Q 73.16 29.90 70.96 36.10
  Q 70.80 36.54 71.02 36.95
  L 76.93 47.97
  A 2.11 2.11 0.0 0 1 75.36 51.06
  L 72.70 51.42
  A 0.75 0.74 -8.8 0 0 72.07 52.27
  L 72.61 55.63
  Q 72.71 56.23 72.25 56.62
  Q 71.10 57.58 71.77 58.98
  A 1.03 1.03 0.0 0 1 71.72 59.99
  Q 68.73 64.78 69.33 70.51
  A 1.04 1.01 -36.5 0 1 69.24 71.05
  C 65.31 79.81 54.44 67.27 50.84 74.10
  Q 46.65 82.07 42.44 90.00
  L 41.94 90.00
  L 35.00 84.46
  L 36.19 83.91
  A 0.50 0.50 0.0 0 0 35.91 82.96
  Q 34.44 83.20 33.04 82.75
  L 31.25 81.46
  Q 33.33 79.76 35.85 80.92
  A 0.60 0.60 0.0 0 0 36.54 79.97
  Q 36.06 79.46 34.98 79.56
  Q 31.98 79.85 28.96 79.75
  L 27.71 78.27
  Q 31.60 77.01 36.14 77.81
  A 0.50 0.50 0.0 0 0 36.58 76.96
  L 36.30 76.67
  A 0.69 0.69 0.0 0 0 35.77 76.47
  Q 30.75 76.78 25.71 76.57
  Q 25.39 76.56 25.18 76.42
  Q 24.94 76.26 24.75 76.04
  L 24.21 75.50
  L 24.25 74.97
  Q 24.29 74.50 24.76 74.50
  L 36.25 74.50
  A 0.54 0.54 0.0 0 0 36.68 73.63
  Q 36.38 73.24 35.75 73.24
  Q 28.19 73.26 20.81 73.26
  L 16.09 69.30
  Q 15.66 68.95 15.99 68.50
  C 21.84 60.51 16.81 53.69 12.11 46.68
  Q 2.87 32.88 9.53 17.01
  Q 11.35 16.56 13.48 16.79
  Q 13.84 16.82 14.01 16.68
  Q 14.23 16.49 14.26 16.02
  A 0.48 0.48 0.0 0 0 13.75 15.51
  Q 11.92 15.62 10.67 15.05
  L 11.29 13.75
  L 17.34 13.35
  A 0.53 0.53 0.0 0 0 17.32 12.29
  L 13.01 12.23
  Q 12.84 12.23 12.76 12.07
  Q 12.68 11.89 12.71 11.75
  L 13.53 10.46
  L 17.25 10.22
  A 0.39 0.39 0.0 0 0 17.55 9.61
  Q 16.91 8.70 15.46 8.75
  L 16.79 7.50
  L 17.75 6.54
  Q 26.99 0.55 38.06 0.00
  Z
  M 36.50 4.64
  L 35.72 4.64
  A 0.52 0.51 63.1 0 0 35.42 5.57
  Q 35.89 5.92 36.42 5.65
  Q 36.80 5.45 36.74 5.22
  Q 36.59 4.64 36.50 4.64
  Z
  M 39.95 4.58
  Q 39.55 4.24 39.20 4.89
  A 0.59 0.57 46.7 0 0 39.19 5.40
  L 39.33 5.68
  A 0.79 0.61 -75.5 0 0 40.44 4.82
  Q 40.40 4.73 40.22 4.70
  Q 40.07 4.68 39.95 4.58
  Z
  M 44.27 5.12
  A 0.64 0.64 0.0 0 0 43.63 4.48
  A 0.64 0.64 0.0 0 0 42.99 5.12
  A 0.64 0.64 0.0 0 0 43.63 5.76
  A 0.64 0.64 0.0 0 0 44.27 5.12
  Z
  M 38.9034 55.2514
  A 23.09 22.83 92.3 0 0 62.6416 33.0962
  A 23.09 22.83 92.3 0 0 40.7566 9.1086
  A 23.09 22.83 92.3 0 0 17.0184 31.2638
  A 23.09 22.83 92.3 0 0 38.9034 55.2514
  Z
  M 35.28 58.80
  A 0.47 0.47 0.0 0 0 35.55 59.61
  L 36.28 59.68
  A 0.52 0.52 0.0 0 0 36.68 58.77
  Q 35.98 58.15 35.28 58.80
  Z
  M 39.40 59.86
  L 40.07 59.70
  Q 40.81 59.52 40.43 58.85
  Q 40.18 58.42 39.77 58.50
  Q 39.39 58.57 39.19 58.90
  L 38.97 59.28
  A 0.39 0.39 0.0 0 0 39.40 59.86
  Z
  M 43.55 59.65
  Q 45.06 57.45 42.89 59.14
  A 0.30 0.30 0.0 0 0 42.98 59.66
  Q 43.12 59.71 43.25 59.75
  Q 43.44 59.81 43.55 59.65
  Z
  M 36.6906 70.6573
  A 0.34 0.34 0.0 0 0 36.3518 70.3161
  L 21.3719 70.2639
  A 0.34 0.34 0.0 0 0 21.0307 70.6027
  L 21.0294 70.9627
  A 0.34 0.34 0.0 0 0 21.3682 71.3039
  L 36.3481 71.3561
  A 0.34 0.34 0.0 0 0 36.6893 71.0173
  L 36.6906 70.6573
  Z"
/>
<path fill="#91d0cc" d="
  M 74.57 0.00
  L 75.31 0.00
  L 75.51 2.02
  Q 75.56 2.50 76.04 2.50
  L 77.53 2.50
  A 0.64 0.64 0.0 0 1 77.62 3.77
  L 76.03 4.00
  A 0.57 0.55 -1.5 0 0 75.56 4.48
  L 75.36 6.32
  A 0.48 0.48 0.0 0 1 74.42 6.37
  L 73.98 4.37
  A 0.71 0.69 86.5 0 0 73.37 3.82
  L 71.67 3.65
  A 0.88 0.47 -26.0 0 1 72.50 2.51
  L 73.88 2.47
  A 0.49 0.49 0.0 0 0 74.30 1.76
  Q 73.79 0.76 74.57 0.00
  Z"
/>
<rect fill="#191918" x="1.53" y="2.49" width="15.98" height="1.50" rx="0.73"/>
<path fill="#191918" d="
  M 36.50 4.64
  Q 36.59 4.64 36.74 5.22
  Q 36.80 5.45 36.42 5.65
  Q 35.89 5.92 35.42 5.57
  A 0.52 0.51 63.1 0 1 35.72 4.64
  L 36.50 4.64
  Z"
/>
<path fill="#191918" d="
  M 40.22 4.70
  Q 40.40 4.73 40.44 4.82
  A 0.79 0.61 -75.5 0 1 39.33 5.68
  L 39.19 5.40
  A 0.59 0.57 46.7 0 1 39.20 4.89
  Q 39.55 4.24 39.95 4.58
  Q 40.07 4.68 40.22 4.70
  Z"
/>
<circle fill="#191918" cx="43.63" cy="5.12" r="0.64"/>
<path fill="#191918" d="
  M 17.75 6.54
  L 16.79 7.50
  L 16.60 7.22
  Q 16.42 6.94 16.09 6.96
  Q 9.55 7.35 3.00 7.36
  Q 1.98 7.36 1.54 6.56
  A 0.55 0.55 0.0 0 1 2.02 5.75
  L 16.43 5.75
  Q 16.90 5.75 17.25 6.07
  L 17.75 6.54
  Z"
/>
<path fill="#191918" d="
  M 15.46 8.75
  Q 16.91 8.70 17.55 9.61
  A 0.39 0.39 0.0 0 1 17.25 10.22
  L 13.53 10.46
  L 2.03 10.29
  A 0.55 0.54 5.8 0 1 1.50 9.65
  Q 1.65 8.77 2.76 8.83
  Q 9.11 9.23 15.46 8.75
  Z"
/>
<path fill="#191918" d="
  M 38.9034 55.2514
  A 23.09 22.83 92.3 0 1 17.0184 31.2638
  A 23.09 22.83 92.3 0 1 40.7566 9.1086
  A 23.09 22.83 92.3 0 1 62.6416 33.0962
  A 23.09 22.83 92.3 0 1 38.9034 55.2514
  Z
  M 61.46 32.12
  A 21.64 21.64 0.0 0 0 39.82 10.48
  A 21.64 21.64 0.0 0 0 18.18 32.12
  A 21.64 21.64 0.0 0 0 39.82 53.76
  A 21.64 21.64 0.0 0 0 61.46 32.12
  Z"
/>
<path fill="#e3e4e7" d="
  M 75.92 12.20
  L 77.69 12.43
  A 0.47 0.47 0.0 0 1 77.69 13.37
  L 75.92 13.60
  A 0.47 0.47 0.0 0 0 75.52 14.00
  L 75.29 15.77
  A 0.47 0.47 0.0 0 1 74.35 15.77
  L 74.12 14.00
  A 0.47 0.47 0.0 0 0 73.72 13.60
  L 71.95 13.37
  A 0.47 0.47 0.0 0 1 71.95 12.43
  L 73.72 12.20
  A 0.47 0.47 0.0 0 0 74.12 11.80
  L 74.35 10.03
  A 0.47 0.47 0.0 0 1 75.29 10.03
  L 75.52 11.80
  A 0.47 0.47 0.0 0 0 75.92 12.20
  Z"
/>
<path fill="#e3e4e7" d="
  M 61.46 32.12
  A 21.64 21.64 0.0 0 1 39.82 53.76
  A 21.64 21.64 0.0 0 1 18.18 32.12
  A 21.64 21.64 0.0 0 1 39.82 10.48
  A 21.64 21.64 0.0 0 1 61.46 32.12
  Z
  M 59.07 32.11
  A 19.25 19.25 0.0 0 0 39.82 12.86
  A 19.25 19.25 0.0 0 0 20.57 32.11
  A 19.25 19.25 0.0 0 0 39.82 51.36
  A 19.25 19.25 0.0 0 0 59.07 32.11
  Z"
/>
<path fill="#191918" d="
  M 12.71 11.75
  Q 12.68 11.89 12.76 12.07
  Q 12.84 12.23 13.01 12.23
  L 17.32 12.29
  A 0.53 0.53 0.0 0 1 17.34 13.35
  L 11.29 13.75
  C 8.46 13.42 1.85 13.71 1.58 13.14
  A 0.73 0.73 0.0 0 1 2.31 12.10
  Q 7.51 12.64 12.71 11.75
  Z"
/>
<path fill="#ffffff" d="
  M 59.07 32.11
  A 19.25 19.25 0.0 0 1 39.82 51.36
  A 19.25 19.25 0.0 0 1 20.57 32.11
  A 19.25 19.25 0.0 0 1 39.82 12.86
  A 19.25 19.25 0.0 0 1 59.07 32.11
  Z
  M 43.01 35.54
  A 0.30 0.30 0.0 0 1 43.31 35.24
  L 48.95 35.26
  A 0.30 0.30 0.0 0 0 49.25 34.96
  L 49.25 29.29
  A 0.30 0.30 0.0 0 0 48.95 28.99
  L 43.30 29.01
  A 0.30 0.30 0.0 0 1 43.00 28.71
  L 43.00 22.80
  A 0.30 0.30 0.0 0 0 42.70 22.50
  L 37.05 22.50
  A 0.30 0.30 0.0 0 0 36.75 22.80
  L 36.75 28.69
  A 0.30 0.30 0.0 0 1 36.45 28.99
  L 30.55 29.01
  A 0.30 0.30 0.0 0 0 30.25 29.31
  L 30.25 34.95
  A 0.30 0.30 0.0 0 0 30.55 35.25
  L 36.46 35.25
  A 0.30 0.30 0.0 0 1 36.76 35.55
  L 36.74 41.45
  A 0.30 0.30 0.0 0 0 37.04 41.75
  L 42.69 41.75
  A 0.30 0.30 0.0 0 0 42.99 41.45
  L 43.01 35.54
  Z"
/>
<path fill="#191918" d="
  M 10.67 15.05
  Q 11.92 15.62 13.75 15.51
  A 0.48 0.48 0.0 0 1 14.26 16.02
  Q 14.23 16.49 14.01 16.68
  Q 13.84 16.82 13.48 16.79
  Q 11.35 16.56 9.53 17.01
  L 2.02 16.79
  A 0.60 0.60 0.0 0 1 1.44 16.17
  Q 1.47 15.35 2.25 15.37
  Q 6.60 15.51 10.67 15.05
  Z"
/>
<path fill="#91d0cc" d="
  M 71.96 23.50
  L 71.54 22.00
  L 73.58 21.71
  Q 74.00 21.65 74.09 21.23
  L 74.50 19.32
  A 0.47 0.47 0.0 0 1 75.42 19.39
  L 75.53 21.28
  Q 75.56 21.75 76.03 21.75
  L 77.51 21.75
  A 0.71 0.70 -47.1 0 1 77.56 23.16
  L 76.03 23.28
  A 0.51 0.51 0.0 0 0 75.56 23.73
  L 75.35 25.68
  A 0.56 0.56 0.0 0 1 74.24 25.72
  L 73.86 23.67
  Q 73.76 23.11 73.20 23.01
  Q 72.45 22.88 71.96 23.50
  Z"
/>
<path fill="#91d0cc" d="
  M 43.01 35.54
  L 42.99 41.45
  A 0.30 0.30 0.0 0 1 42.69 41.75
  L 37.04 41.75
  A 0.30 0.30 0.0 0 1 36.74 41.45
  L 36.76 35.55
  A 0.30 0.30 0.0 0 0 36.46 35.25
  L 30.55 35.25
  A 0.30 0.30 0.0 0 1 30.25 34.95
  L 30.25 29.31
  A 0.30 0.30 0.0 0 1 30.55 29.01
  L 36.45 28.99
  A 0.30 0.30 0.0 0 0 36.75 28.69
  L 36.75 22.80
  A 0.30 0.30 0.0 0 1 37.05 22.50
  L 42.70 22.50
  A 0.30 0.30 0.0 0 1 43.00 22.80
  L 43.00 28.71
  A 0.30 0.30 0.0 0 0 43.30 29.01
  L 48.95 28.99
  A 0.30 0.30 0.0 0 1 49.25 29.29
  L 49.25 34.96
  A 0.30 0.30 0.0 0 1 48.95 35.26
  L 43.31 35.24
  A 0.30 0.30 0.0 0 0 43.01 35.54
  Z"
/>
<circle fill="#c4c4c4" cx="6.41" cy="53.01" r="1.57"/>
<path fill="#191918" d="
  M 35.28 58.80
  Q 35.98 58.15 36.68 58.77
  A 0.52 0.52 0.0 0 1 36.28 59.68
  L 35.55 59.61
  A 0.47 0.47 0.0 0 1 35.28 58.80
  Z"
/>
<path fill="#191918" d="
  M 39.40 59.86
  A 0.39 0.39 0.0 0 1 38.97 59.28
  L 39.19 58.90
  Q 39.39 58.57 39.77 58.50
  Q 40.18 58.42 40.43 58.85
  Q 40.81 59.52 40.07 59.70
  L 39.40 59.86
  Z"
/>
<path fill="#191918" d="
  M 43.25 59.75
  Q 43.12 59.71 42.98 59.66
  A 0.30 0.30 0.0 0 1 42.89 59.14
  Q 45.06 57.45 43.55 59.65
  Q 43.44 59.81 43.25 59.75
  Z"
/>
<path fill="#191918" d="
  M 4.32 80.00
  L 1.80 80.00
  A 0.81 0.81 0.0 0 1 0.99 79.18
  L 1.04 75.09
  A 0.81 0.81 0.0 0 1 1.88 74.29
  L 4.27 74.39
  A 0.81 0.81 0.0 0 0 5.11 73.57
  L 5.06 70.83
  A 0.81 0.81 0.0 0 1 5.87 70.00
  L 10.02 70.00
  A 0.81 0.81 0.0 0 1 10.83 70.88
  L 10.58 73.62
  A 0.81 0.81 0.0 0 0 11.48 74.49
  L 13.93 74.21
  A 0.81 0.81 0.0 0 1 14.84 74.97
  L 15.06 79.15
  A 0.81 0.81 0.0 0 1 14.25 80.00
  L 11.48 80.00
  A 0.81 0.81 0.0 0 0 10.67 80.84
  L 10.75 83.41
  A 0.81 0.81 0.0 0 1 9.94 84.25
  L 5.93 84.25
  A 0.81 0.81 0.0 0 1 5.12 83.44
  L 5.13 80.81
  A 0.81 0.81 0.0 0 0 4.32 80.00
  Z
  M 10.15 75.61
  A 0.96 0.96 0.0 0 1 9.40 74.85
  L 8.83 71.91
  A 0.96 0.96 0.0 0 0 6.95 71.91
  L 6.36 74.84
  A 0.96 0.96 0.0 0 1 5.60 75.59
  L 2.66 76.16
  A 0.96 0.96 0.0 0 0 2.66 78.04
  L 5.59 78.63
  A 0.96 0.96 0.0 0 1 6.34 79.39
  L 6.91 82.33
  A 0.96 0.96 0.0 0 0 8.79 82.33
  L 9.38 79.40
  A 0.96 0.96 0.0 0 1 10.14 78.65
  L 13.08 78.08
  A 0.96 0.96 0.0 0 0 13.08 76.20
  L 10.15 75.61
  Z"
/>
<rect fill="#c4c4c4" x="-7.83" y="-0.52" transform="translate(28.86,70.81) rotate(0.2)" width="15.66" height="1.04" rx="0.34"/>
<path fill="#c4c4c4" d="
  M 20.81 73.26
  Q 28.19 73.26 35.75 73.24
  Q 36.38 73.24 36.68 73.63
  A 0.54 0.54 0.0 0 1 36.25 74.50
  L 24.76 74.50
  Q 24.29 74.50 24.25 74.97
  L 24.21 75.50
  L 21.43 74.62
  Q 20.97 74.47 20.78 74.02
  Q 20.61 73.61 20.81 73.26
  Z"
/>
<path fill="#c4c4c4" d="
  M 24.75 76.04
  Q 24.94 76.26 25.18 76.42
  Q 25.39 76.56 25.71 76.57
  Q 30.75 76.78 35.77 76.47
  A 0.69 0.69 0.0 0 1 36.30 76.67
  L 36.58 76.96
  A 0.50 0.50 0.0 0 1 36.14 77.81
  Q 31.60 77.01 27.71 78.27
  Q 25.27 77.47 21.42 77.89
  A 0.67 0.67 0.0 0 1 20.87 76.75
  L 21.07 76.55
  Q 21.27 76.36 21.53 76.42
  Q 23.27 76.85 24.75 76.04
  Z"
/>
<circle fill="#c4c4c4" cx="58.92" cy="83.57" r="6.06"/>
<path fill="#c4c4c4" d="
  M 28.96 79.75
  Q 31.98 79.85 34.98 79.56
  Q 36.06 79.46 36.54 79.97
  A 0.60 0.60 0.0 0 1 35.85 80.92
  Q 33.33 79.76 31.25 81.46
  L 21.78 81.05
  A 1.47 1.42 63.8 0 1 20.98 80.76
  L 20.64 80.51
  A 0.41 0.41 0.0 0 1 20.88 79.77
  L 28.96 79.75
  Z"
/>
<path fill="#c4c4c4" d="
  M 33.04 82.75
  Q 34.44 83.20 35.91 82.96
  A 0.50 0.50 0.0 0 1 36.19 83.91
  L 35.00 84.46
  Q 28.51 84.06 22.00 84.39
  Q 20.81 84.45 20.79 83.64
  A 0.84 0.84 0.0 0 1 21.63 82.78
  L 33.04 82.75
  Z"
/>
</svg>
