<?xml version="1.0" encoding="UTF-8" standalone="no"?>
<!DOCTYPE svg PUBLIC "-//W3C//DTD SVG 1.1//EN" "http://www.w3.org/Graphics/SVG/1.1/DTD/svg11.dtd">
<svg xmlns="http://www.w3.org/2000/svg" version="1.1" viewBox="0.00 0.00 80.00 90.00">
<g stroke-width="2.00" fill="none" stroke-linecap="butt">
<path stroke="#838385" vector-effect="non-scaling-stroke" d="
  M 47.48 76.11
  Q 44.08 76.40 40.56 76.17
  Q 40.17 76.15 39.97 76.32
  Q 39.73 76.52 39.58 76.84
  A 0.46 0.46 0.0 0 0 39.97 77.49
  L 46.03 77.86"
/>
<path stroke="#838385" vector-effect="non-scaling-stroke" d="
  M 45.63 79.27
  L 40.19 79.44
  A 0.68 0.67 60.9 0 0 39.84 80.68
  Q 40.25 80.95 41.00 80.85
  Q 42.83 80.61 44.29 80.98"
/>
<path stroke="#838385" vector-effect="non-scaling-stroke" d="
  M 43.88 82.66
  L 39.97 82.74
  A 0.51 0.51 0.0 0 0 39.91 83.75
  L 42.98 84.19"
/>
<path stroke="#838385" vector-effect="non-scaling-stroke" d="
  M 42.03 86.00
  Q 40.60 85.62 39.77 86.19
  A 0.40 0.40 0.0 0 0 39.90 86.91
  L 41.24 87.24"
/>
<path stroke="#badada" vector-effect="non-scaling-stroke" d="
  M 31.97 83.94
  Q 32.37 80.45 29.85 79.59
  Q 29.35 79.42 29.30 78.89
  L 29.17 77.55
  Q 29.10 76.92 28.48 76.81
  Q 26.71 76.49 25.94 78.44
  Q 25.75 78.92 25.07 78.73"
/>
<path stroke="#838385" vector-effect="non-scaling-stroke" d="
  M 20.67 75.23
  Q 21.31 74.81 22.15 75.12
  Q 22.62 75.29 23.11 75.19
  Q 24.67 74.87 24.95 73.25
  Q 25.04 72.75 25.54 72.75
  L 27.25 72.75
  Q 28.00 72.75 28.00 72.00
  L 28.00 69.71
  Q 28.00 69.08 27.40 68.90
  Q 26.77 68.71 26.62 68.67
  A 1.97 1.60 48.2 0 1 26.45 65.09
  Q 26.97 65.13 27.40 64.93
  Q 28.01 64.64 28.01 63.97
  L 27.98 61.35
  A 0.49 0.49 0.0 0 0 27.31 60.90
  Q 25.24 61.72 24.73 59.82
  Q 24.59 59.28 24.09 59.05
  Q 20.46 57.37 18.95 60.78
  Q 18.74 61.27 18.20 61.18
  L 16.65 60.90"
/>
<path stroke="#badada" vector-effect="non-scaling-stroke" d="
  M 16.65 60.90
  Q 16.79 59.77 15.50 58.75"
/>
<path stroke="#badada" vector-effect="non-scaling-stroke" d="
  M 4.63 37.99
  Q 7.76 38.79 10.49 37.92"
/>
<path stroke="#838385" vector-effect="non-scaling-stroke" d="
  M 10.49 37.92
  C 13.86 53.29 28.26 62.50 43.63 59.02
  A 0.48 0.48 0.0 0 0 44.00 58.53
  Q 44.00 58.39 44.00 58.25
  Q 43.99 57.67 43.42 57.77
  Q 25.24 60.93 15.13 46.14
  A 0.68 0.68 0.0 0 1 15.39 45.14
  L 16.74 44.49
  A 0.56 0.56 0.0 0 0 16.37 43.44
  L 14.46 43.86
  Q 14.03 43.95 13.83 43.55
  Q 12.01 39.89 11.82 36.63"
/>
<path stroke="#badada" vector-effect="non-scaling-stroke" d="
  M 11.82 36.63
  Q 16.42 31.76 11.98 27.29"
/>
<path stroke="#838385" vector-effect="non-scaling-stroke" d="
  M 11.98 27.29
  Q 13.11 21.89 16.70 17.15
  A 0.66 0.66 0.0 0 1 17.70 17.08
  L 18.42 17.79
  A 0.53 0.53 0.0 0 0 19.23 17.12
  L 18.28 15.73
  Q 18.05 15.39 18.35 15.10
  Q 21.50 12.03 25.26 9.72
  Q 25.67 9.47 25.43 9.05
  Q 25.16 8.58 24.67 8.83
  Q 14.12 14.43 10.83 26.12"
/>
<path stroke="#badada" vector-effect="non-scaling-stroke" d="
  M 10.83 26.12
  Q 7.43 24.45 3.68 26.37"
/>
<path stroke="#838385" vector-effect="non-scaling-stroke" d="
  M 29.41 8.24
  C 60.96 0.06 76.57 43.32 47.22 56.34
  Q 46.89 56.49 46.78 56.71
  Q 46.57 57.14 46.93 57.61
  A 0.61 0.61 0.0 0 0 47.67 57.78
  C 78.28 42.67 62.22 -1.31 29.75 6.78
  Q 29.09 6.94 28.80 7.34
  A 0.58 0.58 0.0 0 0 29.41 8.24"
/>
<path stroke="#838385" vector-effect="non-scaling-stroke" d="
  M 52.23 44.14
  Q 52.15 43.87 51.78 43.64
  Q 51.47 43.45 51.18 43.54
  Q 50.79 43.66 50.57 44.11
  A 0.55 0.54 -64.8 0 0 50.83 44.86
  Q 52.47 45.60 51.21 46.72
  Q 39.29 57.26 25.43 48.90
  A 0.44 0.43 -44.4 0 1 25.44 48.15
  Q 26.41 47.60 26.20 46.53
  A 0.37 0.37 0.0 0 0 25.60 46.33
  L 24.45 47.31
  Q 24.04 47.66 23.65 47.28
  C 10.66 34.62 18.54 15.11 36.04 12.94
  Q 36.92 12.83 36.46 13.59
  L 36.24 13.96
  A 0.56 0.56 0.0 0 0 36.48 14.75
  L 36.99 14.99
  A 0.53 0.53 0.0 0 0 37.75 14.51
  L 37.75 12.24
  Q 37.75 11.56 37.07 11.60
  C 9.55 13.13 8.98 51.97 35.90 53.83
  Q 36.48 53.87 36.49 54.45
  L 36.53 56.22
  A 0.49 0.49 0.0 0 0 37.50 56.30
  L 37.89 54.29
  Q 37.98 53.84 38.44 53.80
  C 63.55 51.72 65.12 16.95 40.67 11.95
  A 0.58 0.58 0.0 0 0 39.99 12.36
  Q 39.92 12.62 40.04 12.86
  Q 40.19 13.18 40.76 13.30
  Q 46.26 14.52 50.54 18.20
  A 0.52 0.51 41.4 0 1 50.59 18.92
  L 49.79 19.83
  Q 49.62 20.02 49.82 20.20
  Q 49.98 20.35 50.12 20.50
  Q 50.47 20.88 50.78 20.48
  Q 51.76 19.22 52.70 20.56
  Q 60.92 32.30 53.30 44.30
  A 0.59 0.59 0.0 0 1 52.23 44.14"
/>
<path stroke="#838385" vector-effect="non-scaling-stroke" d="
  M 52.43 31.65
  C 52.12 30.46 52.04 29.13 51.69 28.12
  C 46.14 11.89 23.13 15.20 21.75 32.24
  Q 21.70 32.75 22.22 32.75
  Q 22.39 32.75 22.56 32.77
  Q 22.97 32.82 23.02 32.41
  C 25.42 14.02 49.22 14.52 51.20 32.88
  Q 51.26 33.44 51.83 33.49
  Q 53.10 33.59 54.35 33.41
  A 0.58 0.58 0.0 0 0 54.27 32.25
  L 53.20 32.25
  Q 52.59 32.25 52.43 31.65"
/>
<path stroke="#838385" vector-effect="non-scaling-stroke" d="
  M 38.14 42.82
  C 46.85 41.02 50.93 29.97 43.00 24.86
  A 0.53 0.53 0.0 0 0 42.32 25.67
  Q 48.28 32.12 43.80 37.96
  C 37.34 46.36 24.60 37.77 29.59 28.57
  C 30.62 26.67 33.45 24.41 35.93 24.36
  Q 36.82 24.34 37.08 23.72
  A 0.64 0.64 0.0 0 0 36.42 22.82
  C 24.40 24.12 23.77 39.94 35.98 42.84
  A 0.69 0.68 7.1 0 1 36.50 43.50
  L 36.50 46.22
  Q 36.50 46.78 35.94 46.70
  Q 26.89 45.41 23.73 36.95
  Q 23.67 36.79 23.55 36.67
  L 23.29 36.42
  A 0.47 0.47 0.0 0 0 22.48 36.80
  C 23.14 43.52 31.12 47.87 37.14 48.08
  Q 37.75 48.10 37.75 47.49
  L 37.75 43.30
  Q 37.75 42.90 38.14 42.82"
/>
<path stroke="#badada" vector-effect="non-scaling-stroke" d="
  M 40.67 32.81
  A 3.59 3.59 0.0 0 0 37.08 29.22
  A 3.59 3.59 0.0 0 0 33.49 32.81
  A 3.59 3.59 0.0 0 0 37.08 36.40
  A 3.59 3.59 0.0 0 0 40.67 32.81"
/>
<path stroke="#838385" vector-effect="non-scaling-stroke" d="
  M 50.02 37.62
  Q 47.61 43.75 41.50 46.10
  Q 41.13 46.24 41.25 46.62
  L 41.34 46.91
  Q 41.51 47.43 42.02 47.24
  Q 48.87 44.77 51.51 38.00
  A 0.71 0.71 0.0 0 0 51.01 37.04
  Q 50.31 36.87 50.02 37.62"
/>
<path stroke="#badada" vector-effect="non-scaling-stroke" d="
  M 63.50 69.39
  A 1.78 1.78 0.0 0 0 61.72 67.61
  A 1.78 1.78 0.0 0 0 59.94 69.39
  A 1.78 1.78 0.0 0 0 61.72 71.17
  A 1.78 1.78 0.0 0 0 63.50 69.39"
/>
<path stroke="#5a7977" vector-effect="non-scaling-stroke" d="
  M 11.98 27.29
  Q 10.93 31.64 11.82 36.63"
/>
<path stroke="#5a7977" vector-effect="non-scaling-stroke" d="
  M 10.49 37.92
  Q 9.52 32.05 10.83 26.12"
/>
<path stroke="#5a7977" vector-effect="non-scaling-stroke" d="
  M 16.65 60.90
  Q 16.10 61.71 16.25 63.11
  Q 16.32 63.72 15.75 63.95
  Q 12.69 65.19 14.03 68.54
  A 1.33 1.29 4.4 0 0 14.61 69.20
  Q 17.05 70.61 15.99 71.55"
/>
<path stroke="#5a7977" vector-effect="non-scaling-stroke" d="
  M 18.99 73.82
  Q 19.12 73.76 19.19 73.66
  A 0.45 0.44 -48.6 0 0 19.16 73.11
  Q 18.10 71.95 17.46 72.88"
/>
<path stroke="#5a7977" vector-effect="non-scaling-stroke" d="
  M 17.92 64.10
  Q 17.38 65.07 15.63 65.28
  A 0.81 0.81 0.0 0 0 14.96 65.79
  Q 14.04 68.15 16.67 68.82"
/>
<path stroke="#838385" vector-effect="non-scaling-stroke" d="
  M 16.67 68.82
  Q 17.59 69.00 17.53 70.97
  A 0.59 0.59 0.0 0 0 18.29 71.55
  Q 20.41 70.92 20.28 73.02
  A 0.76 0.76 0.0 0 0 20.97 73.83
  L 22.91 74.02
  A 0.96 0.96 0.0 0 0 23.97 73.05
  Q 23.93 70.84 26.01 71.57
  A 0.45 0.45 0.0 0 0 26.54 71.38
  L 26.78 70.98
  Q 27.11 70.43 26.51 70.19
  Q 23.19 68.85 24.55 65.07
  A 0.62 0.49 -15.2 0 1 24.72 64.84
  L 26.84 63.14
  A 0.41 0.40 17.4 0 0 26.47 62.44
  Q 23.99 63.14 23.74 60.68
  A 0.95 0.95 0.0 0 0 22.73 59.83
  L 21.03 59.94
  A 0.83 0.83 0.0 0 0 20.25 60.77
  L 20.25 61.92
  Q 20.25 62.61 19.57 62.51
  L 18.18 62.32
  A 0.62 0.61 16.2 0 0 17.54 62.67
  Q 17.23 63.31 17.92 64.10"
/>
<path stroke="#badada" vector-effect="non-scaling-stroke" d="
  M 16.67 68.82
  Q 18.61 65.85 17.92 64.10"
/>
</g>
<path fill="#e3e4e7" d="
  M 35.33 0.00
  L 41.52 0.00
  Q 69.45 2.52 70.11 30.07
  C 70.21 33.96 67.52 34.92 69.91 39.32
  Q 72.37 43.86 74.91 48.09
  A 1.89 1.89 0.0 0 1 73.57 50.93
  L 70.30 51.43
  A 0.68 0.68 0.0 0 0 69.73 52.22
  L 70.33 55.81
  A 0.92 0.91 65.6 0 1 70.02 56.65
  Q 68.91 57.61 69.44 58.94
  Q 69.64 59.42 69.38 59.88
  Q 66.84 64.37 66.83 69.53
  C 66.82 76.13 58.13 74.12 54.41 72.58
  C 50.30 70.88 48.50 71.94 47.48 76.11
  Q 44.08 76.40 40.56 76.17
  Q 40.17 76.15 39.97 76.32
  Q 39.73 76.52 39.58 76.84
  A 0.46 0.46 0.0 0 0 39.97 77.49
  L 46.03 77.86
  L 45.63 79.27
  L 40.19 79.44
  A 0.68 0.67 60.9 0 0 39.84 80.68
  Q 40.25 80.95 41.00 80.85
  Q 42.83 80.61 44.29 80.98
  L 43.88 82.66
  L 39.97 82.74
  A 0.51 0.51 0.0 0 0 39.91 83.75
  L 42.98 84.19
  L 42.03 86.00
  Q 40.60 85.62 39.77 86.19
  A 0.40 0.40 0.0 0 0 39.90 86.91
  L 41.24 87.24
  Q 40.74 88.62 39.90 89.46
  Q 39.51 89.86 39.06 89.51
  L 31.97 83.94
  Q 32.37 80.45 29.85 79.59
  Q 29.35 79.42 29.30 78.89
  L 29.17 77.55
  Q 29.10 76.92 28.48 76.81
  Q 26.71 76.49 25.94 78.44
  Q 25.75 78.92 25.07 78.73
  L 20.67 75.23
  Q 21.31 74.81 22.15 75.12
  Q 22.62 75.29 23.11 75.19
  Q 24.67 74.87 24.95 73.25
  Q 25.04 72.75 25.54 72.75
  L 27.25 72.75
  Q 28.00 72.75 28.00 72.00
  L 28.00 69.71
  Q 28.00 69.08 27.40 68.90
  Q 26.77 68.71 26.62 68.67
  A 1.97 1.60 48.2 0 1 26.45 65.09
  Q 26.97 65.13 27.40 64.93
  Q 28.01 64.64 28.01 63.97
  L 27.98 61.35
  A 0.49 0.49 0.0 0 0 27.31 60.90
  Q 25.24 61.72 24.73 59.82
  Q 24.59 59.28 24.09 59.05
  Q 20.46 57.37 18.95 60.78
  Q 18.74 61.27 18.20 61.18
  L 16.65 60.90
  Q 16.79 59.77 15.50 58.75
  Q 14.37 54.33 12.94 52.56
  Q 7.60 45.98 4.63 37.99
  Q 7.76 38.79 10.49 37.92
  C 13.86 53.29 28.26 62.50 43.63 59.02
  A 0.48 0.48 0.0 0 0 44.00 58.53
  Q 44.00 58.39 44.00 58.25
  Q 43.99 57.67 43.42 57.77
  Q 25.24 60.93 15.13 46.14
  A 0.68 0.68 0.0 0 1 15.39 45.14
  L 16.74 44.49
  A 0.56 0.56 0.0 0 0 16.37 43.44
  L 14.46 43.86
  Q 14.03 43.95 13.83 43.55
  Q 12.01 39.89 11.82 36.63
  Q 16.42 31.76 11.98 27.29
  Q 13.11 21.89 16.70 17.15
  A 0.66 0.66 0.0 0 1 17.70 17.08
  L 18.42 17.79
  A 0.53 0.53 0.0 0 0 19.23 17.12
  L 18.28 15.73
  Q 18.05 15.39 18.35 15.10
  Q 21.50 12.03 25.26 9.72
  Q 25.67 9.47 25.43 9.05
  Q 25.16 8.58 24.67 8.83
  Q 14.12 14.43 10.83 26.12
  Q 7.43 24.45 3.68 26.37
  C 6.82 8.46 18.26 1.86 35.33 0.00
  Z
  M 29.41 8.24
  C 60.96 0.06 76.57 43.32 47.22 56.34
  Q 46.89 56.49 46.78 56.71
  Q 46.57 57.14 46.93 57.61
  A 0.61 0.61 0.0 0 0 47.67 57.78
  C 78.28 42.67 62.22 -1.31 29.75 6.78
  Q 29.09 6.94 28.80 7.34
  A 0.58 0.58 0.0 0 0 29.41 8.24
  Z
  M 52.23 44.14
  Q 52.15 43.87 51.78 43.64
  Q 51.47 43.45 51.18 43.54
  Q 50.79 43.66 50.57 44.11
  A 0.55 0.54 -64.8 0 0 50.83 44.86
  Q 52.47 45.60 51.21 46.72
  Q 39.29 57.26 25.43 48.90
  A 0.44 0.43 -44.4 0 1 25.44 48.15
  Q 26.41 47.60 26.20 46.53
  A 0.37 0.37 0.0 0 0 25.60 46.33
  L 24.45 47.31
  Q 24.04 47.66 23.65 47.28
  C 10.66 34.62 18.54 15.11 36.04 12.94
  Q 36.92 12.83 36.46 13.59
  L 36.24 13.96
  A 0.56 0.56 0.0 0 0 36.48 14.75
  L 36.99 14.99
  A 0.53 0.53 0.0 0 0 37.75 14.51
  L 37.75 12.24
  Q 37.75 11.56 37.07 11.60
  C 9.55 13.13 8.98 51.97 35.90 53.83
  Q 36.48 53.87 36.49 54.45
  L 36.53 56.22
  A 0.49 0.49 0.0 0 0 37.50 56.30
  L 37.89 54.29
  Q 37.98 53.84 38.44 53.80
  C 63.55 51.72 65.12 16.95 40.67 11.95
  A 0.58 0.58 0.0 0 0 39.99 12.36
  Q 39.92 12.62 40.04 12.86
  Q 40.19 13.18 40.76 13.30
  Q 46.26 14.52 50.54 18.20
  A 0.52 0.51 41.4 0 1 50.59 18.92
  L 49.79 19.83
  Q 49.62 20.02 49.82 20.20
  Q 49.98 20.35 50.12 20.50
  Q 50.47 20.88 50.78 20.48
  Q 51.76 19.22 52.70 20.56
  Q 60.92 32.30 53.30 44.30
  A 0.59 0.59 0.0 0 1 52.23 44.14
  Z
  M 52.43 31.65
  C 52.12 30.46 52.04 29.13 51.69 28.12
  C 46.14 11.89 23.13 15.20 21.75 32.24
  Q 21.70 32.75 22.22 32.75
  Q 22.39 32.75 22.56 32.77
  Q 22.97 32.82 23.02 32.41
  C 25.42 14.02 49.22 14.52 51.20 32.88
  Q 51.26 33.44 51.83 33.49
  Q 53.10 33.59 54.35 33.41
  A 0.58 0.58 0.0 0 0 54.27 32.25
  L 53.20 32.25
  Q 52.59 32.25 52.43 31.65
  Z
  M 38.14 42.82
  C 46.85 41.02 50.93 29.97 43.00 24.86
  A 0.53 0.53 0.0 0 0 42.32 25.67
  Q 48.28 32.12 43.80 37.96
  C 37.34 46.36 24.60 37.77 29.59 28.57
  C 30.62 26.67 33.45 24.41 35.93 24.36
  Q 36.82 24.34 37.08 23.72
  A 0.64 0.64 0.0 0 0 36.42 22.82
  C 24.40 24.12 23.77 39.94 35.98 42.84
  A 0.69 0.68 7.1 0 1 36.50 43.50
  L 36.50 46.22
  Q 36.50 46.78 35.94 46.70
  Q 26.89 45.41 23.73 36.95
  Q 23.67 36.79 23.55 36.67
  L 23.29 36.42
  A 0.47 0.47 0.0 0 0 22.48 36.80
  C 23.14 43.52 31.12 47.87 37.14 48.08
  Q 37.75 48.10 37.75 47.49
  L 37.75 43.30
  Q 37.75 42.90 38.14 42.82
  Z
  M 40.67 32.81
  A 3.59 3.59 0.0 0 0 37.08 29.22
  A 3.59 3.59 0.0 0 0 33.49 32.81
  A 3.59 3.59 0.0 0 0 37.08 36.40
  A 3.59 3.59 0.0 0 0 40.67 32.81
  Z
  M 50.02 37.62
  Q 47.61 43.75 41.50 46.10
  Q 41.13 46.24 41.25 46.62
  L 41.34 46.91
  Q 41.51 47.43 42.02 47.24
  Q 48.87 44.77 51.51 38.00
  A 0.71 0.71 0.0 0 0 51.01 37.04
  Q 50.31 36.87 50.02 37.62
  Z
  M 63.50 69.39
  A 1.78 1.78 0.0 0 0 61.72 67.61
  A 1.78 1.78 0.0 0 0 59.94 69.39
  A 1.78 1.78 0.0 0 0 61.72 71.17
  A 1.78 1.78 0.0 0 0 63.50 69.39
  Z"
/>
<path fill="#232222" d="
  M 8.06 4.83
  A 2.22 2.22 0.0 0 1 5.84 7.05
  A 2.22 2.22 0.0 0 1 3.62 4.83
  A 2.22 2.22 0.0 0 1 5.84 2.61
  A 2.22 2.22 0.0 0 1 8.06 4.83
  Z
  M 6.6055 5.3451
  A 0.92 0.81 34.8 0 0 6.3123 4.1549
  A 0.92 0.81 34.8 0 0 5.0945 4.2949
  A 0.92 0.81 34.8 0 0 5.3877 5.4851
  A 0.92 0.81 34.8 0 0 6.6055 5.3451
  Z"
/>
<path fill="#232222" d="
  M 47.22 56.34
  C 76.57 43.32 60.96 0.06 29.41 8.24
  A 0.58 0.58 0.0 0 1 28.80 7.34
  Q 29.09 6.94 29.75 6.78
  C 62.22 -1.31 78.28 42.67 47.67 57.78
  A 0.61 0.61 0.0 0 1 46.93 57.61
  Q 46.57 57.14 46.78 56.71
  Q 46.89 56.49 47.22 56.34
  Z"
/>
<circle fill="#c1e4e0" cx="71.91" cy="9.65" r="2.57"/>
<path fill="#232222" d="
  M 11.98 27.29
  Q 10.93 31.64 11.82 36.63
  Q 12.01 39.89 13.83 43.55
  Q 14.03 43.95 14.46 43.86
  L 16.37 43.44
  A 0.56 0.56 0.0 0 1 16.74 44.49
  L 15.39 45.14
  A 0.68 0.68 0.0 0 0 15.13 46.14
  Q 25.24 60.93 43.42 57.77
  Q 43.99 57.67 44.00 58.25
  Q 44.00 58.39 44.00 58.53
  A 0.48 0.48 0.0 0 1 43.63 59.02
  C 28.26 62.50 13.86 53.29 10.49 37.92
  Q 9.52 32.05 10.83 26.12
  Q 14.12 14.43 24.67 8.83
  Q 25.16 8.58 25.43 9.05
  Q 25.67 9.47 25.26 9.72
  Q 21.50 12.03 18.35 15.10
  Q 18.05 15.39 18.28 15.73
  L 19.23 17.12
  A 0.53 0.53 0.0 0 1 18.42 17.79
  L 17.70 17.08
  A 0.66 0.66 0.0 0 0 16.70 17.15
  Q 13.11 21.89 11.98 27.29
  Z"
/>
<path fill="#232222" d="
  M 52.23 44.14
  A 0.59 0.59 0.0 0 0 53.30 44.30
  Q 60.92 32.30 52.70 20.56
  Q 51.76 19.22 50.78 20.48
  Q 50.47 20.88 50.12 20.50
  Q 49.98 20.35 49.82 20.20
  Q 49.62 20.02 49.79 19.83
  L 50.59 18.92
  A 0.52 0.51 41.4 0 0 50.54 18.20
  Q 46.26 14.52 40.76 13.30
  Q 40.19 13.18 40.04 12.86
  Q 39.92 12.62 39.99 12.36
  A 0.58 0.58 0.0 0 1 40.67 11.95
  C 65.12 16.95 63.55 51.72 38.44 53.80
  Q 37.98 53.84 37.89 54.29
  L 37.50 56.30
  A 0.49 0.49 0.0 0 1 36.53 56.22
  L 36.49 54.45
  Q 36.48 53.87 35.90 53.83
  C 8.98 51.97 9.55 13.13 37.07 11.60
  Q 37.75 11.56 37.75 12.24
  L 37.75 14.51
  A 0.53 0.53 0.0 0 1 36.99 14.99
  L 36.48 14.75
  A 0.56 0.56 0.0 0 1 36.24 13.96
  L 36.46 13.59
  Q 36.92 12.83 36.04 12.94
  C 18.54 15.11 10.66 34.62 23.65 47.28
  Q 24.04 47.66 24.45 47.31
  L 25.60 46.33
  A 0.37 0.37 0.0 0 1 26.20 46.53
  Q 26.41 47.60 25.44 48.15
  A 0.44 0.43 -44.4 0 0 25.43 48.90
  Q 39.29 57.26 51.21 46.72
  Q 52.47 45.60 50.83 44.86
  A 0.55 0.54 -64.8 0 1 50.57 44.11
  Q 50.79 43.66 51.18 43.54
  Q 51.47 43.45 51.78 43.64
  Q 52.15 43.87 52.23 44.14
  Z"
/>
<path fill="#232222" d="
  M 53.20 32.25
  L 54.27 32.25
  A 0.58 0.58 0.0 0 1 54.35 33.41
  Q 53.10 33.59 51.83 33.49
  Q 51.26 33.44 51.20 32.88
  C 49.22 14.52 25.42 14.02 23.02 32.41
  Q 22.97 32.82 22.56 32.77
  Q 22.39 32.75 22.22 32.75
  Q 21.70 32.75 21.75 32.24
  C 23.13 15.20 46.14 11.89 51.69 28.12
  C 52.04 29.13 52.12 30.46 52.43 31.65
  Q 52.59 32.25 53.20 32.25
  Z"
/>
<path fill="#232222" d="
  M 37.75 43.30
  L 37.75 47.49
  Q 37.75 48.10 37.14 48.08
  C 31.12 47.87 23.14 43.52 22.48 36.80
  A 0.47 0.47 0.0 0 1 23.29 36.42
  L 23.55 36.67
  Q 23.67 36.79 23.73 36.95
  Q 26.89 45.41 35.94 46.70
  Q 36.50 46.78 36.50 46.22
  L 36.50 43.50
  A 0.69 0.68 7.1 0 0 35.98 42.84
  C 23.77 39.94 24.40 24.12 36.42 22.82
  A 0.64 0.64 0.0 0 1 37.08 23.72
  Q 36.82 24.34 35.93 24.36
  C 33.45 24.41 30.62 26.67 29.59 28.57
  C 24.60 37.77 37.34 46.36 43.80 37.96
  Q 48.28 32.12 42.32 25.67
  A 0.53 0.53 0.0 0 1 43.00 24.86
  C 50.93 29.97 46.85 41.02 38.14 42.82
  Q 37.75 42.90 37.75 43.30
  Z"
/>
<path fill="#91d0cc" d="
  M 10.83 26.12
  Q 9.52 32.05 10.49 37.92
  Q 7.76 38.79 4.63 37.99
  Q -2.17 32.65 3.68 26.37
  Q 7.43 24.45 10.83 26.12
  Z"
/>
<path fill="#91d0cc" d="
  M 11.98 27.29
  Q 16.42 31.76 11.82 36.63
  Q 10.93 31.64 11.98 27.29
  Z"
/>
<circle fill="#91d0cc" cx="37.08" cy="32.81" r="3.59"/>
<path fill="#232222" d="
  M 50.02 37.62
  Q 50.31 36.87 51.01 37.04
  A 0.71 0.71 0.0 0 1 51.51 38.00
  Q 48.87 44.77 42.02 47.24
  Q 41.51 47.43 41.34 46.91
  L 41.25 46.62
  Q 41.13 46.24 41.50 46.10
  Q 47.61 43.75 50.02 37.62
  Z"
/>
<path fill="#91d0cc" d="
  M 15.50 58.75
  Q 16.79 59.77 16.65 60.90
  Q 16.10 61.71 16.25 63.11
  Q 16.32 63.72 15.75 63.95
  Q 12.69 65.19 14.03 68.54
  A 1.33 1.29 4.4 0 0 14.61 69.20
  Q 17.05 70.61 15.99 71.55
  Q 14.50 70.10 12.79 70.66
  A 2.07 2.06 40.3 0 1 11.81 70.74
  C 1.17 69.10 5.13 54.49 15.50 58.75
  Z"
/>
<path fill="#232222" d="
  M 20.67 75.23
  Q 19.62 74.84 18.99 73.82
  Q 19.12 73.76 19.19 73.66
  A 0.45 0.44 -48.6 0 0 19.16 73.11
  Q 18.10 71.95 17.46 72.88
  Q 15.65 72.70 15.99 71.55
  Q 17.05 70.61 14.61 69.20
  A 1.33 1.29 4.4 0 1 14.03 68.54
  Q 12.69 65.19 15.75 63.95
  Q 16.32 63.72 16.25 63.11
  Q 16.10 61.71 16.65 60.90
  L 18.20 61.18
  Q 18.74 61.27 18.95 60.78
  Q 20.46 57.37 24.09 59.05
  Q 24.59 59.28 24.73 59.82
  Q 25.24 61.72 27.31 60.90
  A 0.49 0.49 0.0 0 1 27.98 61.35
  L 28.01 63.97
  Q 28.01 64.64 27.40 64.93
  Q 26.97 65.13 26.45 65.09
  A 1.97 1.60 48.2 0 0 26.62 68.67
  Q 26.77 68.71 27.40 68.90
  Q 28.00 69.08 28.00 69.71
  L 28.00 72.00
  Q 28.00 72.75 27.25 72.75
  L 25.54 72.75
  Q 25.04 72.75 24.95 73.25
  Q 24.67 74.87 23.11 75.19
  Q 22.62 75.29 22.15 75.12
  Q 21.31 74.81 20.67 75.23
  Z
  M 17.92 64.10
  Q 17.38 65.07 15.63 65.28
  A 0.81 0.81 0.0 0 0 14.96 65.79
  Q 14.04 68.15 16.67 68.82
  Q 17.59 69.00 17.53 70.97
  A 0.59 0.59 0.0 0 0 18.29 71.55
  Q 20.41 70.92 20.28 73.02
  A 0.76 0.76 0.0 0 0 20.97 73.83
  L 22.91 74.02
  A 0.96 0.96 0.0 0 0 23.97 73.05
  Q 23.93 70.84 26.01 71.57
  A 0.45 0.45 0.0 0 0 26.54 71.38
  L 26.78 70.98
  Q 27.11 70.43 26.51 70.19
  Q 23.19 68.85 24.55 65.07
  A 0.62 0.49 -15.2 0 1 24.72 64.84
  L 26.84 63.14
  A 0.41 0.40 17.4 0 0 26.47 62.44
  Q 23.99 63.14 23.74 60.68
  A 0.95 0.95 0.0 0 0 22.73 59.83
  L 21.03 59.94
  A 0.83 0.83 0.0 0 0 20.25 60.77
  L 20.25 61.92
  Q 20.25 62.61 19.57 62.51
  L 18.18 62.32
  A 0.62 0.61 16.2 0 0 17.54 62.67
  Q 17.23 63.31 17.92 64.10
  Z"
/>
<path fill="#e3e4e7" d="
  M 16.67 68.82
  Q 18.61 65.85 17.92 64.10
  Q 17.23 63.31 17.54 62.67
  A 0.62 0.61 16.2 0 1 18.18 62.32
  L 19.57 62.51
  Q 20.25 62.61 20.25 61.92
  L 20.25 60.77
  A 0.83 0.83 0.0 0 1 21.03 59.94
  L 22.73 59.83
  A 0.95 0.95 0.0 0 1 23.74 60.68
  Q 23.99 63.14 26.47 62.44
  A 0.41 0.40 17.4 0 1 26.84 63.14
  L 24.72 64.84
  A 0.62 0.49 -15.2 0 0 24.55 65.07
  Q 23.19 68.85 26.51 70.19
  Q 27.11 70.43 26.78 70.98
  L 26.54 71.38
  A 0.45 0.45 0.0 0 1 26.01 71.57
  Q 23.93 70.84 23.97 73.05
  A 0.96 0.96 0.0 0 1 22.91 74.02
  L 20.97 73.83
  A 0.76 0.76 0.0 0 1 20.28 73.02
  Q 20.41 70.92 18.29 71.55
  A 0.59 0.59 0.0 0 1 17.53 70.97
  Q 17.59 69.00 16.67 68.82
  Z"
/>
<path fill="#91d0cc" d="
  M 17.92 64.10
  Q 18.61 65.85 16.67 68.82
  Q 14.04 68.15 14.96 65.79
  A 0.81 0.81 0.0 0 1 15.63 65.28
  Q 17.38 65.07 17.92 64.10
  Z"
/>
<circle fill="#91d0cc" cx="61.72" cy="69.39" r="1.78"/>
<path fill="#232222" d="
  M 78.95 72.32
  A 2.22 2.22 0.0 0 1 76.73 74.54
  A 2.22 2.22 0.0 0 1 74.51 72.32
  A 2.22 2.22 0.0 0 1 76.73 70.10
  A 2.22 2.22 0.0 0 1 78.95 72.32
  Z
  M 77.71 72.37
  A 0.90 0.90 0.0 0 0 76.81 71.47
  A 0.90 0.90 0.0 0 0 75.91 72.37
  A 0.90 0.90 0.0 0 0 76.81 73.27
  A 0.90 0.90 0.0 0 0 77.71 72.37
  Z"
/>
<path fill="#c1e4e0" d="
  M 3.46 81.48
  C 0.60 80.73 0.36 76.90 3.53 76.53
  A 0.55 0.54 86.4 0 0 4.00 75.99
  L 4.00 74.26
  A 0.59 0.59 0.0 0 1 4.75 73.69
  Q 6.67 74.25 6.99 72.39
  A 0.88 0.85 82.6 0 1 7.45 71.77
  Q 10.61 70.20 11.83 73.23
  Q 12.04 73.75 12.59 73.75
  L 13.27 73.75
  A 1.45 1.45 0.0 0 1 13.73 76.58
  Q 11.15 77.43 12.21 80.42
  A 0.91 0.89 -2.3 0 0 12.84 80.99
  Q 14.03 81.29 14.44 82.41
  A 1.38 1.38 0.0 0 1 12.94 84.25
  Q 11.66 84.06 11.53 85.36
  Q 11.48 85.86 11.06 86.15
  Q 9.23 87.42 7.35 86.18
  Q 6.89 85.87 6.82 85.32
  Q 6.60 83.68 4.77 84.31
  A 0.58 0.57 79.7 0 1 4.01 83.78
  L 3.98 82.14
  Q 3.97 81.62 3.46 81.48
  Z"
/>
<path fill="#91d0cc" d="
  M 18.99 73.82
  L 17.46 72.88
  Q 18.10 71.95 19.16 73.11
  A 0.45 0.44 -48.6 0 1 19.19 73.66
  Q 19.12 73.76 18.99 73.82
  Z"
/>
<path fill="#232222" d="
  M 47.48 76.11
  Q 51.23 76.37 55.24 76.26
  Q 56.06 76.24 55.90 77.04
  Q 55.82 77.49 55.36 77.51
  L 46.03 77.86
  L 39.97 77.49
  A 0.46 0.46 0.0 0 1 39.58 76.84
  Q 39.73 76.52 39.97 76.32
  Q 40.17 76.15 40.56 76.17
  Q 44.08 76.40 47.48 76.11
  Z"
/>
<path fill="#91d0cc" d="
  M 25.07 78.73
  Q 25.75 78.92 25.94 78.44
  Q 26.71 76.49 28.48 76.81
  Q 29.10 76.92 29.17 77.55
  L 29.30 78.89
  Q 29.35 79.42 29.85 79.59
  Q 32.37 80.45 31.97 83.94
  Q 30.65 84.06 29.53 84.93
  Q 29.10 85.26 29.24 85.79
  Q 29.53 86.84 28.69 87.31
  Q 28.16 87.60 27.64 87.30
  Q 27.38 87.14 27.07 87.32
  Q 26.64 87.56 26.47 88.02
  Q 26.00 89.34 24.67 90.00
  L 22.96 90.00
  Q 21.71 89.14 21.30 87.58
  Q 21.11 86.83 20.48 87.27
  Q 19.75 87.76 19.01 87.26
  A 0.71 0.70 -66.9 0 1 18.71 86.50
  Q 19.16 84.58 17.28 84.30
  A 0.90 0.88 -6.5 0 1 16.60 83.77
  Q 15.20 80.45 18.34 79.53
  Q 18.75 79.41 18.75 78.98
  L 18.75 77.98
  A 1.41 1.41 0.0 0 1 21.53 77.65
  Q 21.91 79.26 23.99 79.42
  Q 24.92 79.49 25.07 78.73
  Z"
/>
<path fill="#232222" d="
  M 45.63 79.27
  L 55.34 79.53
  Q 55.75 79.55 55.75 79.96
  Q 55.75 80.12 55.75 80.30
  Q 55.76 80.74 55.32 80.75
  L 44.29 80.98
  Q 42.83 80.61 41.00 80.85
  Q 40.25 80.95 39.84 80.68
  A 0.68 0.67 60.9 0 1 40.19 79.44
  L 45.63 79.27
  Z"
/>
<path fill="#232222" d="
  M 43.88 82.66
  L 55.54 82.80
  A 0.43 0.43 0.0 0 1 55.93 83.41
  Q 55.81 83.67 55.51 83.86
  Q 55.29 84.01 54.94 84.00
  Q 49.06 83.98 43.17 84.01
  Q 43.10 84.01 43.07 84.07
  Q 42.71 84.88 42.98 84.19
  L 39.91 83.75
  A 0.51 0.51 0.0 0 1 39.97 82.74
  L 43.88 82.66
  Z"
/>
<path fill="#232222" d="
  M 42.03 86.00
  Q 48.48 85.64 54.99 85.89
  Q 55.63 85.91 55.92 86.30
  A 0.59 0.59 0.0 0 1 55.45 87.25
  L 41.24 87.24
  L 39.90 86.91
  A 0.40 0.40 0.0 0 1 39.77 86.19
  Q 40.60 85.62 42.03 86.00
  Z"
/>
</svg>
