<svg xmlns="http://www.w3.org/2000/svg" xmlns:xlink="http://www.w3.org/1999/xlink" viewBox="0,0,256,256" width="30px" height="30px" fill-rule="nonzero"><g fill="#029F8c" fill-rule="nonzero" stroke="none" stroke-width="1" stroke-linecap="butt" stroke-linejoin="miter" stroke-miterlimit="10" stroke-dasharray="" stroke-dashoffset="0" font-family="none" font-weight="none" font-size="none" text-anchor="none" style="mix-blend-mode: normal"><g transform="scale(5.12,5.12)"><path d="M44.78125,13.15625c-0.78125,-2.78906 -2.32812,-4.99219 -4.59375,-6.55078c-2.85937,-1.97266 -6.14844,-2.66797 -8.98828,-3.09375c-3.92969,-0.58594 -7.48828,-0.66797 -10.88281,-0.25391c-3.17969,0.39063 -5.57422,1.01172 -7.75781,2.01562c-4.28125,1.96875 -6.85156,5.15234 -7.63672,9.46094c-0.38281,2.09375 -0.64062,3.98438 -0.78906,5.78906c-0.34375,4.17188 -0.03125,7.86328 0.95313,11.28516c0.96094,3.33594 2.63672,5.71875 5.125,7.28516c0.63281,0.39844 1.44531,0.6875 2.23047,0.96484c0.44531,0.15625 0.87891,0.30859 1.23438,0.47656c0.32813,0.15234 0.32813,0.17969 0.32422,0.45313c-0.02734,2.37109 0,7.01953 0,7.01953l0.00781,0.99219h1.78125l0.28906,-0.28125c0.19141,-0.17969 4.60547,-4.44531 6.17969,-6.16406l0.21484,-0.23828c0.26953,-0.3125 0.26953,-0.3125 0.54688,-0.31641c2.125,-0.04297 4.29688,-0.125 6.45313,-0.24219c2.61328,-0.14062 5.64063,-0.39453 8.49219,-1.58203c2.60938,-1.08984 4.51563,-2.82031 5.66016,-5.14062c1.19531,-2.42187 1.90234,-5.04297 2.16797,-8.01562c0.46875,-5.22656 0.13672,-9.76172 -1.01172,-13.86328zM35.38281,33.48047c-0.65625,1.06641 -1.63281,1.80859 -2.78516,2.28906c-0.84375,0.35156 -1.70312,0.27734 -2.53516,-0.07422c-6.96484,-2.94922 -12.42969,-7.59375 -16.03906,-14.27344c-0.74609,-1.375 -1.26172,-2.875 -1.85547,-4.32812c-0.12109,-0.29687 -0.11328,-0.64844 -0.16797,-0.97656c0.05078,-2.34766 1.85156,-3.67187 3.67188,-4.07031c0.69531,-0.15625 1.3125,0.08984 1.82813,0.58594c1.42969,1.35938 2.55859,2.94141 3.41016,4.71484c0.37109,0.77734 0.20313,1.46484 -0.42969,2.04297c-0.13281,0.12109 -0.26953,0.23047 -0.41406,0.33984c-1.44531,1.08594 -1.65625,1.91016 -0.88672,3.54688c1.3125,2.78516 3.49219,4.65625 6.30859,5.81641c0.74219,0.30469 1.44141,0.15234 2.00781,-0.44922c0.07813,-0.07812 0.16406,-0.15625 0.21875,-0.25c1.10938,-1.85156 2.72266,-1.66797 4.21094,-0.61328c0.97656,0.69531 1.92578,1.42969 2.89063,2.13672c1.47266,1.08203 1.46094,2.09766 0.56641,3.5625zM26.14453,15c-0.32812,0 -0.65625,0.02734 -0.98047,0.08203c-0.54687,0.08984 -1.05859,-0.27734 -1.15234,-0.82422c-0.08984,-0.54297 0.27734,-1.05859 0.82422,-1.14844c0.42969,-0.07422 0.87109,-0.10937 1.30859,-0.10937c4.33203,0 7.85547,3.52344 7.85547,7.85547c0,0.44141 -0.03516,0.88281 -0.10937,1.30859c-0.08203,0.48828 -0.50391,0.83594 -0.98437,0.83594c-0.05469,0 -0.10937,-0.00391 -0.16797,-0.01562c-0.54297,-0.08984 -0.91016,-0.60547 -0.82031,-1.14844c0.05469,-0.32031 0.08203,-0.64844 0.08203,-0.98047c0,-3.22656 -2.62891,-5.85547 -5.85547,-5.85547zM31,21c0,0.55078 -0.44922,1 -1,1c-0.55078,0 -1,-0.44922 -1,-1c0,-1.65234 -1.34766,-3 -3,-3c-0.55078,0 -1,-0.44922 -1,-1c0,-0.55078 0.44922,-1 1,-1c2.75781,0 5,2.24219 5,5zM36.71094,23.22266c-0.10547,0.46484 -0.51953,0.77734 -0.97656,0.77734c-0.07422,0 -0.14844,-0.00781 -0.22266,-0.02344c-0.53906,-0.125 -0.875,-0.66016 -0.75391,-1.19922c0.14453,-0.63672 0.21875,-1.29687 0.21875,-1.96094c0,-4.85937 -3.95703,-8.81641 -8.81641,-8.81641c-0.66406,0 -1.32422,0.07422 -1.96094,0.21875c-0.53906,0.125 -1.07422,-0.21484 -1.19531,-0.75391c-0.125,-0.53906 0.21484,-1.07422 0.75391,-1.19531c0.78125,-0.17969 1.58984,-0.26953 2.40234,-0.26953c5.96484,0 10.81641,4.85156 10.81641,10.81641c0,0.8125 -0.08984,1.62109 -0.26562,2.40625z"></path></g></g></svg>