<?xml version="1.0" encoding="utf-8"?>
<!DOCTYPE svg PUBLIC "-//W3C//DTD SVG 1.0//EN" "http://www.w3.org/TR/2001/REC-SVG-20010904/DTD/svg10.dtd">
<svg version="1.0" xmlns="http://www.w3.org/2000/svg" width="27px" height="30px" viewBox="0 0 27 30" preserveAspectRatio="xMidYMid meet">
 <g fill="#fafdfd">
  <path d="M0 15 l0 -15 13.5 0 13.5 0 0 15 0 15 -13.5 0 -13.5 0 0 -15z"/>
 </g>
 <g fill="#2daea6">
  <path d="M17 29.4 c0 -0.4 1 -2.3 2.2 -4.3 l2.2 -3.6 -3.7 2.8 -3.7 2.8 0 -3.3 c0 -1.8 0.4 -3.8 0.8 -4.5 1 -1.6 7.5 -4.3 10.3 -4.3 2 0 2.1 0.4 1.7 5 -0.6 5.8 -3.7 10 -7.5 10 -1.3 0 -2.3 -0.3 -2.3 -0.6z"/>
  <path d="M5 24.7 c-6.5 -5.1 -6.4 -14.5 0.3 -23.2 1.5 -1.9 1.7 -1.9 6.1 2.7 5.9 6.2 6.7 9.1 3.2 11.9 -1.4 1.1 -2.6 2.8 -2.6 3.6 0 3.1 -1.4 0.2 -3.1 -6.5 l-1.7 -6.7 -0.1 5 c0 2.8 0.4 7.1 0.8 9.8 0.8 4.9 0.1 5.8 -2.9 3.4z"/>
 </g>
 <g fill="#81ceca">
 </g>
 <g fill="#c0e7e5">
 </g>
</svg>