<svg xmlns="http://www.w3.org/2000/svg" xmlns:xlink="http://www.w3.org/1999/xlink" viewBox="0,0,256,256" width="100px" height="100px" fill-rule="nonzero"><g fill="#ffffff" fill-rule="nonzero" stroke="none" stroke-width="1" stroke-linecap="butt" stroke-linejoin="miter" stroke-miterlimit="10" stroke-dasharray="" stroke-dashoffset="0" font-family="none" font-weight="none" font-size="none" text-anchor="none" style="mix-blend-mode: normal"><g transform="scale(10.66667,10.66667)"><path d="M10,0.98047c-4.336,0 -8,3.45492 -8,7.54492v3.49805c0,3.386 1.02305,5.59084 3.12305,6.71484v2.30078c0,0.781 0.46464,1.48116 1.18164,1.78516c0.244,0.103 0.50086,0.1543 0.75586,0.1543c0.494,0 0.97961,-0.18983 1.34961,-0.54883l2.96094,-2.85938h3.06836c4.169,0 7.56055,-3.38588 7.56055,-7.54687v-3.49805c0,-4.161 -3.39255,-7.54492 -7.56055,-7.54492zM10,2.98047h4.44141c3.066,0 5.56055,2.48692 5.56055,5.54492v3.49805c0,3.059 -2.49555,5.54687 -5.56055,5.54687h-3.47266c-0.259,0 -0.50831,0.10025 -0.69531,0.28125l-3.15039,3.04297v-2.79297c0,-0.409 -0.25086,-0.77673 -0.63086,-0.92773c-1.701,-0.678 -2.49219,-2.31439 -2.49219,-5.15039v-3.49805c0,-2.954 2.804,-5.54492 6,-5.54492zM13,3.98047c-0.276,0 -0.5,0.224 -0.5,0.5c0,0.276 0.224,0.5 0.5,0.5c2.947,0 5,2.635 5,5c0,0.276 0.224,0.5 0.5,0.5c0.276,0 0.5,-0.224 0.5,-0.5c0,-2.838 -2.464,-6 -6,-6zM8.00195,4.99023c-0.23825,-0.03587 -0.49027,0.02069 -0.69727,0.17969l-0.58789,0.45313c-0.694,0.533 -0.91544,1.47391 -0.52344,2.25391c0.738,1.467 1.97458,3.72745 3.01758,4.68945c1.282,1.184 3.29623,2.58734 4.99023,3.27734c0.741,0.302 1.58938,0.08942 2.10938,-0.51758c0.185,-0.216 0.35781,-0.43577 0.50781,-0.63477c0.307,-0.408 0.21773,-0.98616 -0.19727,-1.28516l-1.87109,-1.3457c-0.402,-0.289 -0.96363,-0.20936 -1.26562,0.18164l-0.31445,0.34766c-0.208,0.23 -0.52117,0.35106 -0.82617,0.28906c-0.476,-0.096 -1.23056,-0.40684 -2.10156,-1.33984c-0.719,-0.768 -1.12253,-1.5853 -1.26953,-2.1543c-0.088,-0.34 0.03369,-0.69492 0.30469,-0.91992l0.31445,-0.26172c0.367,-0.304 0.43906,-0.83661 0.16406,-1.22461l-1.14062,-1.61133c-0.15,-0.2125 -0.37503,-0.34108 -0.61328,-0.37695zM13,5.98047c-0.276,0 -0.5,0.224 -0.5,0.5c0,0.276 0.224,0.5 0.5,0.5c1.514,0 3,1.486 3,3c0,0.276 0.224,0.5 0.5,0.5c0.276,0 0.5,-0.224 0.5,-0.5c0,-2.056 -1.944,-4 -4,-4zM13,7.98047c-0.276,0 -0.5,0.224 -0.5,0.5c0,0.276 0.224,0.5 0.5,0.5c0.645,0 1,0.355 1,1c0,0.276 0.224,0.5 0.5,0.5c0.276,0 0.5,-0.224 0.5,-0.5c0,-1.196 -0.804,-2 -2,-2z"></path></g></g></svg>